<?xml version="1.0" encoding="UTF-8" standalone="no"?>
<!-- Created with Inkscape (http://www.inkscape.org/) -->

<svg
   xmlns:ns0="http://www.iki.fi/pav/software/textext/"
   xmlns:dc="http://purl.org/dc/elements/1.1/"
   xmlns:cc="http://creativecommons.org/ns#"
   xmlns:rdf="http://www.w3.org/1999/02/22-rdf-syntax-ns#"
   xmlns:svg="http://www.w3.org/2000/svg"
   xmlns="http://www.w3.org/2000/svg"
   xmlns:sodipodi="http://sodipodi.sourceforge.net/DTD/sodipodi-0.dtd"
   xmlns:inkscape="http://www.inkscape.org/namespaces/inkscape"
   sodipodi:docname="armonicos_con_bode.svg"
   id="svg8"
   version="1.1"
   viewBox="0 0 210 297"
   height="297mm"
   width="210mm"
   inkscape:version="0.92.2 (5c3e80d, 2017-08-06)">
  <sodipodi:namedview
     inkscape:window-maximized="1"
     inkscape:window-y="27"
     inkscape:window-x="0"
     inkscape:window-height="1016"
     inkscape:window-width="1920"
     showgrid="false"
     inkscape:current-layer="g12201"
     inkscape:document-units="mm"
     inkscape:cy="890.99786"
     inkscape:cx="407.88844"
     inkscape:zoom="1"
     inkscape:pageshadow="2"
     inkscape:pageopacity="0.0"
     borderopacity="1.0"
     bordercolor="#666666"
     pagecolor="#ffffff"
     id="base" />
  <defs
     id="defs2">
    <marker
       inkscape:stockid="MyCustom_1.0"
       style="overflow:visible"
       refY="0.0"
       refX="0.0"
       orient="auto"
       id="MyCustom_1.0">
      <path
         id="path5679"
         transform="scale(1.0)"
         style="stroke-width:1.0;stroke:#000000;fill:#000000;fill-rule:evenodd"
         d="M -5,5 L 5,-5 M 5,5 L -5,-5" />
    </marker>
    <marker
       id="MyArrow_1.0Start"
       orient="auto"
       refX="0.0"
       refY="0.0"
       style="overflow:visible"
       inkscape:stockid="MyArrow_1.0Start">
      <path
         d="M 0.0,0.0 L 5.0,-5.0 L -12.5,0.0 L 5.0,5.0 L 0.0,0.0 z "
         style="stroke-width:1.0;stroke:#000000;fill:#000000;fill-rule:evenodd"
         transform="scale(0.4) rotate(0) translate(8.818,0)"
         id="path6005" />
    </marker>
    <marker
       id="MyArrow_1.0End"
       orient="auto"
       refX="0.0"
       refY="0.0"
       style="overflow:visible"
       inkscape:stockid="MyArrow_1.0End">
      <path
         d="M 0.0,0.0 L 5.0,-5.0 L -12.5,0.0 L 5.0,5.0 L 0.0,0.0 z "
         style="stroke-width:1.0;stroke:#000000;fill:#000000;fill-rule:evenodd"
         transform="scale(0.4) rotate(180) translate(8.818,0)"
         id="path6008" />
    </marker>
    <marker
       inkscape:stockid="MyDot_1.0"
       style="overflow:visible"
       refY="0.0"
       refX="0.0"
       orient="auto"
       id="MyDot_1.0">
      <path
         id="path6350"
         transform="scale(0.4) translate(7.4, 1)"
         style="stroke-width:1.0;stroke:#000000;fill:#000000;fill-rule:evenodd"
         d="M -2.5,-1.0 C -2.5,1.7600000 -4.7400000,4.0 -7.5,4.0 C -10.260000,4.0 -12.5,1.7600000 -12.5,-1.0 C -12.5,-3.7600000 -10.260000,-6.0 -7.5,-6.0 C -4.7400000,-6.0 -2.5,-3.7600000 -2.5,-1.0 z " />
    </marker>
    <marker
       id="ArrowAxisStart"
       orient="auto"
       refX="0.0"
       refY="0.0"
       style="overflow:visible"
       inkscape:stockid="ArrowAxisStart">
      <path
         d="M 0.0,0.0 L 5.0,-5.0 L -12.5,0.0 L 5.0,5.0 L 0.0,0.0 z "
         style="stroke-width:1.0;stroke:#000000;fill:#000000;fill-rule:evenodd"
         transform="scale(0.4) rotate(0) translate(8.818,0)"
         id="path11950" />
    </marker>
    <marker
       id="ArrowAxisEnd"
       orient="auto"
       refX="0.0"
       refY="0.0"
       style="overflow:visible"
       inkscape:stockid="ArrowAxisEnd">
      <path
         d="M 0.0,0.0 L 5.0,-5.0 L -12.5,0.0 L 5.0,5.0 L 0.0,0.0 z "
         style="stroke-width:1.0;stroke:#000000;fill:#000000;fill-rule:evenodd"
         transform="scale(0.4) rotate(180) translate(8.818,0)"
         id="path11953" />
    </marker>
    <marker
       id="ArrowAxisEnd-3"
       orient="auto"
       refX="0"
       refY="0"
       style="overflow:visible"
       inkscape:stockid="ArrowAxisEnd">
      <path
         d="M 0,0 5,-5 -12.5,0 5,5 Z"
         style="fill:#000000;fill-rule:evenodd;stroke:#000000;stroke-width:1"
         transform="matrix(-0.4,0,0,-0.4,-3.5272,0)"
         id="path11953-6"
         inkscape:connector-curvature="0" />
    </marker>
    <marker
       id="ArrowAxisEnd-3-5"
       orient="auto"
       refX="0"
       refY="0"
       style="overflow:visible"
       inkscape:stockid="ArrowAxisEnd">
      <path
         d="M 0,0 5,-5 -12.5,0 5,5 Z"
         style="fill:#000000;fill-rule:evenodd;stroke:#000000;stroke-width:1"
         transform="matrix(-0.4,0,0,-0.4,-3.5272,0)"
         id="path11953-6-3"
         inkscape:connector-curvature="0" />
    </marker>
  </defs>
  <metadata
     id="metadata5">
    <rdf:RDF>
      <cc:Work
         rdf:about="">
        <dc:format>image/svg+xml</dc:format>
        <dc:type
           rdf:resource="http://purl.org/dc/dcmitype/StillImage" />
      </cc:Work>
    </rdf:RDF>
  </metadata>
  <g
     id="g1157"
     inkscape:label="PlotData" />
  <g
     id="g7814"
     inkscape:label="PlotData"
     transform="translate(49.741667,-16.66875)">
    <g
       id="g7810"
       transform="translate(116.675,74.708333)"
       inkscape:label="Plot" />
  </g>
  <g
     style="display:inline"
     inkscape:label="input"
     id="layer2"
     inkscape:groupmode="layer">
    <g
       transform="translate(-54.338515,21.314847)"
       inkscape:label="PlotData"
       id="g9469">
      <g
         inkscape:label="Plot"
         transform="translate(60,120)"
         id="g9465" />
    </g>
    <g
       transform="translate(23.907937,29.748713)"
       inkscape:label="PlotData"
       id="g11208">
      <g
         inkscape:label="Plot"
         transform="translate(-50,30)"
         id="g11204" />
      <path
         inkscape:connector-curvature="0"
         d="M 4.9938794,30 V 0 H 5.1029996 5.2110339 V 30 H 16.994779 V 19.38967 h 0.03625 0.03613 V 30 h 5.488351 v -6.366198 h 0.02174 0.02169 V 30 h 3.615986 v -4.547284 h 0.01552 0.0155 V 30 h 2.701042 v -3.536777 h 0.01207 0.01206 V 30 h 2.156823 v -2.893726 h 0.0099 0.0099 V 30 h 1.795545 v -2.448538 h 0.0084 0.0083 V 30 h 1.538108 v -2.122066 h 0.0072 0.0072 V 30 h 1.345317 v -1.872411 h 0.0064 0.0064 V 30 h 1.195517 v -1.675315 h 0.0057 0.0057 V 30 h 1.075759 v -1.515761 h 0.0052 0.0052 V 30 h 0.977823 v -1.383956 h 0.0047 0.0047 V 30 h 0.896241 v -1.27324 h 0.0043 0.0043 V 30 h 0.82723 v -1.178926 h 0.004 0.004 V 30 h 0.768091 v -1.09762 h 0.0037 0.0037 V 30 h 0.716846 v -1.026806 h 0.0035 0.0035 V 30 h 0.672013 v -0.964575 h 0.0033 0.0033 V 30 h 0.63246 v -0.909457 h 0.0031 0.0031 V 30 h 0.597306 v -0.860297 h 0.0029 0.0029 V 30 h 0.565853 v -0.816179 h 0.0028 0.0028 V 30 h 0.53755 v -0.776366 h 0.0026 0.0026 V 30 h 0.511942 v -0.740256 h 0.0025 0.0025 V 30 h 0.488663 v -0.707355 h 0.0024 0.0024 V 30 h 0.467411 v -0.677255 h 0.0023 0.0023 V 30 h 0.44793 v -0.649612 h 0.0022 0.0022 V 30 h 0.430008 v -0.624137 h 0.0021 0.0021 V 30 h 0.413465 v -0.600585 h 0.002 0.002 V 30 h 0.398148 v -0.578745 h 0.002 0.002 V 30 h 0.383925 v -0.558438 h 0.0019 0.0019 V 30 h 0.370683 v -0.539508 h 0.0018 0.0018 V 30 H 49.7338 v -0.521819 h 0.0018 0.0018 V 30 h 0.346765 v -0.505254 h 0.0017 0.0017 V 30 h 0.335926 v -0.489708 h 0.0017 0.0017 V 30 h 0.325745 v -0.475089 h 0.0016 0.0016 V 30 h 0.316163 v -0.461319 h 0.0016 0.0016 V 30 h 0.307129 v -0.448324 h 0.0015 0.0015 V 30 h 0.298597 v -0.436041 h 0.0015 0.0015 V 30 h 0.290525 v -0.424413 h 0.0014 0.0014 V 30 h 0.282879 v -0.413389 h 0.0014 0.0014 V 30 h 0.275624 v -0.402924 h 0.0014 0.0014 V 30"
         style="fill:none;stroke:#aaa0ff;stroke-width:0.66666669;stroke-linecap:round;stroke-linejoin:round;stroke-dasharray:none;stroke-opacity:1"
         inkscape:label="none"
         id="path11206" />
    </g>
  </g>
  <g
     style="display:inline"
     inkscape:label="Layer 1"
     inkscape:groupmode="layer"
     id="layer1">
    <g
       transform="translate(-34.032438,88.783133)"
       inkscape:label="PlotData"
       id="g5501">
      <g
         inkscape:label="Plot"
         transform="translate(38.622917,52.910417)"
         id="g5497">
        <g
           transform="translate(-30.682542,-81.944837)"
           inkscape:label="Ticks"
           id="g5453">
          <g
             style="font-style:normal;font-variant:normal;font-weight:normal;font-stretch:normal;letter-spacing:normal;word-spacing:normal;text-anchor:start;fill:none;fill-opacity:1;fill-rule:evenodd;stroke:#000000;stroke-linecap:butt;stroke-linejoin:miter;stroke-miterlimit:10.43299961;stroke-dasharray:none;stroke-dashoffset:0;stroke-opacity:1"
             id="content"
             xml:space="preserve"
             stroke-miterlimit="10.433"
             font-style="normal"
             font-variant="normal"
             font-weight="normal"
             font-stretch="normal"
             font-size-adjust="none"
             letter-spacing="normal"
             word-spacing="normal"
             ns0:text=" $10^{2}$"
             ns0:preamble="/home/newtonis/.config/inkscape/extensions/textextLib/basicLatexPackages.tex"
             transform="matrix(0.591716,0,0,-0.591716,-81.483733,289.76037)"><path
               inkscape:connector-curvature="0"
               d="m 226.36,483.59 v 0.01 0.01 0.02 0.01 0 0.01 0.01 0.01 0.01 0.01 0.01 0.01 0 0.01 0.01 0 0.01 0.01 0.01 l -0.01,0.01 v 0.01 0.01 l -0.01,0.01 v 0 0.01 l -0.01,0.01 h -0.01 v 0.01 h -0.01 l -0.01,0.01 h -0.01 v 0 h -0.01 v 0 h -0.01 v 0 l -0.01,0.01 h -0.01 v 0 h -0.01 -0.01 v 0 h -0.01 -0.01 -0.01 -0.01 -0.01 -0.01 -0.01 -0.01 -0.01 -0.01 c -0.61,-0.64 -1.49,-0.64 -1.81,-0.64 v -0.3 c 0.2,0 0.79,0 1.31,0.26 v -5.15 c 0,-0.36 -0.03,-0.48 -0.93,-0.48 h -0.32 v -0.31 c 0.35,0.04 1.22,0.04 1.61,0.04 0.4,0 1.27,0 1.62,-0.04 v 0.31 h -0.32 c -0.9,0 -0.93,0.11 -0.93,0.48 z"
               style="fill:#000000;stroke-width:0"
               id="path5234" /><path
               inkscape:connector-curvature="0"
               d="m 233,480.41 v 0.15 0.15 l -0.01,0.15 v 0.15 l -0.01,0.15 -0.01,0.14 -0.02,0.15 -0.02,0.15 -0.02,0.14 -0.03,0.15 -0.03,0.14 -0.04,0.15 -0.04,0.14 -0.05,0.14 -0.06,0.14 -0.03,0.07 -0.03,0.07 c -0.46,0.95 -1.28,1.11 -1.69,1.11 -0.6,0 -1.33,-0.26 -1.74,-1.18 -0.32,-0.69 -0.37,-1.46 -0.37,-2.26 0,-0.74 0.04,-1.64 0.45,-2.39 0.43,-0.81 1.16,-1 1.65,-1 v 0.21 c -0.39,0 -0.98,0.25 -1.16,1.21 -0.11,0.59 -0.11,1.51 -0.11,2.09 0,0.64 0,1.29 0.08,1.83 0.19,1.18 0.94,1.27 1.19,1.27 0.33,0 0.98,-0.18 1.17,-1.16 0.1,-0.56 0.1,-1.31 0.1,-1.94 0,-0.74 0,-1.42 -0.11,-2.05 -0.15,-0.95 -0.71,-1.25 -1.16,-1.25 v 0 -0.21 c 0.53,0 1.29,0.21 1.73,1.15 0.32,0.68 0.37,1.46 0.37,2.24 z"
               style="fill:#000000;stroke-width:0"
               id="path5236" /><path
               inkscape:connector-curvature="0"
               d="m 236.93,482.12 h -0.24 c -0.02,-0.16 -0.09,-0.57 -0.18,-0.64 -0.06,-0.04 -0.6,-0.04 -0.7,-0.04 h -1.28 c 0.73,0.65 0.98,0.84 1.4,1.17 0.51,0.41 1,0.84 1,1.5 0,0.84 -0.75,1.36 -1.64,1.36 -0.87,0 -1.45,-0.61 -1.45,-1.25 0,-0.35 0.3,-0.39 0.37,-0.39 0.16,0 0.37,0.12 0.37,0.37 0,0.13 -0.05,0.37 -0.42,0.37 0.22,0.5 0.7,0.65 1.02,0.65 0.7,0 1.07,-0.54 1.07,-1.11 0,-0.6 -0.44,-1.08 -0.66,-1.33 l -1.69,-1.66 c -0.06,-0.06 -0.06,-0.07 -0.06,-0.27 h 2.88 z"
               style="fill:#000000;stroke-width:0"
               id="path5238" /></g>          <path
             inkscape:connector-curvature="0"
             d="M 75,80 V -30"
             style="fill:none;stroke:#b2b2b2;stroke-width:0.40000001;stroke-linecap:round;stroke-linejoin:round;stroke-dasharray:none"
             inkscape:label="none"
             id="path5241" />
          <path
             inkscape:connector-curvature="0"
             d="m 75,-1.25 v 2.5"
             style="fill:none;stroke:#4c4c4c;stroke-width:0.5714286;stroke-linecap:round;stroke-linejoin:round;stroke-dasharray:none"
             inkscape:label="none"
             id="path5259" />
          <g
             style="font-style:normal;font-variant:normal;font-weight:normal;font-stretch:normal;letter-spacing:normal;word-spacing:normal;text-anchor:start;fill:none;fill-opacity:1;fill-rule:evenodd;stroke:#000000;stroke-linecap:butt;stroke-linejoin:miter;stroke-miterlimit:10.43299961;stroke-dasharray:none;stroke-dashoffset:0;stroke-opacity:1"
             id="g5267"
             xml:space="preserve"
             stroke-miterlimit="10.433"
             font-style="normal"
             font-variant="normal"
             font-weight="normal"
             font-stretch="normal"
             font-size-adjust="none"
             letter-spacing="normal"
             word-spacing="normal"
             ns0:text=" $10^{3}$"
             ns0:preamble="/home/newtonis/.config/inkscape/extensions/textextLib/basicLatexPackages.tex"
             transform="matrix(0.591716,0,0,-0.591716,-66.480775,289.76037)"><path
               inkscape:connector-curvature="0"
               d="m 226.36,483.59 v 0.01 0.01 0.02 0.01 0 0.01 0.01 0.01 0.01 0.01 0.01 0.01 0 0.01 0.01 0 0.01 0.01 0.01 l -0.01,0.01 v 0.01 0.01 l -0.01,0.01 v 0 0.01 l -0.01,0.01 h -0.01 v 0.01 h -0.01 l -0.01,0.01 h -0.01 v 0 h -0.01 v 0 h -0.01 v 0 l -0.01,0.01 h -0.01 v 0 h -0.01 -0.01 v 0 h -0.01 -0.01 -0.01 -0.01 -0.01 -0.01 -0.01 -0.01 -0.01 -0.01 c -0.61,-0.64 -1.49,-0.64 -1.81,-0.64 v -0.3 c 0.2,0 0.79,0 1.31,0.26 v -5.15 c 0,-0.36 -0.03,-0.48 -0.93,-0.48 h -0.32 v -0.31 c 0.35,0.04 1.22,0.04 1.61,0.04 0.4,0 1.27,0 1.62,-0.04 v 0.31 h -0.32 c -0.9,0 -0.93,0.11 -0.93,0.48 z"
               style="fill:#000000;stroke-width:0"
               id="path5261" /><path
               inkscape:connector-curvature="0"
               d="m 233,480.41 v 0.15 0.15 l -0.01,0.15 v 0.15 l -0.01,0.15 -0.01,0.14 -0.02,0.15 -0.02,0.15 -0.02,0.14 -0.03,0.15 -0.03,0.14 -0.04,0.15 -0.04,0.14 -0.05,0.14 -0.06,0.14 -0.03,0.07 -0.03,0.07 c -0.46,0.95 -1.28,1.11 -1.69,1.11 -0.6,0 -1.33,-0.26 -1.74,-1.18 -0.32,-0.69 -0.37,-1.46 -0.37,-2.26 0,-0.74 0.04,-1.64 0.45,-2.39 0.43,-0.81 1.16,-1 1.65,-1 v 0.21 c -0.39,0 -0.98,0.25 -1.16,1.21 -0.11,0.59 -0.11,1.51 -0.11,2.09 0,0.64 0,1.29 0.08,1.83 0.19,1.18 0.94,1.27 1.19,1.27 0.33,0 0.98,-0.18 1.17,-1.16 0.1,-0.56 0.1,-1.31 0.1,-1.94 0,-0.74 0,-1.42 -0.11,-2.05 -0.15,-0.95 -0.71,-1.25 -1.16,-1.25 v 0 -0.21 c 0.53,0 1.29,0.21 1.73,1.15 0.32,0.68 0.37,1.46 0.37,2.24 z"
               style="fill:#000000;stroke-width:0"
               id="path5263" /><path
               inkscape:connector-curvature="0"
               d="m 235.3,483.17 h 0.05 0.05 l 0.05,-0.01 h 0.05 l 0.05,-0.01 0.04,-0.02 0.05,-0.01 0.04,-0.02 0.04,-0.02 0.04,-0.02 0.04,-0.02 0.04,-0.02 0.04,-0.03 0.03,-0.03 0.03,-0.03 0.04,-0.04 0.03,-0.03 0.03,-0.04 0.02,-0.04 0.03,-0.04 0.02,-0.05 0.02,-0.05 0.02,-0.05 0.02,-0.05 0.02,-0.05 0.01,-0.06 0.01,-0.05 0.01,-0.06 0.01,-0.07 0.01,-0.06 v -0.07 -0.07 c 0,-0.86 -0.5,-1.12 -0.91,-1.12 -0.28,0 -0.89,0.08 -1.19,0.49 0.33,0.01 0.41,0.25 0.41,0.39 0,0.22 -0.17,0.38 -0.39,0.38 -0.19,0 -0.39,-0.11 -0.39,-0.4 0,-0.65 0.73,-1.08 1.58,-1.08 0.97,0 1.64,0.65 1.64,1.34 0,0.55 -0.45,1.09 -1.22,1.25 0.74,0.26 1,0.78 1,1.21 0,0.55 -0.63,0.96 -1.41,0.96 -0.78,0 -1.37,-0.38 -1.37,-0.93 0,-0.24 0.15,-0.37 0.36,-0.37 0.22,0 0.36,0.16 0.36,0.35 0,0.2 -0.14,0.35 -0.36,0.36 0.25,0.31 0.73,0.39 0.99,0.39 0.31,0 0.75,-0.16 0.75,-0.76 0,-0.29 -0.09,-0.61 -0.28,-0.83 -0.23,-0.26 -0.42,-0.28 -0.77,-0.3 -0.18,-0.01 -0.19,-0.01 -0.23,-0.02 -0.01,0 -0.07,-0.01 -0.07,-0.09 0,-0.1 0.07,-0.1 0.19,-0.1 z"
               style="fill:#000000;stroke-width:0"
               id="path5265" /></g>          <path
             inkscape:connector-curvature="0"
             d="M 100,80 V -30"
             style="fill:none;stroke:#b2b2b2;stroke-width:0.40000001;stroke-linecap:round;stroke-linejoin:round;stroke-dasharray:none"
             inkscape:label="none"
             id="path5269" />
          <path
             inkscape:connector-curvature="0"
             d="m 100,-1.25 v 2.5"
             style="fill:none;stroke:#4c4c4c;stroke-width:0.5714286;stroke-linecap:round;stroke-linejoin:round;stroke-dasharray:none"
             inkscape:label="none"
             id="path5287" />
          <g
             style="font-style:normal;font-variant:normal;font-weight:normal;font-stretch:normal;letter-spacing:normal;word-spacing:normal;text-anchor:start;fill:none;fill-opacity:1;fill-rule:evenodd;stroke:#000000;stroke-linecap:butt;stroke-linejoin:miter;stroke-miterlimit:10.43299961;stroke-dasharray:none;stroke-dashoffset:0;stroke-opacity:1"
             id="g5295"
             xml:space="preserve"
             stroke-miterlimit="10.433"
             font-style="normal"
             font-variant="normal"
             font-weight="normal"
             font-stretch="normal"
             font-size-adjust="none"
             letter-spacing="normal"
             word-spacing="normal"
             ns0:text=" $10^{4}$"
             ns0:preamble="/home/newtonis/.config/inkscape/extensions/textextLib/basicLatexPackages.tex"
             transform="matrix(0.591716,0,0,-0.591716,-41.539946,289.80179)"><path
               inkscape:connector-curvature="0"
               d="m 226.36,483.59 v 0.01 0.01 0.02 0.01 0 0.01 0.01 0.01 0.01 0.01 0.01 0.01 0 0.01 0.01 0 0.01 0.01 0.01 l -0.01,0.01 v 0.01 0.01 l -0.01,0.01 v 0 0.01 l -0.01,0.01 h -0.01 v 0.01 h -0.01 l -0.01,0.01 h -0.01 v 0 h -0.01 v 0 h -0.01 v 0 l -0.01,0.01 h -0.01 v 0 h -0.01 -0.01 v 0 h -0.01 -0.01 -0.01 -0.01 -0.01 -0.01 -0.01 -0.01 -0.01 -0.01 c -0.61,-0.64 -1.49,-0.64 -1.81,-0.64 v -0.3 c 0.2,0 0.79,0 1.31,0.26 v -5.15 c 0,-0.36 -0.03,-0.48 -0.93,-0.48 h -0.32 v -0.31 c 0.35,0.04 1.22,0.04 1.61,0.04 0.4,0 1.27,0 1.62,-0.04 v 0.31 h -0.32 c -0.9,0 -0.93,0.11 -0.93,0.48 z"
               style="fill:#000000;stroke-width:0"
               id="path5289" /><path
               inkscape:connector-curvature="0"
               d="m 233,480.41 v 0.15 0.15 l -0.01,0.15 v 0.15 l -0.01,0.15 -0.01,0.14 -0.02,0.15 -0.02,0.15 -0.02,0.14 -0.03,0.15 -0.03,0.14 -0.04,0.15 -0.04,0.14 -0.05,0.14 -0.06,0.14 -0.03,0.07 -0.03,0.07 c -0.46,0.95 -1.28,1.11 -1.69,1.11 -0.6,0 -1.33,-0.26 -1.74,-1.18 -0.32,-0.69 -0.37,-1.46 -0.37,-2.26 0,-0.74 0.04,-1.64 0.45,-2.39 0.43,-0.81 1.16,-1 1.65,-1 v 0.21 c -0.39,0 -0.98,0.25 -1.16,1.21 -0.11,0.59 -0.11,1.51 -0.11,2.09 0,0.64 0,1.29 0.08,1.83 0.19,1.18 0.94,1.27 1.19,1.27 0.33,0 0.98,-0.18 1.17,-1.16 0.1,-0.56 0.1,-1.31 0.1,-1.94 0,-0.74 0,-1.42 -0.11,-2.05 -0.15,-0.95 -0.71,-1.25 -1.16,-1.25 v 0 -0.21 c 0.53,0 1.29,0.21 1.73,1.15 0.32,0.68 0.37,1.46 0.37,2.24 z"
               style="fill:#000000;stroke-width:0"
               id="path5291" /><path
               inkscape:connector-curvature="0"
               d="m 237.09,481.99 v 0.25 h -0.77 v 3.1 c 0,0.15 0,0.2 -0.16,0.2 -0.08,0 -0.11,0 -0.18,-0.1 l -2.31,-3.2 v -0.25 h 2.05 l 0.05,0.25 h -1.84 l 1.84,2.55 v -2.55 l -0.05,-0.25 v -0.57 c 0,-0.24 0,-0.32 -0.56,-0.32 h -0.19 v -0.25 c 0.35,0.01 0.79,0.03 1.05,0.03 0.26,0 0.7,-0.02 1.05,-0.03 v 0.25 h -0.19 c -0.56,0 -0.56,0.08 -0.56,0.32 v 0.57 z"
               style="fill:#000000;stroke-width:0"
               id="path5293" /></g>          <path
             inkscape:connector-curvature="0"
             d="M 125,80 V -30"
             style="fill:none;stroke:#b2b2b2;stroke-width:0.40000001;stroke-linecap:round;stroke-linejoin:round;stroke-dasharray:none"
             inkscape:label="none"
             id="path5297" />
          <path
             inkscape:connector-curvature="0"
             d="m 125,-1.25 v 2.5"
             style="fill:none;stroke:#4c4c4c;stroke-width:0.5714286;stroke-linecap:round;stroke-linejoin:round;stroke-dasharray:none"
             inkscape:label="none"
             id="path5315" />
          <g
             style="font-style:normal;font-variant:normal;font-weight:normal;font-stretch:normal;letter-spacing:normal;word-spacing:normal;text-anchor:start;fill:none;fill-opacity:1;fill-rule:evenodd;stroke:#000000;stroke-linecap:butt;stroke-linejoin:miter;stroke-miterlimit:10.43299961;stroke-dasharray:none;stroke-dashoffset:0;stroke-opacity:1"
             id="g5323"
             xml:space="preserve"
             stroke-miterlimit="10.433"
             font-style="normal"
             font-variant="normal"
             font-weight="normal"
             font-stretch="normal"
             font-size-adjust="none"
             letter-spacing="normal"
             word-spacing="normal"
             ns0:text=" $10^{5}$"
             ns0:preamble="/home/newtonis/.config/inkscape/extensions/textextLib/basicLatexPackages.tex"
             transform="matrix(0.591716,0,0,-0.591716,-16.445272,289.76037)"><path
               inkscape:connector-curvature="0"
               d="m 226.36,483.59 v 0.01 0.01 0.02 0.01 0 0.01 0.01 0.01 0.01 0.01 0.01 0.01 0 0.01 0.01 0 0.01 0.01 0.01 l -0.01,0.01 v 0.01 0.01 l -0.01,0.01 v 0 0.01 l -0.01,0.01 h -0.01 v 0.01 h -0.01 l -0.01,0.01 h -0.01 v 0 h -0.01 v 0 h -0.01 v 0 l -0.01,0.01 h -0.01 v 0 h -0.01 -0.01 v 0 h -0.01 -0.01 -0.01 -0.01 -0.01 -0.01 -0.01 -0.01 -0.01 -0.01 c -0.61,-0.64 -1.49,-0.64 -1.81,-0.64 v -0.3 c 0.2,0 0.79,0 1.31,0.26 v -5.15 c 0,-0.36 -0.03,-0.48 -0.93,-0.48 h -0.32 v -0.31 c 0.35,0.04 1.22,0.04 1.61,0.04 0.4,0 1.27,0 1.62,-0.04 v 0.31 h -0.32 c -0.9,0 -0.93,0.11 -0.93,0.48 z"
               style="fill:#000000;stroke-width:0"
               id="path5317" /><path
               inkscape:connector-curvature="0"
               d="m 233,480.41 v 0.15 0.15 l -0.01,0.15 v 0.15 l -0.01,0.15 -0.01,0.14 -0.02,0.15 -0.02,0.15 -0.02,0.14 -0.03,0.15 -0.03,0.14 -0.04,0.15 -0.04,0.14 -0.05,0.14 -0.06,0.14 -0.03,0.07 -0.03,0.07 c -0.46,0.95 -1.28,1.11 -1.69,1.11 -0.6,0 -1.33,-0.26 -1.74,-1.18 -0.32,-0.69 -0.37,-1.46 -0.37,-2.26 0,-0.74 0.04,-1.64 0.45,-2.39 0.43,-0.81 1.16,-1 1.65,-1 v 0.21 c -0.39,0 -0.98,0.25 -1.16,1.21 -0.11,0.59 -0.11,1.51 -0.11,2.09 0,0.64 0,1.29 0.08,1.83 0.19,1.18 0.94,1.27 1.19,1.27 0.33,0 0.98,-0.18 1.17,-1.16 0.1,-0.56 0.1,-1.31 0.1,-1.94 0,-0.74 0,-1.42 -0.11,-2.05 -0.15,-0.95 -0.71,-1.25 -1.16,-1.25 v 0 -0.21 c 0.53,0 1.29,0.21 1.73,1.15 0.32,0.68 0.37,1.46 0.37,2.24 z"
               style="fill:#000000;stroke-width:0"
               id="path5319" /><path
               inkscape:connector-curvature="0"
               d="m 234.48,484.73 0.03,-0.01 h 0.03 l 0.04,-0.01 0.03,-0.01 h 0.03 l 0.02,-0.01 0.03,-0.01 h 0.03 l 0.03,-0.01 h 0.02 0.03 l 0.02,-0.01 h 0.02 0.03 l 0.02,-0.01 h 0.02 0.02 0.02 0.02 0.02 l 0.01,-0.01 h 0.02 0.02 0.01 0.02 0.01 0.02 0.01 0.01 0.01 0.02 0.01 c 0.92,0 1.46,0.63 1.46,0.73 0,0.08 -0.04,0.1 -0.08,0.1 -0.01,0 -0.03,0 -0.05,-0.02 -0.17,-0.06 -0.54,-0.2 -1.06,-0.2 -0.2,0 -0.57,0.01 -1.02,0.18 -0.07,0.04 -0.09,0.04 -0.09,0.04 -0.09,0 -0.09,-0.08 -0.09,-0.19 v -2.05 c 0,-0.12 0,-0.2 0.11,-0.2 0.06,0 0.07,0.01 0.14,0.09 0.3,0.39 0.73,0.44 0.97,0.44 0.42,0 0.61,-0.33 0.64,-0.39 0.13,-0.23 0.17,-0.49 0.17,-0.89 0,-0.21 0,-0.62 -0.21,-0.93 -0.17,-0.25 -0.47,-0.42 -0.82,-0.42 -0.45,0 -0.92,0.25 -1.09,0.71 0.26,-0.02 0.4,0.16 0.4,0.34 0,0.3 -0.26,0.36 -0.36,0.36 -0.01,0 -0.34,0 -0.34,-0.38 0,-0.62 0.57,-1.25 1.41,-1.25 0.89,0 1.68,0.66 1.68,1.54 0,0.78 -0.61,1.51 -1.47,1.51 -0.31,0 -0.67,-0.08 -0.98,-0.34 z"
               style="fill:#000000;stroke-width:0"
               id="path5321" /></g>          <path
             inkscape:connector-curvature="0"
             d="M 150,80 V -30"
             style="fill:none;stroke:#b2b2b2;stroke-width:0.40000001;stroke-linecap:round;stroke-linejoin:round;stroke-dasharray:none"
             inkscape:label="none"
             id="path5325" />
          <path
             inkscape:connector-curvature="0"
             d="m 150,-1.25 v 2.5"
             style="fill:none;stroke:#4c4c4c;stroke-width:0.5714286;stroke-linecap:round;stroke-linejoin:round;stroke-dasharray:none"
             inkscape:label="none"
             id="path5327" />
          <g
             style="font-style:normal;font-variant:normal;font-weight:normal;font-stretch:normal;letter-spacing:normal;word-spacing:normal;text-anchor:start;fill:none;fill-opacity:1;fill-rule:evenodd;stroke:#000000;stroke-linecap:butt;stroke-linejoin:miter;stroke-miterlimit:10.43299961;stroke-dasharray:none;stroke-dashoffset:0;stroke-opacity:1"
             id="g5335"
             xml:space="preserve"
             stroke-miterlimit="10.433"
             font-style="normal"
             font-variant="normal"
             font-weight="normal"
             font-stretch="normal"
             font-size-adjust="none"
             letter-spacing="normal"
             word-spacing="normal"
             ns0:text=" $10^{6}$"
             ns0:preamble="/home/newtonis/.config/inkscape/extensions/textextLib/basicLatexPackages.tex"
             transform="matrix(0.591716,0,0,-0.591716,8.519225,289.76037)"><path
               inkscape:connector-curvature="0"
               d="m 226.36,483.59 v 0.01 0.01 0.02 0.01 0 0.01 0.01 0.01 0.01 0.01 0.01 0.01 0 0.01 0.01 0 0.01 0.01 0.01 l -0.01,0.01 v 0.01 0.01 l -0.01,0.01 v 0 0.01 l -0.01,0.01 h -0.01 v 0.01 h -0.01 l -0.01,0.01 h -0.01 v 0 h -0.01 v 0 h -0.01 v 0 l -0.01,0.01 h -0.01 v 0 h -0.01 -0.01 v 0 h -0.01 -0.01 -0.01 -0.01 -0.01 -0.01 -0.01 -0.01 -0.01 -0.01 c -0.61,-0.64 -1.49,-0.64 -1.81,-0.64 v -0.3 c 0.2,0 0.79,0 1.31,0.26 v -5.15 c 0,-0.36 -0.03,-0.48 -0.93,-0.48 h -0.32 v -0.31 c 0.35,0.04 1.22,0.04 1.61,0.04 0.4,0 1.27,0 1.62,-0.04 v 0.31 h -0.32 c -0.9,0 -0.93,0.11 -0.93,0.48 z"
               style="fill:#000000;stroke-width:0"
               id="path5329" /><path
               inkscape:connector-curvature="0"
               d="m 233,480.41 v 0.15 0.15 l -0.01,0.15 v 0.15 l -0.01,0.15 -0.01,0.14 -0.02,0.15 -0.02,0.15 -0.02,0.14 -0.03,0.15 -0.03,0.14 -0.04,0.15 -0.04,0.14 -0.05,0.14 -0.06,0.14 -0.03,0.07 -0.03,0.07 c -0.46,0.95 -1.28,1.11 -1.69,1.11 -0.6,0 -1.33,-0.26 -1.74,-1.18 -0.32,-0.69 -0.37,-1.46 -0.37,-2.26 0,-0.74 0.04,-1.64 0.45,-2.39 0.43,-0.81 1.16,-1 1.65,-1 v 0.21 c -0.39,0 -0.98,0.25 -1.16,1.21 -0.11,0.59 -0.11,1.51 -0.11,2.09 0,0.64 0,1.29 0.08,1.83 0.19,1.18 0.94,1.27 1.19,1.27 0.33,0 0.98,-0.18 1.17,-1.16 0.1,-0.56 0.1,-1.31 0.1,-1.94 0,-0.74 0,-1.42 -0.11,-2.05 -0.15,-0.95 -0.71,-1.25 -1.16,-1.25 v 0 -0.21 c 0.53,0 1.29,0.21 1.73,1.15 0.32,0.68 0.37,1.46 0.37,2.24 z"
               style="fill:#000000;stroke-width:0"
               id="path5331" /><path
               inkscape:connector-curvature="0"
               d="m 234.44,483.12 v 0.11 l 0.01,0.11 v 0.1 l 0.01,0.1 v 0.1 l 0.01,0.1 0.02,0.1 0.01,0.09 0.02,0.1 0.02,0.09 0.03,0.09 0.03,0.09 0.01,0.04 0.02,0.05 0.02,0.04 0.02,0.04 0.02,0.04 0.02,0.04 0.02,0.04 0.03,0.04 c 0.24,0.38 0.61,0.64 1.06,0.64 0.21,0 0.49,-0.06 0.63,-0.25 -0.17,-0.01 -0.32,-0.13 -0.32,-0.33 0,-0.17 0.12,-0.33 0.33,-0.33 0.21,0 0.33,0.14 0.33,0.34 0,0.41 -0.29,0.77 -0.98,0.77 -1.01,0 -2.04,-0.92 -2.04,-2.42 0,-1.8 0.86,-2.34 1.63,-2.34 0.85,0 1.59,0.65 1.59,1.56 0,0.88 -0.71,1.54 -1.53,1.54 l -0.03,-0.2 c 0.32,0 0.54,-0.12 0.71,-0.38 0.17,-0.27 0.18,-0.56 0.18,-0.96 0,-0.4 0,-0.69 -0.19,-0.96 -0.17,-0.24 -0.39,-0.38 -0.73,-0.38 v 0 c -0.36,0 -0.63,0.21 -0.77,0.51 -0.11,0.21 -0.17,0.56 -0.17,0.98 0,0.67 0.41,1.19 0.97,1.19 l 0.03,0.2 c -0.56,0 -0.86,-0.37 -1.02,-0.69 z"
               style="fill:#000000;stroke-width:0"
               id="path5333" /></g>          <g
             style="font-style:normal;font-variant:normal;font-weight:normal;font-stretch:normal;letter-spacing:normal;word-spacing:normal;text-anchor:start;fill:none;fill-opacity:1;fill-rule:evenodd;stroke:#000000;stroke-linecap:butt;stroke-linejoin:miter;stroke-miterlimit:10.43299961;stroke-dasharray:none;stroke-dashoffset:0;stroke-opacity:1"
             id="g5339"
             xml:space="preserve"
             stroke-miterlimit="10.433"
             font-style="normal"
             font-variant="normal"
             font-weight="normal"
             font-stretch="normal"
             font-size-adjust="none"
             letter-spacing="normal"
             word-spacing="normal"
             ns0:text=" $0$"
             ns0:preamble="/home/newtonis/.config/inkscape/extensions/textextLib/basicLatexPackages.tex"
             transform="matrix(0.591716,0,0,-0.591716,-87.423082,284.28108)"><path
               inkscape:connector-curvature="0"
               d="m 228.02,480.41 v 0.15 0.15 l -0.01,0.15 v 0.15 l -0.01,0.15 -0.02,0.14 -0.01,0.15 -0.02,0.15 -0.02,0.14 -0.03,0.15 -0.03,0.14 -0.04,0.15 -0.04,0.14 -0.05,0.14 -0.06,0.14 -0.03,0.07 -0.03,0.07 c -0.46,0.95 -1.28,1.11 -1.69,1.11 -0.6,0 -1.33,-0.26 -1.74,-1.18 -0.32,-0.69 -0.37,-1.46 -0.37,-2.26 0,-0.74 0.04,-1.64 0.45,-2.39 0.43,-0.81 1.16,-1 1.64,-1 v 0.21 c -0.38,0 -0.97,0.25 -1.15,1.21 -0.11,0.59 -0.11,1.51 -0.11,2.09 0,0.64 0,1.29 0.08,1.83 0.19,1.18 0.94,1.27 1.18,1.27 0.33,0 0.99,-0.18 1.18,-1.16 0.1,-0.56 0.1,-1.31 0.1,-1.94 0,-0.74 0,-1.42 -0.11,-2.05 -0.15,-0.95 -0.72,-1.25 -1.17,-1.25 v 0 -0.21 c 0.54,0 1.3,0.21 1.74,1.15 0.32,0.68 0.37,1.46 0.37,2.24 z"
               style="fill:#000000;stroke-width:0"
               id="path5337" /></g>          <path
             inkscape:connector-curvature="0"
             d="M 50,-10 H 150"
             style="fill:none;stroke:#b2b2b2;stroke-width:0.40000001;stroke-linecap:round;stroke-linejoin:round;stroke-dasharray:none"
             inkscape:label="none"
             id="path5341" />
          <path
             inkscape:connector-curvature="0"
             d="m 48.75,-10 h 2.5"
             style="fill:none;stroke:#4c4c4c;stroke-width:0.5714286;stroke-linecap:round;stroke-linejoin:round;stroke-dasharray:none"
             inkscape:label="none"
             id="path5343" />
          <g
             style="font-style:normal;font-variant:normal;font-weight:normal;font-stretch:normal;letter-spacing:normal;word-spacing:normal;text-anchor:start;fill:none;fill-opacity:1;fill-rule:evenodd;stroke:#000000;stroke-linecap:butt;stroke-linejoin:miter;stroke-miterlimit:10.43299961;stroke-dasharray:none;stroke-dashoffset:0;stroke-opacity:1"
             id="g5347"
             xml:space="preserve"
             stroke-miterlimit="10.433"
             font-style="normal"
             font-variant="normal"
             font-weight="normal"
             font-stretch="normal"
             font-size-adjust="none"
             letter-spacing="normal"
             word-spacing="normal"
             ns0:text=" $2$"
             ns0:preamble="/home/newtonis/.config/inkscape/extensions/textextLib/basicLatexPackages.tex"
             transform="matrix(0.591716,0,0,-0.591716,-87.357994,274.34321)"><path
               inkscape:connector-curvature="0"
               d="m 224.7,478 1.06,1.02 c 1.55,1.37 2.15,1.91 2.15,2.9 0,1.14 -0.9,1.93 -2.12,1.93 -1.12,0 -1.86,-0.91 -1.86,-1.8 0,-0.55 0.5,-0.55 0.53,-0.55 0.17,0 0.52,0.12 0.52,0.52 0,0.26 -0.18,0.52 -0.53,0.52 -0.08,0 -0.1,0 -0.13,-0.01 0.23,0.64 0.77,1.01 1.35,1.01 0.9,0 1.33,-0.8 1.33,-1.62 0,-0.79 -0.5,-1.58 -1.04,-2.19 l -1.92,-2.13 c -0.11,-0.11 -0.11,-0.13 -0.11,-0.37 h 3.7 l 0.28,1.73 h -0.25 c -0.05,-0.29 -0.12,-0.73 -0.22,-0.88 C 227.37,478 226.71,478 226.49,478 Z"
               style="fill:#000000;stroke-width:0"
               id="path5345" /></g>          <path
             inkscape:connector-curvature="0"
             d="M 50,-20 H 150"
             style="fill:none;stroke:#b2b2b2;stroke-width:0.40000001;stroke-linecap:round;stroke-linejoin:round;stroke-dasharray:none"
             inkscape:label="none"
             id="path5349" />
          <path
             inkscape:connector-curvature="0"
             d="m 48.75,-20 h 2.5"
             style="fill:none;stroke:#4c4c4c;stroke-width:0.5714286;stroke-linecap:round;stroke-linejoin:round;stroke-dasharray:none"
             inkscape:label="none"
             id="path5351" />
          <g
             style="font-style:normal;font-variant:normal;font-weight:normal;font-stretch:normal;letter-spacing:normal;word-spacing:normal;text-anchor:start;fill:none;fill-opacity:1;fill-rule:evenodd;stroke:#000000;stroke-linecap:butt;stroke-linejoin:miter;stroke-miterlimit:10.43299961;stroke-dasharray:none;stroke-dashoffset:0;stroke-opacity:1"
             id="g5355"
             xml:space="preserve"
             stroke-miterlimit="10.433"
             font-style="normal"
             font-variant="normal"
             font-weight="normal"
             font-stretch="normal"
             font-size-adjust="none"
             letter-spacing="normal"
             word-spacing="normal"
             ns0:text=" $4$"
             ns0:preamble="/home/newtonis/.config/inkscape/extensions/textextLib/basicLatexPackages.tex"
             transform="matrix(0.591716,0,0,-0.591716,-87.488171,264.37575)"><path
               inkscape:connector-curvature="0"
               d="m 226.36,478.87 v -0.86 c 0,-0.36 -0.02,-0.47 -0.75,-0.47 h -0.21 v -0.31 c 0.4,0.04 0.92,0.04 1.34,0.04 0.42,0 0.95,0 1.36,-0.04 v 0.31 h -0.21 c -0.74,0 -0.76,0.11 -0.76,0.47 v 0.86 h 1 v 0.31 h -1 v 4.52 c 0,0.2 0,0.26 -0.16,0.26 -0.09,0 -0.12,0 -0.2,-0.12 l -3.06,-4.66 h 0.28 l 2.43,3.71 v -3.71 h -2.43 -0.28 v -0.31 z"
               style="fill:#000000;stroke-width:0"
               id="path5353" /></g>          <path
             inkscape:connector-curvature="0"
             d="M 50,-30 H 150"
             style="fill:none;stroke:#b2b2b2;stroke-width:0.40000001;stroke-linecap:round;stroke-linejoin:round;stroke-dasharray:none"
             inkscape:label="none"
             id="path5357" />
          <path
             inkscape:connector-curvature="0"
             d="m 48.75,-30 h 2.5"
             style="fill:none;stroke:#4c4c4c;stroke-width:0.5714286;stroke-linecap:round;stroke-linejoin:round;stroke-dasharray:none"
             inkscape:label="none"
             id="path5359" />
          <g
             style="font-style:normal;font-variant:normal;font-weight:normal;font-stretch:normal;letter-spacing:normal;word-spacing:normal;text-anchor:start;fill:none;fill-opacity:1;fill-rule:evenodd;stroke:#000000;stroke-linecap:butt;stroke-linejoin:miter;stroke-miterlimit:10.43299961;stroke-dasharray:none;stroke-dashoffset:0;stroke-opacity:1"
             id="g5363"
             xml:space="preserve"
             stroke-miterlimit="10.433"
             font-style="normal"
             font-variant="normal"
             font-weight="normal"
             font-stretch="normal"
             font-size-adjust="none"
             letter-spacing="normal"
             word-spacing="normal"
             ns0:text=" $6$"
             ns0:preamble="/home/newtonis/.config/inkscape/extensions/textextLib/basicLatexPackages.tex"
             transform="matrix(0.591716,0,0,-0.591716,-87.405331,254.28108)"><path
               inkscape:connector-curvature="0"
               d="m 224.75,480.49 v 0.24 c 0,2.51 1.24,2.87 1.74,2.87 0.24,0 0.66,-0.06 0.88,-0.4 -0.15,0 -0.55,0 -0.55,-0.44 0,-0.31 0.24,-0.46 0.46,-0.46 0.16,0 0.46,0.09 0.46,0.48 0,0.59 -0.44,1.07 -1.27,1.07 -1.27,0 -2.62,-1.28 -2.62,-3.48 0,-2.65 1.16,-3.35 2.08,-3.35 1.11,0 2.06,0.93 2.06,2.24 0,1.26 -0.89,2.22 -2,2.22 v -0.23 c 0.15,0 0.61,0 0.92,-0.62 0.18,-0.36 0.18,-0.87 0.18,-1.36 0,-0.47 0,-0.97 -0.17,-1.33 -0.3,-0.6 -0.76,-0.64 -0.99,-0.64 v 0 c -0.62,0 -0.92,0.59 -0.98,0.74 -0.18,0.47 -0.18,1.26 -0.18,1.44 0,0.78 0.32,1.77 1.22,1.77 v 0.23 c -0.67,0 -1.04,-0.51 -1.24,-0.99 z"
               style="fill:#000000;stroke-width:0"
               id="path5361" /></g>          <path
             inkscape:connector-curvature="0"
             d="M 50,10 H 150"
             style="fill:none;stroke:#b2b2b2;stroke-width:0.40000001;stroke-linecap:round;stroke-linejoin:round;stroke-dasharray:none"
             inkscape:label="none"
             id="path5365" />
          <path
             inkscape:connector-curvature="0"
             d="m 48.75,10 h 2.5"
             style="fill:none;stroke:#4c4c4c;stroke-width:0.5714286;stroke-linecap:round;stroke-linejoin:round;stroke-dasharray:none"
             inkscape:label="none"
             id="path5367" />
          <g
             style="font-style:normal;font-variant:normal;font-weight:normal;font-stretch:normal;letter-spacing:normal;word-spacing:normal;text-anchor:start;fill:none;fill-opacity:1;fill-rule:evenodd;stroke:#000000;stroke-linecap:butt;stroke-linejoin:miter;stroke-miterlimit:10.43299961;stroke-dasharray:none;stroke-dashoffset:0;stroke-opacity:1"
             id="g5373"
             xml:space="preserve"
             stroke-miterlimit="10.433"
             font-style="normal"
             font-variant="normal"
             font-weight="normal"
             font-stretch="normal"
             font-size-adjust="none"
             letter-spacing="normal"
             word-spacing="normal"
             ns0:text=" $-2$"
             ns0:preamble="/home/newtonis/.config/inkscape/extensions/textextLib/basicLatexPackages.tex"
             transform="matrix(0.591716,0,0,-0.591716,-91.943793,294.34321)"><path
               inkscape:connector-curvature="0"
               d="m 230,479.52 h 0.04 0.03 0.03 0.01 0.02 0.01 l 0.02,0.01 h 0.01 0.02 0.01 l 0.02,0.01 h 0.01 0.01 l 0.01,0.01 0.02,0.01 h 0.01 l 0.01,0.01 0.01,0.01 h 0.01 v 0.01 l 0.01,0.01 0.01,0.01 v 0 0.01 l 0.01,0.01 v 0 0.01 0.01 0 l 0.01,0.01 v 0.01 0.01 0 0.01 0.01 0.01 0.01 c 0,0.2 -0.18,0.2 -0.35,0.2 h -5.39 c -0.17,0 -0.35,0 -0.35,-0.2 0,-0.2 0.18,-0.2 0.35,-0.2 z"
               style="fill:#000000;stroke-width:0"
               id="path5369" /><path
               inkscape:connector-curvature="0"
               d="m 232.45,478 1.05,1.02 c 1.56,1.37 2.16,1.91 2.16,2.9 0,1.14 -0.9,1.93 -2.12,1.93 -1.12,0 -1.86,-0.91 -1.86,-1.8 0,-0.55 0.5,-0.55 0.53,-0.55 0.17,0 0.52,0.12 0.52,0.52 0,0.26 -0.18,0.52 -0.53,0.52 -0.08,0 -0.1,0 -0.13,-0.01 0.23,0.64 0.77,1.01 1.34,1.01 0.91,0 1.34,-0.8 1.34,-1.62 0,-0.79 -0.5,-1.58 -1.05,-2.19 l -1.91,-2.13 c -0.11,-0.11 -0.11,-0.13 -0.11,-0.37 h 3.7 l 0.28,1.73 h -0.25 c -0.05,-0.29 -0.12,-0.73 -0.22,-0.88 C 235.12,478 234.46,478 234.24,478 Z"
               style="fill:#000000;stroke-width:0"
               id="path5371" /></g>          <path
             inkscape:connector-curvature="0"
             d="M 50,20 H 150"
             style="fill:none;stroke:#b2b2b2;stroke-width:0.40000001;stroke-linecap:round;stroke-linejoin:round;stroke-dasharray:none"
             inkscape:label="none"
             id="path5375" />
          <path
             inkscape:connector-curvature="0"
             d="m 48.75,20 h 2.5"
             style="fill:none;stroke:#4c4c4c;stroke-width:0.5714286;stroke-linecap:round;stroke-linejoin:round;stroke-dasharray:none"
             inkscape:label="none"
             id="path5377" />
          <g
             style="font-style:normal;font-variant:normal;font-weight:normal;font-stretch:normal;letter-spacing:normal;word-spacing:normal;text-anchor:start;fill:none;fill-opacity:1;fill-rule:evenodd;stroke:#000000;stroke-linecap:butt;stroke-linejoin:miter;stroke-miterlimit:10.43299961;stroke-dasharray:none;stroke-dashoffset:0;stroke-opacity:1"
             id="g5383"
             xml:space="preserve"
             stroke-miterlimit="10.433"
             font-style="normal"
             font-variant="normal"
             font-weight="normal"
             font-stretch="normal"
             font-size-adjust="none"
             letter-spacing="normal"
             word-spacing="normal"
             ns0:text=" $-4$"
             ns0:preamble="/home/newtonis/.config/inkscape/extensions/textextLib/basicLatexPackages.tex"
             transform="matrix(0.591716,0,0,-0.591716,-92.07397,304.37575)"><path
               inkscape:connector-curvature="0"
               d="m 230,479.52 h 0.04 0.03 0.03 0.01 0.02 0.01 l 0.02,0.01 h 0.01 0.02 0.01 l 0.02,0.01 h 0.01 0.01 l 0.01,0.01 0.02,0.01 h 0.01 l 0.01,0.01 0.01,0.01 h 0.01 v 0.01 l 0.01,0.01 0.01,0.01 v 0 0.01 l 0.01,0.01 v 0 0.01 0.01 0 l 0.01,0.01 v 0.01 0.01 0 0.01 0.01 0.01 0.01 c 0,0.2 -0.18,0.2 -0.35,0.2 h -5.39 c -0.17,0 -0.35,0 -0.35,-0.2 0,-0.2 0.18,-0.2 0.35,-0.2 z"
               style="fill:#000000;stroke-width:0"
               id="path5379" /><path
               inkscape:connector-curvature="0"
               d="m 234.11,478.87 v -0.86 c 0,-0.36 -0.02,-0.47 -0.76,-0.47 h -0.2 v -0.31 c 0.4,0.04 0.92,0.04 1.34,0.04 0.42,0 0.95,0 1.36,-0.04 v 0.31 h -0.21 c -0.74,0 -0.76,0.11 -0.76,0.47 v 0.86 h 1 v 0.31 h -1 v 4.52 c 0,0.2 0,0.26 -0.16,0.26 -0.09,0 -0.12,0 -0.2,-0.12 l -3.06,-4.66 h 0.28 l 2.43,3.71 v -3.71 h -2.43 -0.28 v -0.31 z"
               style="fill:#000000;stroke-width:0"
               id="path5381" /></g>          <path
             inkscape:connector-curvature="0"
             d="M 50,30 H 150"
             style="fill:none;stroke:#b2b2b2;stroke-width:0.40000001;stroke-linecap:round;stroke-linejoin:round;stroke-dasharray:none"
             inkscape:label="none"
             id="path5385" />
          <path
             inkscape:connector-curvature="0"
             d="m 48.75,30 h 2.5"
             style="fill:none;stroke:#4c4c4c;stroke-width:0.5714286;stroke-linecap:round;stroke-linejoin:round;stroke-dasharray:none"
             inkscape:label="none"
             id="path5387" />
          <g
             style="font-style:normal;font-variant:normal;font-weight:normal;font-stretch:normal;letter-spacing:normal;word-spacing:normal;text-anchor:start;fill:none;fill-opacity:1;fill-rule:evenodd;stroke:#000000;stroke-linecap:butt;stroke-linejoin:miter;stroke-miterlimit:10.43299961;stroke-dasharray:none;stroke-dashoffset:0;stroke-opacity:1"
             id="g5393"
             xml:space="preserve"
             stroke-miterlimit="10.433"
             font-style="normal"
             font-variant="normal"
             font-weight="normal"
             font-stretch="normal"
             font-size-adjust="none"
             letter-spacing="normal"
             word-spacing="normal"
             ns0:text=" $-6$"
             ns0:preamble="/home/newtonis/.config/inkscape/extensions/textextLib/basicLatexPackages.tex"
             transform="matrix(0.591716,0,0,-0.591716,-91.99113,314.28108)"><path
               inkscape:connector-curvature="0"
               d="m 230,479.52 h 0.04 0.03 0.03 0.01 0.02 0.01 l 0.02,0.01 h 0.01 0.02 0.01 l 0.02,0.01 h 0.01 0.01 l 0.01,0.01 0.02,0.01 h 0.01 l 0.01,0.01 0.01,0.01 h 0.01 v 0.01 l 0.01,0.01 0.01,0.01 v 0 0.01 l 0.01,0.01 v 0 0.01 0.01 0 l 0.01,0.01 v 0.01 0.01 0 0.01 0.01 0.01 0.01 c 0,0.2 -0.18,0.2 -0.35,0.2 h -5.39 c -0.17,0 -0.35,0 -0.35,-0.2 0,-0.2 0.18,-0.2 0.35,-0.2 z"
               style="fill:#000000;stroke-width:0"
               id="path5389" /><path
               inkscape:connector-curvature="0"
               d="m 232.5,480.49 v 0.24 c 0,2.51 1.23,2.87 1.74,2.87 0.24,0 0.66,-0.06 0.88,-0.4 -0.15,0 -0.55,0 -0.55,-0.44 0,-0.31 0.24,-0.46 0.46,-0.46 0.16,0 0.46,0.09 0.46,0.48 0,0.59 -0.44,1.07 -1.27,1.07 -1.27,0 -2.62,-1.28 -2.62,-3.48 0,-2.65 1.16,-3.35 2.08,-3.35 1.11,0 2.06,0.93 2.06,2.24 0,1.26 -0.89,2.22 -2,2.22 l -0.01,-0.23 c 0.16,0 0.62,0 0.93,-0.62 0.18,-0.36 0.18,-0.87 0.18,-1.36 0,-0.47 0,-0.97 -0.17,-1.33 -0.3,-0.6 -0.76,-0.64 -0.99,-0.64 v 0 c -0.62,0 -0.92,0.59 -0.98,0.74 -0.18,0.47 -0.18,1.26 -0.18,1.44 0,0.78 0.32,1.77 1.21,1.77 l 0.01,0.23 c -0.67,0 -1.04,-0.51 -1.24,-0.99 z"
               style="fill:#000000;stroke-width:0"
               id="path5391" /></g>          <path
             inkscape:connector-curvature="0"
             d="M 50,40 H 150"
             style="fill:none;stroke:#b2b2b2;stroke-width:0.40000001;stroke-linecap:round;stroke-linejoin:round;stroke-dasharray:none"
             inkscape:label="none"
             id="path5395" />
          <path
             inkscape:connector-curvature="0"
             d="m 48.75,40 h 2.5"
             style="fill:none;stroke:#4c4c4c;stroke-width:0.5714286;stroke-linecap:round;stroke-linejoin:round;stroke-dasharray:none"
             inkscape:label="none"
             id="path5397" />
          <g
             style="font-style:normal;font-variant:normal;font-weight:normal;font-stretch:normal;letter-spacing:normal;word-spacing:normal;text-anchor:start;fill:none;fill-opacity:1;fill-rule:evenodd;stroke:#000000;stroke-linecap:butt;stroke-linejoin:miter;stroke-miterlimit:10.43299961;stroke-dasharray:none;stroke-dashoffset:0;stroke-opacity:1"
             id="g5403"
             xml:space="preserve"
             stroke-miterlimit="10.433"
             font-style="normal"
             font-variant="normal"
             font-weight="normal"
             font-stretch="normal"
             font-size-adjust="none"
             letter-spacing="normal"
             word-spacing="normal"
             ns0:text=" $-8$"
             ns0:preamble="/home/newtonis/.config/inkscape/extensions/textextLib/basicLatexPackages.tex"
             transform="matrix(0.591716,0,0,-0.591716,-91.99113,324.28108)"><path
               inkscape:connector-curvature="0"
               d="m 230,479.52 h 0.04 0.03 0.03 0.01 0.02 0.01 l 0.02,0.01 h 0.01 0.02 0.01 l 0.02,0.01 h 0.01 0.01 l 0.01,0.01 0.02,0.01 h 0.01 l 0.01,0.01 0.01,0.01 h 0.01 v 0.01 l 0.01,0.01 0.01,0.01 v 0 0.01 l 0.01,0.01 v 0 0.01 0.01 0 l 0.01,0.01 v 0.01 0.01 0 0.01 0.01 0.01 0.01 c 0,0.2 -0.18,0.2 -0.35,0.2 h -5.39 c -0.17,0 -0.35,0 -0.35,-0.2 0,-0.2 0.18,-0.2 0.35,-0.2 z"
               style="fill:#000000;stroke-width:0"
               id="path5399" /><path
               inkscape:connector-curvature="0"
               d="m 234.26,480.83 0.07,0.04 0.06,0.03 0.07,0.04 0.06,0.04 0.06,0.03 0.06,0.04 0.06,0.04 0.05,0.04 0.06,0.05 0.05,0.04 0.05,0.04 0.05,0.05 0.05,0.04 0.04,0.05 0.04,0.05 0.04,0.04 0.04,0.05 0.04,0.05 0.03,0.05 0.04,0.05 0.03,0.05 0.02,0.06 0.03,0.05 0.02,0.06 0.02,0.05 0.02,0.06 0.01,0.05 0.02,0.06 0.01,0.06 v 0.06 l 0.01,0.06 v 0.06 c 0,0.92 -0.89,1.48 -1.8,1.48 l -0.01,-0.25 c 0.73,0 1.37,-0.51 1.37,-1.23 0,-0.57 -0.39,-1.04 -0.99,-1.39 l -1.23,0.79 c -0.46,0.3 -0.5,0.64 -0.5,0.81 0,0.6 0.65,1.02 1.35,1.02 l 0.01,0.25 c -0.99,0 -1.8,-0.73 -1.8,-1.66 0,-0.18 0.02,-0.62 0.44,-1.09 0.11,-0.12 0.48,-0.37 0.73,-0.54 l 0.22,-0.15 1.23,-0.77 c 0.28,-0.19 0.75,-0.49 0.75,-1.09 0,-0.74 -0.75,-1.25 -1.57,-1.25 -0.85,0 -1.57,0.61 -1.57,1.43 0,0.58 0.32,1.22 1.16,1.68 v 0 l -0.22,0.15 c -0.58,-0.29 -1.44,-0.84 -1.44,-1.83 0,-1.05 1.02,-1.71 2.06,-1.71 1.13,0 2.08,0.82 2.08,1.88 0,0.36 -0.11,0.81 -0.49,1.23 -0.19,0.2 -0.35,0.3 -0.99,0.7 z"
               style="fill:#000000;stroke-width:0"
               id="path5401" /></g>          <path
             inkscape:connector-curvature="0"
             d="M 50,50 H 150"
             style="fill:none;stroke:#b2b2b2;stroke-width:0.40000001;stroke-linecap:round;stroke-linejoin:round;stroke-dasharray:none"
             inkscape:label="none"
             id="path5405" />
          <path
             inkscape:connector-curvature="0"
             d="m 48.75,50 h 2.5"
             style="fill:none;stroke:#4c4c4c;stroke-width:0.5714286;stroke-linecap:round;stroke-linejoin:round;stroke-dasharray:none"
             inkscape:label="none"
             id="path5407" />
          <g
             style="font-style:normal;font-variant:normal;font-weight:normal;font-stretch:normal;letter-spacing:normal;word-spacing:normal;text-anchor:start;fill:none;fill-opacity:1;fill-rule:evenodd;stroke:#000000;stroke-linecap:butt;stroke-linejoin:miter;stroke-miterlimit:10.43299961;stroke-dasharray:none;stroke-dashoffset:0;stroke-opacity:1"
             id="g5415"
             xml:space="preserve"
             stroke-miterlimit="10.433"
             font-style="normal"
             font-variant="normal"
             font-weight="normal"
             font-stretch="normal"
             font-size-adjust="none"
             letter-spacing="normal"
             word-spacing="normal"
             ns0:text=" $-10$"
             ns0:preamble="/home/newtonis/.config/inkscape/extensions/textextLib/basicLatexPackages.tex"
             transform="matrix(0.591716,0,0,-0.591716,-94.955627,334.28108)"><path
               inkscape:connector-curvature="0"
               d="m 230,479.52 h 0.04 0.03 0.03 0.01 0.02 0.01 l 0.02,0.01 h 0.01 0.02 0.01 l 0.02,0.01 h 0.01 0.01 l 0.01,0.01 0.02,0.01 h 0.01 l 0.01,0.01 0.01,0.01 h 0.01 v 0.01 l 0.01,0.01 0.01,0.01 v 0 0.01 l 0.01,0.01 v 0 0.01 0.01 0 l 0.01,0.01 v 0.01 0.01 0 0.01 0.01 0.01 0.01 c 0,0.2 -0.18,0.2 -0.35,0.2 h -5.39 c -0.17,0 -0.35,0 -0.35,-0.2 0,-0.2 0.18,-0.2 0.35,-0.2 z"
               style="fill:#000000;stroke-width:0"
               id="path5409" /><path
               inkscape:connector-curvature="0"
               d="m 234.11,483.59 v 0.01 0.01 0.02 0.01 0 0.01 0.01 0.01 0.01 0.01 0.01 0.01 0 0.01 0.01 0 0.01 0.01 0.01 l -0.01,0.01 v 0.01 0.01 l -0.01,0.01 v 0 l -0.01,0.01 v 0.01 h -0.01 l -0.01,0.01 v 0 l -0.01,0.01 h -0.01 v 0 h -0.01 v 0 h -0.01 v 0 l -0.01,0.01 H 234 v 0 h -0.01 -0.01 -0.01 v 0 h -0.01 -0.01 -0.01 -0.01 -0.01 -0.01 -0.01 -0.01 -0.01 c -0.62,-0.64 -1.49,-0.64 -1.81,-0.64 v -0.3 c 0.2,0 0.79,0 1.31,0.26 v -5.15 c 0,-0.36 -0.03,-0.48 -0.93,-0.48 h -0.32 v -0.31 c 0.35,0.04 1.22,0.04 1.61,0.04 0.4,0 1.27,0 1.62,-0.04 v 0.31 h -0.32 c -0.9,0 -0.93,0.11 -0.93,0.48 z"
               style="fill:#000000;stroke-width:0"
               id="path5411" /><path
               inkscape:connector-curvature="0"
               d="m 240.75,480.41 v 0.15 0.15 l -0.01,0.15 v 0.15 l -0.01,0.15 -0.01,0.14 -0.02,0.15 -0.02,0.15 -0.02,0.14 -0.03,0.15 -0.03,0.14 -0.04,0.15 -0.04,0.14 -0.05,0.14 -0.06,0.14 -0.03,0.07 -0.03,0.07 c -0.46,0.95 -1.28,1.11 -1.7,1.11 -0.59,0 -1.32,-0.26 -1.73,-1.18 -0.32,-0.69 -0.37,-1.46 -0.37,-2.26 0,-0.74 0.04,-1.64 0.45,-2.39 0.43,-0.81 1.16,-1 1.65,-1 v 0.21 c -0.39,0 -0.98,0.25 -1.16,1.21 -0.11,0.59 -0.11,1.51 -0.11,2.09 0,0.64 0,1.29 0.08,1.83 0.19,1.18 0.94,1.27 1.19,1.27 0.32,0 0.98,-0.18 1.17,-1.16 0.1,-0.56 0.1,-1.31 0.1,-1.94 0,-0.74 0,-1.42 -0.11,-2.05 -0.15,-0.95 -0.72,-1.25 -1.16,-1.25 v 0 -0.21 c 0.53,0 1.29,0.21 1.73,1.15 0.32,0.68 0.37,1.46 0.37,2.24 z"
               style="fill:#000000;stroke-width:0"
               id="path5413" /></g>          <path
             inkscape:connector-curvature="0"
             d="M 50,60 H 150"
             style="fill:none;stroke:#b2b2b2;stroke-width:0.40000001;stroke-linecap:round;stroke-linejoin:round;stroke-dasharray:none"
             inkscape:label="none"
             id="path5417" />
          <path
             inkscape:connector-curvature="0"
             d="m 48.75,60 h 2.5"
             style="fill:none;stroke:#4c4c4c;stroke-width:0.5714286;stroke-linecap:round;stroke-linejoin:round;stroke-dasharray:none"
             inkscape:label="none"
             id="path5419" />
          <g
             style="font-style:normal;font-variant:normal;font-weight:normal;font-stretch:normal;letter-spacing:normal;word-spacing:normal;text-anchor:start;fill:none;fill-opacity:1;fill-rule:evenodd;stroke:#000000;stroke-linecap:butt;stroke-linejoin:miter;stroke-miterlimit:10.43299961;stroke-dasharray:none;stroke-dashoffset:0;stroke-opacity:1"
             id="g5427"
             xml:space="preserve"
             stroke-miterlimit="10.433"
             font-style="normal"
             font-variant="normal"
             font-weight="normal"
             font-stretch="normal"
             font-size-adjust="none"
             letter-spacing="normal"
             word-spacing="normal"
             ns0:text=" $-12$"
             ns0:preamble="/home/newtonis/.config/inkscape/extensions/textextLib/basicLatexPackages.tex"
             transform="matrix(0.591716,0,0,-0.591716,-94.890538,344.34321)"><path
               inkscape:connector-curvature="0"
               d="m 230,479.52 h 0.04 0.03 0.03 0.01 0.02 0.01 l 0.02,0.01 h 0.01 0.02 0.01 l 0.02,0.01 h 0.01 0.01 l 0.01,0.01 0.02,0.01 h 0.01 l 0.01,0.01 0.01,0.01 h 0.01 v 0.01 l 0.01,0.01 0.01,0.01 v 0 0.01 l 0.01,0.01 v 0 0.01 0.01 0 l 0.01,0.01 v 0.01 0.01 0 0.01 0.01 0.01 0.01 c 0,0.2 -0.18,0.2 -0.35,0.2 h -5.39 c -0.17,0 -0.35,0 -0.35,-0.2 0,-0.2 0.18,-0.2 0.35,-0.2 z"
               style="fill:#000000;stroke-width:0"
               id="path5421" /><path
               inkscape:connector-curvature="0"
               d="m 234.11,483.59 v 0.01 0.01 0.02 0.01 0 0.01 0.01 0.01 0.01 0.01 0.01 0.01 0 0.01 0.01 0 0.01 0.01 0.01 l -0.01,0.01 v 0.01 0.01 l -0.01,0.01 v 0 l -0.01,0.01 v 0.01 h -0.01 l -0.01,0.01 v 0 l -0.01,0.01 h -0.01 v 0 h -0.01 v 0 h -0.01 v 0 l -0.01,0.01 H 234 v 0 h -0.01 -0.01 -0.01 v 0 h -0.01 -0.01 -0.01 -0.01 -0.01 -0.01 -0.01 -0.01 -0.01 c -0.62,-0.64 -1.49,-0.64 -1.81,-0.64 v -0.3 c 0.2,0 0.79,0 1.31,0.26 v -5.15 c 0,-0.36 -0.03,-0.48 -0.93,-0.48 h -0.32 v -0.31 c 0.35,0.04 1.22,0.04 1.61,0.04 0.4,0 1.27,0 1.62,-0.04 v 0.31 h -0.32 c -0.9,0 -0.93,0.11 -0.93,0.48 z"
               style="fill:#000000;stroke-width:0"
               id="path5423" /><path
               inkscape:connector-curvature="0"
               d="m 237.43,478 1.06,1.02 c 1.55,1.37 2.15,1.91 2.15,2.9 0,1.14 -0.9,1.93 -2.11,1.93 -1.13,0 -1.87,-0.91 -1.87,-1.8 0,-0.55 0.5,-0.55 0.53,-0.55 0.17,0 0.52,0.12 0.52,0.52 0,0.26 -0.18,0.52 -0.53,0.52 -0.08,0 -0.1,0 -0.13,-0.01 0.23,0.64 0.77,1.01 1.35,1.01 0.9,0 1.33,-0.8 1.33,-1.62 0,-0.79 -0.5,-1.58 -1.05,-2.19 l -1.91,-2.13 c -0.11,-0.11 -0.11,-0.13 -0.11,-0.37 h 3.7 l 0.28,1.73 h -0.25 c -0.05,-0.29 -0.12,-0.73 -0.22,-0.88 C 240.1,478 239.44,478 239.22,478 Z"
               style="fill:#000000;stroke-width:0"
               id="path5425" /></g>          <path
             inkscape:connector-curvature="0"
             d="M 50,70 H 150"
             style="fill:none;stroke:#b2b2b2;stroke-width:0.40000001;stroke-linecap:round;stroke-linejoin:round;stroke-dasharray:none"
             inkscape:label="none"
             id="path5429" />
          <path
             inkscape:connector-curvature="0"
             d="m 48.75,70 h 2.5"
             style="fill:none;stroke:#4c4c4c;stroke-width:0.5714286;stroke-linecap:round;stroke-linejoin:round;stroke-dasharray:none"
             inkscape:label="none"
             id="path5431" />
          <g
             style="font-style:normal;font-variant:normal;font-weight:normal;font-stretch:normal;letter-spacing:normal;word-spacing:normal;text-anchor:start;fill:none;fill-opacity:1;fill-rule:evenodd;stroke:#000000;stroke-linecap:butt;stroke-linejoin:miter;stroke-miterlimit:10.43299961;stroke-dasharray:none;stroke-dashoffset:0;stroke-opacity:1"
             id="g5439"
             xml:space="preserve"
             stroke-miterlimit="10.433"
             font-style="normal"
             font-variant="normal"
             font-weight="normal"
             font-stretch="normal"
             font-size-adjust="none"
             letter-spacing="normal"
             word-spacing="normal"
             ns0:text=" $-14$"
             ns0:preamble="/home/newtonis/.config/inkscape/extensions/textextLib/basicLatexPackages.tex"
             transform="matrix(0.591716,0,0,-0.591716,-95.020716,354.37575)"><path
               inkscape:connector-curvature="0"
               d="m 230,479.52 h 0.04 0.03 0.03 0.01 0.02 0.01 l 0.02,0.01 h 0.01 0.02 0.01 l 0.02,0.01 h 0.01 0.01 l 0.01,0.01 0.02,0.01 h 0.01 l 0.01,0.01 0.01,0.01 h 0.01 v 0.01 l 0.01,0.01 0.01,0.01 v 0 0.01 l 0.01,0.01 v 0 0.01 0.01 0 l 0.01,0.01 v 0.01 0.01 0 0.01 0.01 0.01 0.01 c 0,0.2 -0.18,0.2 -0.35,0.2 h -5.39 c -0.17,0 -0.35,0 -0.35,-0.2 0,-0.2 0.18,-0.2 0.35,-0.2 z"
               style="fill:#000000;stroke-width:0"
               id="path5433" /><path
               inkscape:connector-curvature="0"
               d="m 234.11,483.59 v 0.01 0.01 0.02 0.01 0 0.01 0.01 0.01 0.01 0.01 0.01 0.01 0 0.01 0.01 0 0.01 0.01 0.01 l -0.01,0.01 v 0.01 0.01 l -0.01,0.01 v 0 l -0.01,0.01 v 0.01 h -0.01 l -0.01,0.01 v 0 l -0.01,0.01 h -0.01 v 0 h -0.01 v 0 h -0.01 v 0 l -0.01,0.01 H 234 v 0 h -0.01 -0.01 -0.01 v 0 h -0.01 -0.01 -0.01 -0.01 -0.01 -0.01 -0.01 -0.01 -0.01 c -0.62,-0.64 -1.49,-0.64 -1.81,-0.64 v -0.3 c 0.2,0 0.79,0 1.31,0.26 v -5.15 c 0,-0.36 -0.03,-0.48 -0.93,-0.48 h -0.32 v -0.31 c 0.35,0.04 1.22,0.04 1.61,0.04 0.4,0 1.27,0 1.62,-0.04 v 0.31 h -0.32 c -0.9,0 -0.93,0.11 -0.93,0.48 z"
               style="fill:#000000;stroke-width:0"
               id="path5435" /><path
               inkscape:connector-curvature="0"
               d="m 239.09,478.87 v -0.86 c 0,-0.36 -0.02,-0.47 -0.75,-0.47 h -0.21 v -0.31 c 0.41,0.04 0.92,0.04 1.34,0.04 0.42,0 0.95,0 1.36,-0.04 v 0.31 h -0.21 c -0.74,0 -0.76,0.11 -0.76,0.47 v 0.86 h 1 v 0.31 h -1 v 4.52 c 0,0.2 0,0.26 -0.16,0.26 -0.09,0 -0.12,0 -0.2,-0.12 l -3.06,-4.66 h 0.28 l 2.43,3.71 v -3.71 h -2.43 -0.28 v -0.31 z"
               style="fill:#000000;stroke-width:0"
               id="path5437" /></g>          <path
             inkscape:connector-curvature="0"
             d="M 50,80 H 150"
             style="fill:none;stroke:#b2b2b2;stroke-width:0.40000001;stroke-linecap:round;stroke-linejoin:round;stroke-dasharray:none"
             inkscape:label="none"
             id="path5441" />
          <path
             inkscape:connector-curvature="0"
             d="m 48.75,80 h 2.5"
             style="fill:none;stroke:#4c4c4c;stroke-width:0.5714286;stroke-linecap:round;stroke-linejoin:round;stroke-dasharray:none"
             inkscape:label="none"
             id="path5443" />
          <g
             style="font-style:normal;font-variant:normal;font-weight:normal;font-stretch:normal;letter-spacing:normal;word-spacing:normal;text-anchor:start;fill:none;fill-opacity:1;fill-rule:evenodd;stroke:#000000;stroke-linecap:butt;stroke-linejoin:miter;stroke-miterlimit:10.43299961;stroke-dasharray:none;stroke-dashoffset:0;stroke-opacity:1"
             id="g5451"
             xml:space="preserve"
             stroke-miterlimit="10.433"
             font-style="normal"
             font-variant="normal"
             font-weight="normal"
             font-stretch="normal"
             font-size-adjust="none"
             letter-spacing="normal"
             word-spacing="normal"
             ns0:text=" $-16$"
             ns0:preamble="/home/newtonis/.config/inkscape/extensions/textextLib/basicLatexPackages.tex"
             transform="matrix(0.591716,0,0,-0.591716,-94.937876,364.28108)"><path
               inkscape:connector-curvature="0"
               d="m 230,479.52 h 0.04 0.03 0.03 0.01 0.02 0.01 l 0.02,0.01 h 0.01 0.02 0.01 l 0.02,0.01 h 0.01 0.01 l 0.01,0.01 0.02,0.01 h 0.01 l 0.01,0.01 0.01,0.01 h 0.01 v 0.01 l 0.01,0.01 0.01,0.01 v 0 0.01 l 0.01,0.01 v 0 0.01 0.01 0 l 0.01,0.01 v 0.01 0.01 0 0.01 0.01 0.01 0.01 c 0,0.2 -0.18,0.2 -0.35,0.2 h -5.39 c -0.17,0 -0.35,0 -0.35,-0.2 0,-0.2 0.18,-0.2 0.35,-0.2 z"
               style="fill:#000000;stroke-width:0"
               id="path5445" /><path
               inkscape:connector-curvature="0"
               d="m 234.11,483.59 v 0.01 0.01 0.02 0.01 0 0.01 0.01 0.01 0.01 0.01 0.01 0.01 0 0.01 0.01 0 0.01 0.01 0.01 l -0.01,0.01 v 0.01 0.01 l -0.01,0.01 v 0 l -0.01,0.01 v 0.01 h -0.01 l -0.01,0.01 v 0 l -0.01,0.01 h -0.01 v 0 h -0.01 v 0 h -0.01 v 0 l -0.01,0.01 H 234 v 0 h -0.01 -0.01 -0.01 v 0 h -0.01 -0.01 -0.01 -0.01 -0.01 -0.01 -0.01 -0.01 -0.01 c -0.62,-0.64 -1.49,-0.64 -1.81,-0.64 v -0.3 c 0.2,0 0.79,0 1.31,0.26 v -5.15 c 0,-0.36 -0.03,-0.48 -0.93,-0.48 h -0.32 v -0.31 c 0.35,0.04 1.22,0.04 1.61,0.04 0.4,0 1.27,0 1.62,-0.04 v 0.31 h -0.32 c -0.9,0 -0.93,0.11 -0.93,0.48 z"
               style="fill:#000000;stroke-width:0"
               id="path5447" /><path
               inkscape:connector-curvature="0"
               d="m 237.48,480.49 v 0.24 c 0,2.51 1.23,2.87 1.74,2.87 0.24,0 0.66,-0.06 0.88,-0.4 -0.15,0 -0.55,0 -0.55,-0.44 0,-0.31 0.24,-0.46 0.46,-0.46 0.16,0 0.46,0.09 0.46,0.48 0,0.59 -0.44,1.07 -1.27,1.07 -1.27,0 -2.62,-1.28 -2.62,-3.48 0,-2.65 1.16,-3.35 2.08,-3.35 1.11,0 2.06,0.93 2.06,2.24 0,1.26 -0.89,2.22 -1.99,2.22 l -0.02,-0.23 c 0.17,0 0.62,0 0.93,-0.62 0.18,-0.36 0.18,-0.87 0.18,-1.36 0,-0.47 0,-0.97 -0.17,-1.33 -0.3,-0.6 -0.75,-0.64 -0.99,-0.64 v 0 c -0.62,0 -0.92,0.59 -0.98,0.74 -0.18,0.47 -0.18,1.26 -0.18,1.44 0,0.78 0.32,1.77 1.21,1.77 l 0.02,0.23 c -0.68,0 -1.05,-0.51 -1.25,-0.99 z"
               style="fill:#000000;stroke-width:0"
               id="path5449" /></g>        </g>
        <g
           transform="translate(-30.682542,-81.944837)"
           inkscape:label="Axis"
           id="g5495">
          <path
             inkscape:connector-curvature="0"
             d="M 50,0 H 160"
             style="fill:none;stroke:#4c4c4c;stroke-width:0.5714286;stroke-linecap:round;stroke-linejoin:round;stroke-dasharray:none;marker-end:url(#ArrowAxisEnd)"
             inkscape:label="Xaxis"
             id="path5455" />
          <g
             style="font-style:normal;font-variant:normal;font-weight:normal;font-stretch:normal;letter-spacing:normal;word-spacing:normal;text-anchor:start;fill:none;fill-opacity:1;fill-rule:evenodd;stroke:#000000;stroke-linecap:butt;stroke-linejoin:miter;stroke-miterlimit:10.43299961;stroke-dasharray:none;stroke-dashoffset:0;stroke-opacity:1"
             id="g5467"
             xml:space="preserve"
             stroke-miterlimit="10.433"
             font-style="normal"
             font-variant="normal"
             font-weight="normal"
             font-stretch="normal"
             font-size-adjust="none"
             letter-spacing="normal"
             word-spacing="normal"
             ns0:text=" $f(Hz)$"
             ns0:preamble="/home/newtonis/.config/inkscape/extensions/textextLib/basicLatexPackages.tex"
             transform="matrix(0.739645,0,0,-0.739645,-7.317561,360.99114)"><path
               inkscape:connector-curvature="0"
               d="m 227.09,481.21 h 0.86 c 0.2,0 0.3,0 0.3,0.2 0,0.11 -0.1,0.11 -0.27,0.11 h -0.83 l 0.21,1.13 c 0.04,0.21 0.18,0.91 0.24,1.03 0.09,0.19 0.26,0.34 0.47,0.34 0.04,0 0.3,0 0.49,-0.18 -0.44,-0.04 -0.54,-0.39 -0.54,-0.54 0,-0.22 0.18,-0.34 0.37,-0.34 0.26,0 0.55,0.21 0.55,0.59 0,0.46 -0.46,0.69 -0.87,0.69 -0.34,0 -0.97,-0.18 -1.27,-1.16 -0.06,-0.21 -0.09,-0.31 -0.33,-1.56 h -0.68 c -0.19,0 -0.3,0 -0.3,-0.19 0,-0.12 0.09,-0.12 0.27,-0.12 h 0.66 l -0.74,-3.92 c -0.18,-0.97 -0.35,-1.87 -0.87,-1.87 -0.04,0 -0.29,0 -0.48,0.18 0.46,0.03 0.55,0.38 0.55,0.53 0,0.23 -0.18,0.35 -0.37,0.35 -0.26,0 -0.55,-0.22 -0.55,-0.6 0,-0.44 0.44,-0.68 0.85,-0.68 0.55,0 0.95,0.59 1.12,0.96 0.32,0.63 0.55,1.83 0.56,1.9 z"
               style="fill:#000000;stroke-width:0"
               id="path5457" /><path
               inkscape:connector-curvature="0"
               d="m 232.68,474.85 v 0.01 0 0 0.01 0 0 0.01 0 0 l -0.01,0.01 v 0 0.01 0 l -0.01,0.01 v 0 l -0.01,0.01 v 0.01 h -0.01 v 0.01 h -0.01 v 0.01 0 h -0.01 v 0.01 0 l -0.01,0.01 v 0 l -0.01,0.01 v 0 l -0.01,0.01 v 0 l -0.01,0.01 v 0.01 h -0.01 l -0.01,0.01 v 0.01 h -0.01 l -0.01,0.01 v 0.01 h -0.01 l -0.01,0.01 -0.01,0.01 c -1.24,1.25 -1.56,3.13 -1.56,4.65 0,1.73 0.38,3.45 1.6,4.7 0.13,0.12 0.13,0.14 0.13,0.17 0,0.07 -0.04,0.09 -0.1,0.09 -0.1,0 -0.99,-0.67 -1.58,-1.93 -0.51,-1.09 -0.63,-2.2 -0.63,-3.03 0,-0.78 0.11,-1.98 0.66,-3.1 0.6,-1.22 1.45,-1.87 1.55,-1.87 0.06,0 0.1,0.03 0.1,0.1 z"
               style="fill:#000000;stroke-width:0"
               id="path5459" /><path
               inkscape:connector-curvature="0"
               d="m 240.87,483.26 v 0.03 l 0.01,0.03 0.01,0.03 0.01,0.03 v 0.02 l 0.01,0.03 0.01,0.02 0.01,0.03 0.01,0.02 0.01,0.02 0.01,0.02 0.02,0.02 0.01,0.01 0.02,0.02 0.01,0.01 0.02,0.02 0.02,0.01 0.03,0.01 0.02,0.01 0.03,0.01 0.03,0.01 h 0.02 l 0.01,0.01 h 0.02 0.02 l 0.02,0.01 h 0.02 0.02 l 0.02,0.01 h 0.02 0.02 0.03 0.02 l 0.02,0.01 h 0.03 0.03 0.03 0.02 0.03 0.03 0.04 0.03 0.03 c 0.26,0 0.34,0 0.34,0.2 0,0.11 -0.11,0.11 -0.14,0.11 -0.28,0 -1,-0.03 -1.28,-0.03 -0.28,0 -0.99,0.03 -1.28,0.03 -0.08,0 -0.19,0 -0.19,-0.2 0,-0.11 0.09,-0.11 0.28,-0.11 0.02,0 0.21,0 0.38,-0.02 0.18,-0.02 0.27,-0.03 0.27,-0.16 0,-0.04 -0.01,-0.06 -0.04,-0.19 l -0.6,-2.42 h -3.04 l 0.59,2.34 c 0.08,0.35 0.11,0.45 0.83,0.45 0.26,0 0.34,0 0.34,0.2 0,0.11 -0.11,0.11 -0.14,0.11 -0.28,0 -1,-0.03 -1.27,-0.03 -0.29,0 -1,0.03 -1.29,0.03 -0.08,0 -0.19,0 -0.19,-0.2 0,-0.11 0.09,-0.11 0.28,-0.11 0.02,0 0.21,0 0.38,-0.02 0.18,-0.02 0.27,-0.03 0.27,-0.16 0,-0.04 -0.01,-0.07 -0.04,-0.19 l -1.34,-5.33 c -0.1,-0.39 -0.12,-0.47 -0.91,-0.47 -0.17,0 -0.26,0 -0.26,-0.2 0,-0.11 0.11,-0.11 0.14,-0.11 0.27,0 0.98,0.04 1.26,0.04 0.21,0 0.43,-0.01 0.64,-0.01 0.22,0 0.44,-0.03 0.65,-0.03 0.08,0 0.2,0 0.2,0.2 0,0.11 -0.09,0.11 -0.28,0.11 -0.37,0 -0.65,0 -0.65,0.18 0,0.06 0.02,0.11 0.03,0.17 l 0.68,2.72 h 3.04 c -0.42,-1.65 -0.65,-2.59 -0.69,-2.74 -0.1,-0.32 -0.29,-0.33 -0.91,-0.33 -0.15,0 -0.24,0 -0.24,-0.2 0,-0.11 0.12,-0.11 0.14,-0.11 0.28,0 0.99,0.04 1.27,0.04 0.21,0 0.43,-0.01 0.64,-0.01 0.22,0 0.44,-0.03 0.65,-0.03 0.08,0 0.2,0 0.2,0.2 0,0.11 -0.09,0.11 -0.28,0.11 -0.37,0 -0.65,0 -0.65,0.18 0,0.06 0.02,0.11 0.03,0.17 z"
               style="fill:#000000;stroke-width:0"
               id="path5461" /><path
               inkscape:connector-curvature="0"
               d="m 243.67,478.06 0.05,0.05 0.05,0.05 0.05,0.05 0.04,0.05 0.05,0.05 0.04,0.04 0.04,0.04 0.04,0.05 0.04,0.04 0.04,0.04 0.04,0.03 0.04,0.04 0.04,0.04 0.03,0.03 0.07,0.07 0.07,0.06 0.07,0.06 0.06,0.06 0.07,0.06 0.13,0.11 0.06,0.05 0.07,0.06 c 0,0.01 0.62,0.54 0.98,0.9 0.94,0.92 1.16,1.4 1.16,1.44 0,0.1 -0.09,0.1 -0.11,0.1 -0.07,0 -0.1,-0.02 -0.15,-0.11 -0.3,-0.48 -0.51,-0.64 -0.75,-0.64 -0.23,0 -0.35,0.15 -0.5,0.32 -0.19,0.23 -0.36,0.43 -0.69,0.43 -0.75,0 -1.21,-0.93 -1.21,-1.14 0,-0.05 0.03,-0.11 0.12,-0.11 0.09,0 0.11,0.05 0.13,0.11 0.19,0.46 0.77,0.47 0.85,0.47 0.21,0 0.4,-0.07 0.63,-0.15 0.39,-0.15 0.5,-0.15 0.76,-0.15 -0.35,-0.43 -1.19,-1.14 -1.38,-1.3 l -0.9,-0.83 c -0.68,-0.67 -1.03,-1.23 -1.03,-1.3 0,-0.1 0.1,-0.1 0.12,-0.1 0.08,0 0.1,0.02 0.16,0.13 0.23,0.34 0.53,0.61 0.85,0.61 0.23,0 0.33,-0.09 0.58,-0.38 0.17,-0.2 0.35,-0.36 0.64,-0.36 0.98,0 1.56,1.26 1.56,1.53 0,0.04 -0.04,0.1 -0.12,0.1 -0.09,0 -0.11,-0.06 -0.14,-0.13 -0.23,-0.65 -0.86,-0.84 -1.19,-0.84 -0.2,0 -0.38,0.06 -0.59,0.13 -0.34,0.13 -0.49,0.17 -0.7,0.17 -0.02,0 -0.18,0 -0.27,-0.03 z"
               style="fill:#000000;stroke-width:0"
               id="path5463" /><path
               inkscape:connector-curvature="0"
               d="m 250.3,479.72 v 0.07 0.08 0.08 0.08 l -0.01,0.17 -0.01,0.17 -0.02,0.18 -0.02,0.19 -0.03,0.2 -0.03,0.2 -0.04,0.2 -0.05,0.21 -0.05,0.21 -0.06,0.21 -0.07,0.21 -0.08,0.21 -0.04,0.11 -0.05,0.11 -0.05,0.1 -0.05,0.11 c -0.6,1.22 -1.45,1.86 -1.55,1.86 -0.06,0 -0.1,-0.03 -0.1,-0.09 0,-0.03 0,-0.05 0.19,-0.23 0.97,-0.99 1.54,-2.56 1.54,-4.64 0,-1.7 -0.37,-3.45 -1.6,-4.7 -0.13,-0.12 -0.13,-0.14 -0.13,-0.17 0,-0.06 0.04,-0.1 0.1,-0.1 0.1,0 0.99,0.68 1.58,1.94 0.51,1.09 0.63,2.19 0.63,3.03 z"
               style="fill:#000000;stroke-width:0"
               id="path5465" /></g>          <path
             inkscape:connector-curvature="0"
             d="M 50,80 V -45"
             style="fill:none;stroke:#4c4c4c;stroke-width:0.5714286;stroke-linecap:round;stroke-linejoin:round;stroke-dasharray:none;marker-end:url(#ArrowAxisEnd)"
             inkscape:label="Yaxis"
             id="path5469" />
          <g
             style="font-style:normal;font-variant:normal;font-weight:normal;font-stretch:normal;letter-spacing:normal;word-spacing:normal;text-anchor:start;fill:none;fill-opacity:1;fill-rule:evenodd;stroke:#000000;stroke-linecap:butt;stroke-linejoin:miter;stroke-miterlimit:10.43299961;stroke-dasharray:none;stroke-dashoffset:0;stroke-opacity:1"
             id="g5493"
             xml:space="preserve"
             stroke-miterlimit="10.433"
             font-style="normal"
             font-variant="normal"
             font-weight="normal"
             font-stretch="normal"
             font-size-adjust="none"
             letter-spacing="normal"
             word-spacing="normal"
             ns0:text=" $20log|H(s)|$"
             ns0:preamble="/home/newtonis/.config/inkscape/extensions/textextLib/basicLatexPackages.tex"
             transform="matrix(0.739645,0,0,-0.739645,-128.22788,302.39147)"><path
               inkscape:connector-curvature="0"
               d="m 224.7,478 1.06,1.02 c 1.55,1.37 2.15,1.91 2.15,2.9 0,1.14 -0.9,1.93 -2.12,1.93 -1.12,0 -1.86,-0.91 -1.86,-1.8 0,-0.55 0.5,-0.55 0.53,-0.55 0.17,0 0.52,0.12 0.52,0.52 0,0.26 -0.18,0.52 -0.53,0.52 -0.08,0 -0.1,0 -0.13,-0.01 0.23,0.64 0.77,1.01 1.35,1.01 0.9,0 1.33,-0.8 1.33,-1.62 0,-0.79 -0.5,-1.58 -1.04,-2.19 l -1.92,-2.13 c -0.11,-0.11 -0.11,-0.13 -0.11,-0.37 h 3.7 l 0.28,1.73 h -0.25 c -0.05,-0.29 -0.12,-0.73 -0.22,-0.88 C 227.37,478 226.71,478 226.49,478 Z"
               style="fill:#000000;stroke-width:0"
               id="path5471" /><path
               inkscape:connector-curvature="0"
               d="m 233,480.41 v 0.15 0.15 l -0.01,0.15 v 0.15 l -0.01,0.15 -0.01,0.14 -0.02,0.15 -0.02,0.15 -0.02,0.14 -0.03,0.15 -0.03,0.14 -0.04,0.15 -0.04,0.14 -0.05,0.14 -0.06,0.14 -0.03,0.07 -0.03,0.07 c -0.46,0.95 -1.28,1.11 -1.69,1.11 -0.6,0 -1.33,-0.26 -1.74,-1.18 -0.32,-0.69 -0.37,-1.46 -0.37,-2.26 0,-0.74 0.04,-1.64 0.45,-2.39 0.43,-0.81 1.16,-1 1.65,-1 v 0.21 c -0.39,0 -0.98,0.25 -1.16,1.21 -0.11,0.59 -0.11,1.51 -0.11,2.09 0,0.64 0,1.29 0.08,1.83 0.19,1.18 0.94,1.27 1.19,1.27 0.33,0 0.98,-0.18 1.17,-1.16 0.1,-0.56 0.1,-1.31 0.1,-1.94 0,-0.74 0,-1.42 -0.11,-2.05 -0.15,-0.95 -0.71,-1.25 -1.16,-1.25 v 0 -0.21 c 0.53,0 1.29,0.21 1.73,1.15 0.32,0.68 0.37,1.46 0.37,2.24 z"
               style="fill:#000000;stroke-width:0"
               id="path5473" /><path
               inkscape:connector-curvature="0"
               d="m 235.97,484.02 v 0 0 0 0 0.01 0 0 0.01 0 0.01 h -0.01 v 0 0.01 0 0.01 h -0.01 v 0.01 0 l -0.01,0.01 v 0 0.01 h -0.01 v 0 0 0.01 h -0.01 v 0 0 h -0.01 v 0.01 0 h -0.01 v 0 h -0.01 v 0 0 h -0.01 v 0.01 h -0.01 v 0 h -0.01 v 0 h -0.01 -0.01 v 0 c -0.23,0 -0.96,-0.08 -1.22,-0.1 -0.08,-0.01 -0.19,-0.02 -0.19,-0.21 0,-0.11 0.1,-0.11 0.25,-0.11 0.48,0 0.49,-0.09 0.49,-0.17 l -0.03,-0.2 -1.26,-4.96 c -0.03,-0.11 -0.05,-0.18 -0.05,-0.34 0,-0.57 0.44,-0.91 0.91,-0.91 0.33,0 0.58,0.19 0.75,0.55 0.18,0.38 0.3,0.96 0.3,0.98 0,0.1 -0.09,0.1 -0.12,0.1 -0.1,0 -0.11,-0.05 -0.14,-0.18 -0.17,-0.65 -0.36,-1.24 -0.76,-1.24 -0.3,0 -0.3,0.32 -0.3,0.46 0,0.24 0.01,0.29 0.06,0.48 z"
               style="fill:#000000;stroke-width:0"
               id="path5475" /><path
               inkscape:connector-curvature="0"
               d="m 241.24,479.95 v 0.09 0.1 l -0.01,0.09 -0.02,0.09 -0.02,0.08 -0.02,0.09 -0.02,0.08 -0.03,0.08 -0.03,0.07 -0.04,0.07 -0.03,0.07 -0.04,0.07 -0.05,0.07 -0.05,0.06 -0.04,0.06 -0.06,0.05 -0.05,0.06 -0.06,0.05 -0.06,0.04 -0.06,0.05 -0.07,0.04 -0.06,0.03 -0.07,0.04 -0.07,0.03 -0.08,0.03 -0.07,0.02 -0.08,0.02 -0.08,0.02 -0.08,0.01 -0.08,0.01 h -0.08 l -0.08,0.01 c -1.34,0 -2.67,-1.42 -2.67,-2.83 0,-0.98 0.66,-1.67 1.59,-1.67 l 0.01,0.21 c -0.43,0 -0.87,0.31 -0.87,1.09 0,0.48 0.26,1.56 0.58,2.06 0.5,0.77 1.07,0.92 1.35,0.92 0.58,0 0.88,-0.48 0.88,-1.08 0,-0.38 -0.2,-1.43 -0.58,-2.07 -0.35,-0.58 -0.9,-0.92 -1.36,-0.92 v 0 l -0.01,-0.21 c 1.33,0 2.67,1.37 2.67,2.82 z"
               style="fill:#000000;stroke-width:0"
               id="path5477" /><path
               inkscape:connector-curvature="0"
               d="m 246.09,480.98 v 0.01 l 0.01,0.01 v 0.01 0.01 l 0.01,0.02 v 0.02 0.01 0.01 l 0.01,0.01 v 0.01 0.01 0.01 0.01 0 0.01 0.01 0 0.01 c 0,0.17 -0.12,0.27 -0.29,0.27 -0.1,0 -0.37,-0.07 -0.4,-0.43 -0.19,0.37 -0.53,0.63 -0.93,0.63 l 0.01,-0.22 c 0.65,0 0.79,-0.81 0.79,-0.86 0,-0.05 -0.01,-0.11 -0.03,-0.15 l -0.47,-1.89 c -0.06,-0.26 -0.29,-0.51 -0.51,-0.7 -0.21,-0.18 -0.52,-0.36 -0.81,-0.36 -0.5,0 -0.65,0.52 -0.65,0.92 0,0.47 0.29,1.65 0.56,2.15 0.27,0.49 0.7,0.89 1.12,0.89 l -0.01,0.22 c -1.14,0 -2.38,-1.4 -2.38,-2.83 0,-0.98 0.61,-1.57 1.33,-1.57 0.59,0 1.06,0.47 1.16,0.58 l 0.01,-0.01 c -0.21,-0.88 -0.33,-1.29 -0.33,-1.31 -0.04,-0.09 -0.38,-1.07 -1.44,-1.07 -0.19,0 -0.52,0.01 -0.8,0.1 0.3,0.09 0.41,0.34 0.41,0.51 0,0.16 -0.11,0.35 -0.38,0.35 -0.21,0 -0.54,-0.18 -0.54,-0.58 0,-0.4 0.37,-0.6 1.33,-0.6 1.25,0 1.97,0.77 2.12,1.37 z"
               style="fill:#000000;stroke-width:0"
               id="path5479" /><path
               inkscape:connector-curvature="0"
               d="m 248.09,484.33 v 0.03 0.03 0.04 0.01 l -0.01,0.02 v 0.01 0.02 0.02 0.01 l -0.01,0.01 v 0.02 0.01 l -0.01,0.01 v 0.02 l -0.01,0.01 v 0.01 l -0.01,0.01 -0.01,0.01 -0.01,0.01 -0.01,0.01 H 248 l -0.01,0.01 v 0 l -0.01,0.01 h -0.01 v 0 h -0.01 l -0.01,0.01 v 0 h -0.01 -0.01 -0.01 -0.01 v 0 h -0.01 -0.01 c -0.2,0 -0.2,-0.17 -0.2,-0.35 v -9.22 c 0,-0.18 0,-0.36 0.2,-0.36 0.2,0 0.2,0.18 0.2,0.36 z"
               style="fill:#000000;stroke-width:0"
               id="path5481" /><path
               inkscape:connector-curvature="0"
               d="m 256.88,483.26 0.01,0.03 v 0.03 l 0.01,0.03 0.01,0.03 0.01,0.02 0.01,0.03 v 0.02 l 0.01,0.03 0.01,0.02 0.01,0.02 0.02,0.02 0.01,0.02 0.01,0.01 0.02,0.02 0.02,0.01 0.02,0.02 0.02,0.01 0.02,0.01 0.03,0.01 0.02,0.01 0.03,0.01 h 0.02 l 0.02,0.01 h 0.01 0.02 l 0.02,0.01 h 0.02 0.02 l 0.02,0.01 h 0.02 0.03 0.02 0.02 l 0.03,0.01 h 0.02 0.03 0.03 0.03 0.03 0.03 0.03 0.03 0.03 c 0.27,0 0.34,0 0.34,0.2 0,0.11 -0.1,0.11 -0.13,0.11 -0.28,0 -1,-0.03 -1.28,-0.03 -0.29,0 -1,0.03 -1.29,0.03 -0.08,0 -0.19,0 -0.19,-0.2 0,-0.11 0.09,-0.11 0.28,-0.11 0.02,0 0.21,0 0.38,-0.02 0.18,-0.02 0.27,-0.03 0.27,-0.16 0,-0.04 -0.01,-0.06 -0.04,-0.19 l -0.6,-2.42 h -3.04 l 0.59,2.34 c 0.09,0.35 0.12,0.45 0.84,0.45 0.26,0 0.34,0 0.34,0.2 0,0.11 -0.11,0.11 -0.14,0.11 -0.28,0 -1,-0.03 -1.28,-0.03 -0.29,0 -1,0.03 -1.29,0.03 -0.08,0 -0.19,0 -0.19,-0.2 0,-0.11 0.09,-0.11 0.28,-0.11 0.02,0 0.21,0 0.38,-0.02 0.18,-0.02 0.27,-0.03 0.27,-0.16 0,-0.04 -0.01,-0.07 -0.04,-0.19 l -1.33,-5.33 c -0.1,-0.39 -0.13,-0.47 -0.91,-0.47 -0.18,0 -0.27,0 -0.27,-0.2 0,-0.11 0.12,-0.11 0.14,-0.11 0.28,0 0.99,0.04 1.26,0.04 0.21,0 0.43,-0.01 0.64,-0.01 0.22,0 0.44,-0.03 0.65,-0.03 0.08,0 0.2,0 0.2,0.2 0,0.11 -0.09,0.11 -0.28,0.11 -0.37,0 -0.65,0 -0.65,0.18 0,0.06 0.02,0.11 0.03,0.17 l 0.68,2.72 h 3.04 c -0.42,-1.65 -0.65,-2.59 -0.69,-2.74 -0.1,-0.32 -0.28,-0.33 -0.9,-0.33 -0.15,0 -0.24,0 -0.24,-0.2 0,-0.11 0.12,-0.11 0.14,-0.11 0.28,0 0.98,0.04 1.26,0.04 0.21,0 0.43,-0.01 0.64,-0.01 0.22,0 0.44,-0.03 0.65,-0.03 0.08,0 0.2,0 0.2,0.2 0,0.11 -0.09,0.11 -0.28,0.11 -0.37,0 -0.65,0 -0.65,0.18 0,0.06 0.02,0.11 0.03,0.17 z"
               style="fill:#000000;stroke-width:0"
               id="path5483" /><path
               inkscape:connector-curvature="0"
               d="m 261.66,474.85 v 0.01 0 0 0.01 0 0 0.01 0 h -0.01 v 0.01 0 0.01 h -0.01 v 0.01 0 l -0.01,0.01 v 0.01 h -0.01 v 0.01 h -0.01 v 0.01 0 h -0.01 v 0.01 h -0.01 v 0.01 h -0.01 v 0.01 h -0.01 v 0.01 h -0.01 V 475 l -0.01,0.01 v 0 l -0.01,0.01 -0.01,0.01 v 0 l -0.01,0.01 -0.01,0.01 v 0 l -0.01,0.01 -0.01,0.01 c -1.25,1.25 -1.56,3.13 -1.56,4.65 0,1.73 0.37,3.45 1.6,4.7 0.13,0.12 0.13,0.14 0.13,0.17 0,0.07 -0.04,0.09 -0.1,0.09 -0.1,0 -1,-0.67 -1.58,-1.93 -0.51,-1.09 -0.63,-2.2 -0.63,-3.03 0,-0.78 0.11,-1.98 0.66,-3.1 0.59,-1.22 1.45,-1.87 1.55,-1.87 0.06,0 0.1,0.03 0.1,0.1 z"
               style="fill:#000000;stroke-width:0"
               id="path5485" /><path
               inkscape:connector-curvature="0"
               d="m 266.13,480.95 h -0.02 -0.03 l -0.02,-0.01 h -0.03 l -0.02,-0.01 -0.02,-0.01 h -0.03 l -0.02,-0.01 -0.02,-0.01 -0.02,-0.01 -0.02,-0.02 -0.02,-0.01 -0.02,-0.01 -0.02,-0.02 -0.01,-0.01 -0.02,-0.02 -0.02,-0.01 -0.01,-0.02 -0.01,-0.01 -0.02,-0.02 -0.01,-0.02 -0.01,-0.02 -0.01,-0.02 -0.01,-0.02 -0.01,-0.02 v -0.02 l -0.01,-0.02 -0.01,-0.02 v -0.02 -0.02 -0.02 l -0.01,-0.02 c 0,-0.14 0.09,-0.29 0.31,-0.29 0.22,0 0.46,0.17 0.46,0.56 0,0.45 -0.43,0.86 -1.18,0.86 -1.32,0 -1.69,-1.02 -1.69,-1.46 0,-0.77 0.74,-0.92 1.03,-0.98 0.52,-0.1 1.04,-0.21 1.04,-0.75 0,-0.26 -0.23,-1.1 -1.43,-1.1 -0.14,0 -0.91,0 -1.14,0.53 0.38,-0.05 0.63,0.25 0.63,0.53 0,0.23 -0.16,0.34 -0.37,0.34 -0.26,0 -0.56,-0.2 -0.56,-0.65 0,-0.57 0.57,-0.96 1.43,-0.96 1.62,0 2,1.2 2,1.64 0,0.36 -0.19,0.61 -0.3,0.73 -0.27,0.28 -0.56,0.33 -1,0.42 -0.36,0.08 -0.76,0.15 -0.76,0.59 0,0.29 0.24,0.9 1.12,0.9 0.25,0 0.74,-0.07 0.89,-0.46 z"
               style="fill:#000000;stroke-width:0"
               id="path5487" /><path
               inkscape:connector-curvature="0"
               d="m 269.79,479.72 v 0.07 0.08 l -0.01,0.08 v 0.08 l -0.01,0.17 -0.01,0.17 -0.02,0.18 -0.02,0.19 -0.02,0.2 -0.04,0.2 -0.04,0.2 -0.04,0.21 -0.06,0.21 -0.06,0.21 -0.07,0.21 -0.08,0.21 -0.04,0.11 -0.04,0.11 -0.05,0.1 -0.05,0.11 c -0.6,1.22 -1.46,1.86 -1.56,1.86 -0.06,0 -0.1,-0.03 -0.1,-0.09 0,-0.03 0,-0.05 0.19,-0.23 0.98,-0.99 1.55,-2.56 1.55,-4.64 0,-1.7 -0.37,-3.45 -1.61,-4.7 -0.13,-0.12 -0.13,-0.14 -0.13,-0.17 0,-0.06 0.04,-0.1 0.1,-0.1 0.1,0 1,0.68 1.59,1.94 0.51,1.09 0.63,2.19 0.63,3.03 z"
               style="fill:#000000;stroke-width:0"
               id="path5489" /><path
               inkscape:connector-curvature="0"
               d="m 272.36,484.33 v 0.03 0.03 0.04 0.01 0.02 0.01 0.02 0.02 l -0.01,0.01 v 0.01 0.02 l -0.01,0.01 v 0.01 0.02 l -0.01,0.01 -0.01,0.01 v 0.01 l -0.01,0.01 -0.01,0.01 -0.01,0.01 h -0.01 l -0.01,0.01 h -0.01 v 0.01 h -0.01 -0.01 v 0 l -0.01,0.01 h -0.01 v 0 h -0.01 -0.01 -0.01 -0.01 -0.01 v 0 c -0.2,0 -0.2,-0.17 -0.2,-0.35 v -9.22 c 0,-0.18 0,-0.36 0.2,-0.36 0.19,0 0.19,0.18 0.19,0.36 z"
               style="fill:#000000;stroke-width:0"
               id="path5491" /></g>        </g>
      </g>
      <path
         sodipodi:nodetypes="ccccccccccccccccccccccccccccccccccccccccccccccccccccccccccccccccccc"
         inkscape:connector-curvature="0"
         d="m 58.117275,-29.033563 27.303353,0.0026 4.40228,0.0043 3.12347,0.006 2.42275,0.0077 1.97953,0.0094 1.67367,0.01112 1.449802,0.01283 1.27881,0.01453 1.14394,0.01623 1.03481,0.01792 0.94472,0.01961 0.86905,0.0213 0.80462,0.02298 0.74908,0.02466 0.70072,0.02632 0.65822,0.02799 0.62059,0.02965 0.58703,0.0313 0.55691,0.03294 0.52973,0.03457 0.50508,0.0362 0.48263,0.03782 0.46209,0.03943 0.44322,0.04103 0.42583,0.04263 0.40976,0.04421 0.39486,0.04578 0.381,0.04734 0.36808,0.0489 0.35601,0.05044 0.34471,0.05197 0.3341,0.05349 0.32412,0.055 0.31473,0.0565 0.30586,0.05798 1.14394,0.246518 1.27881,0.340015 1.14394,0.37382 1.03481,0.405818 0.94472,0.435935 0.86905,0.464121 0.80462,0.490355 0.74908,0.514628 0.70072,0.536958 1.27881,1.133305 1.14394,1.200353 1.03481,1.253799 0.94472,1.294927 0.86905,1.325116 0.80462,1.345758 0.381,0.678004 0.36808,0.680185 0.35601,0.681535 0.34471,0.682122 0.3341,0.682014 0.32412,0.681275 0.62059,1.35809 0.58703,1.3489409 0.55691,1.336601 2.42275,6.426486 1.97953,5.914953 3.12347,10.3001541 2.42275,8.59538 1.97953,7.29895 1.67367,6.31263 1.4498,5.54758"
         style="fill:none;stroke:#0000ff;stroke-width:0.66666669;stroke-linecap:round;stroke-linejoin:round;stroke-dasharray:none"
         inkscape:label="none"
         id="path5499" />
    </g>
  </g>
  <g
     style="display:inline"
     transform="translate(15.196398,-34.733536)"
     inkscape:label="PlotData"
     id="g12201">
    <g
       style="display:inline"
       inkscape:label="output"
       id="layer3"
       inkscape:groupmode="layer" />
    <path
       inkscape:connector-curvature="0"
       d="m 61.648479,94.482249 v -0.315522 h -0.001 l 47.014191,0.315522 h -47.015191 -0.27562 v -0.326893 h -0.001 -10e-4 v 0.326893 h -0.28288 v -0.338882 h -0.001 -10e-4 v 0.338882 h -0.29052 v -0.351535 h -10e-4 -10e-4 v 0.351535 h -0.29859 v -0.364905 h -0.002 -0.002 v 0.364905 h -0.30713 v -0.379052 h -0.002 -0.002 v 0.379052 h -0.31616 v -0.394041 h -0.002 -0.002 v 0.394041 h -0.32575 v -0.409944 h -0.002 -0.002 v 0.409944 h -0.33592 v -0.426846 h -0.002 -0.002 v 0.426846 h -0.34676 v -0.444837 h -0.002 -0.002 v 0.444837 h -0.35833 v -0.464024 h -0.002 -0.002 v 0.464024 h -0.37068 v -0.484526 h -0.002 -0.002 v 0.484526 h -0.38393 v -0.50648 h -0.002 -0.002 v 0.50648 h -0.39815 v -0.530042 h -0.002 -0.002 v 0.530042 h -0.41347 v -0.555393 h -0.002 -0.002 v 0.555393 h -0.43 v -0.582745 h -0.002 -0.002 v 0.582745 h -0.44793 v -0.612342 h -0.002 -0.002 v 0.612342 h -0.46742 v -0.644475 h -0.002 -0.002 v 0.644475 h -0.48866 v -0.679486 h -0.003 -0.003 v 0.679486 h -0.51195 v -0.717784 h -0.003 -0.003 v 0.717784 h -0.53755 v -0.759863 h -0.003 -0.003 v 0.759863 h -0.56585 v -0.806323 h -0.003 -0.003 v 0.806323 h -0.59731 v -0.8579 h -0.003 -0.003 v 0.8579 h -0.63246 v -0.91551 h -0.003 -0.003 v 0.91551 h -0.67202 v -0.980304 h -0.003 -0.004 v 0.980304 h -0.71685 v -1.053751 h -0.004 -0.004 v 1.053751 h -0.76809 v -1.137757 h -0.004 -0.004 v 1.137757 h -0.82723 v -1.234837 h -0.004 -0.004 v 1.234837 h -0.89624 v -1.348381 h -0.005 -0.005 v 1.348381 h -0.97782 v -1.483072 h -0.005 -0.005 v 1.483072 h -1.07576 v -1.645565 h -0.006 -0.006 v 1.645565 h -1.19551 v -1.845651 h -0.006 -0.006 v 1.845651 h -1.34531 v -2.098342 h -0.007 -0.007 v 2.098342 h -1.53811 v -2.427891 h -0.008 -0.008 v 2.427891 h -1.79555 v -2.876193 h -0.01 -0.01 v 2.876193 h -2.15682 v -3.522388 h -0.0121 -0.0121 v 3.522388 h -2.70104 v -4.536066 h -0.0155 -0.0155 v 4.536066 h -3.61599 v -6.35817 h -0.0217 -0.0217 v 6.35817 h -5.48835 V 83.876742 h -0.0361 -0.0362 v 10.605507 h -11.78375 v -30 h -0.10803 -0.10912 v 30 H 9.0460493"
       style="fill:#e86d6d;fill-opacity:1;stroke:#e86d6d;stroke-width:0.66666669;stroke-linecap:round;stroke-linejoin:round;stroke-dasharray:none;stroke-opacity:1"
       inkscape:label="none"
       id="path12199"
       sodipodi:nodetypes="ccccccccccccccccccccccccccccccccccccccccccccccccccccccccccccccccccccccccccccccccccccccccccccccccccccccccccccccccccccccccccccccccccccccccccccccccccccccccccccccccccccccccccccccccccccccccccccccccccccccccc" />
    <path
       sodipodi:nodetypes="cccc"
       inkscape:connector-curvature="0"
       id="path12468-7"
       d="m 16.553805,66.710136 4.465598,-5.837175 h 4.242124 1.435566"
       style="display:inline;fill:none;stroke:#e86d6d;stroke-width:0.5;stroke-linecap:butt;stroke-linejoin:miter;stroke-miterlimit:4;stroke-dasharray:none;stroke-opacity:1;marker-end:url(#ArrowAxisEnd-3)" />
    <path
       sodipodi:nodetypes="ccc"
       inkscape:connector-curvature="0"
       id="path12468-7-5"
       d="m 15.545773,59.111724 4.465598,-5.837175 h 5.677689"
       style="display:inline;fill:none;fill-opacity:1;stroke:#aaa0ff;stroke-width:0.5;stroke-linecap:butt;stroke-linejoin:miter;stroke-miterlimit:4;stroke-dasharray:none;stroke-opacity:1;marker-end:url(#ArrowAxisEnd-3-5)" />
    <g
       style="stroke-width:1.7631247"
       transform="matrix(0.56717486,0,0,0.56717485,-19.950048,-1.3024561)"
       id="g13648">
      <g
         style="font-style:normal;font-variant:normal;font-weight:normal;font-stretch:normal;letter-spacing:normal;word-spacing:normal;text-anchor:start;fill:none;fill-opacity:1;fill-rule:evenodd;stroke:#000000;stroke-width:1.7631247;stroke-linecap:butt;stroke-linejoin:miter;stroke-miterlimit:10.43299961;stroke-dasharray:none;stroke-dashoffset:0;stroke-opacity:1"
         id="g13646"
         transform="matrix(0.3,0,0,-0.3,-52.5,222.75)"
         xml:space="preserve"
         stroke-miterlimit="10.433"
         font-style="normal"
         font-variant="normal"
         font-weight="normal"
         font-stretch="normal"
         font-size-adjust="none"
         letter-spacing="normal"
         word-spacing="normal"><path
           style="fill:#000000;stroke-width:0"
           inkscape:connector-curvature="0"
           d="m 474.16,436.39 0.04,0.16 0.04,0.16 0.04,0.15 0.04,0.14 0.04,0.14 0.04,0.13 0.05,0.12 0.05,0.11 0.05,0.11 0.06,0.11 0.07,0.09 0.07,0.09 0.08,0.09 0.08,0.08 0.1,0.07 0.1,0.07 0.12,0.06 0.12,0.06 0.14,0.05 0.15,0.05 0.17,0.04 0.08,0.02 0.09,0.02 0.1,0.02 0.1,0.02 0.1,0.01 0.1,0.02 0.11,0.01 0.12,0.01 0.12,0.02 0.12,0.01 0.13,0.01 h 0.13 l 0.13,0.01 0.14,0.01 0.15,0.01 h 0.15 0.16 l 0.16,0.01 h 0.16 0.17 0.18 0.18 c 1.19,0 1.6,0 1.6,0.96 0,0.59 -0.55,0.59 -0.75,0.59 -1.46,0 -5.15,-0.16 -6.58,-0.16 -1.5,0 -5.13,0.16 -6.63,0.16 -0.34,0 -1,0 -1,-1 0,-0.55 0.46,-0.55 1.39,-0.55 2.1,0 3.44,0 3.44,-0.95 0,-0.25 0,-0.34 -0.09,-0.8 l -6.72,-26.84 c -0.46,-1.84 -0.61,-2.34 -4.55,-2.34 -1.14,0 -1.59,0 -1.59,-1 0,-0.55 0.61,-0.55 0.75,-0.55 1.45,0 5.08,0.16 6.53,0.16 1.5,0 5.19,-0.16 6.67,-0.16 0.41,0 1,0 1,0.95 0,0.6 -0.41,0.6 -1.5,0.6 -0.89,0 -1.14,0 -2.14,0.09 -1.05,0.11 -1.23,0.3 -1.23,0.84 0,0.41 0.09,0.8 0.18,1.16 z"
           id="path13642" /><path
           style="fill:#000000;stroke-width:0"
           inkscape:connector-curvature="0"
           d="m 485.71,409.14 -0.01,-0.07 -0.02,-0.08 -0.02,-0.07 -0.01,-0.08 -0.04,-0.16 -0.04,-0.16 -0.03,-0.16 -0.04,-0.16 -0.04,-0.16 -0.03,-0.16 -0.02,-0.08 -0.02,-0.07 -0.01,-0.07 -0.02,-0.07 -0.01,-0.07 -0.02,-0.07 -0.01,-0.06 -0.01,-0.06 -0.01,-0.06 -0.01,-0.05 -0.01,-0.05 -0.01,-0.04 v -0.04 l -0.01,-0.04 V 407.02 407 c 0,-0.89 0.7,-1.35 1.44,-1.35 0.6,0 1.5,0.39 1.84,1.39 0.06,0.11 0.66,2.44 0.95,3.69 l 1.1,4.48 c 0.29,1.1 0.59,2.19 0.84,3.35 0.2,0.84 0.61,2.28 0.66,2.48 0.75,1.55 3.39,6.08 8.11,6.08 2.25,0 2.7,-1.84 2.7,-3.48 0,-3.1 -2.45,-9.47 -3.25,-11.61 -0.44,-1.14 -0.49,-1.75 -0.49,-2.3 0,-2.33 1.74,-4.08 4.08,-4.08 4.69,0 6.53,7.27 6.53,7.67 0,0.5 -0.45,0.5 -0.61,0.5 -0.48,0 -0.48,-0.15 -0.73,-0.9 -1,-3.38 -2.64,-6.17 -5.09,-6.17 -0.85,0 -1.19,0.5 -1.19,1.64 0,1.25 0.45,2.45 0.89,3.54 0.95,2.64 3.05,8.11 3.05,10.96 0,3.34 -2.14,5.32 -5.74,5.32 -4.48,0 -6.92,-3.18 -7.76,-4.32 -0.25,2.79 -2.3,4.32 -4.6,4.32 -2.28,0 -3.23,-1.93 -3.73,-2.82 -0.8,-1.71 -1.5,-4.64 -1.5,-4.85 0,-0.5 0.5,-0.5 0.61,-0.5 0.5,0 0.54,0.07 0.84,1.16 0.84,3.53 1.84,5.92 3.64,5.92 0.99,0 1.55,-0.64 1.55,-2.28 0,-1.05 -0.16,-1.61 -0.8,-4.19 z"
           id="path13644" /></g>    </g>
    <path
       style="fill:#e86d6d;stroke:#e86d6d;stroke-width:0.65;stroke-linecap:butt;stroke-linejoin:miter;stroke-opacity:1;stroke-miterlimit:4;stroke-dasharray:none;fill-opacity:1"
       d="M 61.648478,94.482249 H 108.66167"
       id="path6816"
       inkscape:connector-curvature="0" />
  </g>
  <g
     id="g13957"
     transform="matrix(0.57374164,0,0,0.57374164,-4.2078879,-29.011017)"
     style="stroke-width:1.74294472">
    <g
       word-spacing="normal"
       letter-spacing="normal"
       font-size-adjust="none"
       font-stretch="normal"
       font-weight="normal"
       font-variant="normal"
       font-style="normal"
       stroke-miterlimit="10.433"
       xml:space="preserve"
       transform="matrix(0.3,0,0,-0.3,-52.5,222.75)"
       id="g13955"
       style="font-style:normal;font-variant:normal;font-weight:normal;font-stretch:normal;letter-spacing:normal;word-spacing:normal;text-anchor:start;fill:none;fill-opacity:1;fill-rule:evenodd;stroke:#000000;stroke-width:1.74294472;stroke-linecap:butt;stroke-linejoin:miter;stroke-miterlimit:10.43299961;stroke-dasharray:none;stroke-dashoffset:0;stroke-opacity:1"><path
         id="path13949"
         d="m 492.39,427.92 -0.01,0.74 -0.05,0.73 -0.07,0.71 -0.11,0.7 -0.13,0.68 -0.16,0.66 -0.19,0.64 -0.22,0.62 -0.24,0.6 -0.27,0.59 -0.29,0.56 -0.32,0.54 -0.34,0.52 -0.37,0.5 -0.38,0.47 -0.42,0.45 -0.43,0.43 -0.45,0.41 -0.48,0.38 -0.49,0.35 -0.52,0.33 -0.53,0.3 -0.55,0.28 -0.57,0.25 -0.59,0.22 -0.6,0.2 -0.62,0.16 -0.63,0.14 -0.65,0.1 -0.67,0.08 -0.67,0.05 -0.69,0.01 -0.3,-1.25 c 4.09,0 8.58,-2.78 8.58,-10.2 0,-3.59 -1.35,-11.36 -6.28,-17.5 -2.39,-3.03 -6.49,-5.97 -10.66,-5.97 v 0 c -4.94,0 -8.42,4.03 -8.42,10.61 0,2.19 0.69,9.47 4.53,15.3 3.44,5.17 8.31,7.76 12.25,7.76 l 0.3,1.25 c -10.75,0 -21.72,-11.31 -21.72,-22.92 0,-8.26 5.58,-13.29 12.76,-13.29 10.55,0 21.67,10.9 21.67,22.81 z"
         inkscape:connector-curvature="0"
         style="fill:#000000;stroke-width:0" /><path
         id="path13951"
         d="m 512.44,409 0.05,-0.19 0.06,-0.19 0.07,-0.18 0.08,-0.18 0.08,-0.17 0.09,-0.16 0.09,-0.16 0.1,-0.16 0.11,-0.15 0.11,-0.15 0.11,-0.14 0.13,-0.13 0.13,-0.13 0.13,-0.12 0.14,-0.12 0.14,-0.11 0.15,-0.11 0.15,-0.1 0.15,-0.09 0.16,-0.09 0.17,-0.08 0.17,-0.07 0.17,-0.07 0.18,-0.06 0.17,-0.06 0.19,-0.04 0.18,-0.05 0.19,-0.03 0.19,-0.02 0.2,-0.02 0.2,-0.01 0.2,-0.01 c 1.73,0 2.89,1.14 3.68,2.74 0.85,1.79 1.49,4.84 1.49,4.93 0,0.5 -0.44,0.5 -0.6,0.5 -0.5,0 -0.54,-0.2 -0.7,-0.9 -0.69,-2.78 -1.64,-6.17 -3.73,-6.17 -1.05,0 -1.54,0.65 -1.54,2.29 0,1.1 0.6,3.44 0.99,5.17 l 1.41,5.4 c 0.14,0.75 0.64,2.64 0.84,3.39 0.25,1.14 0.75,3.03 0.75,3.32 0,0.91 -0.7,1.35 -1.45,1.35 -0.25,0 -1.55,-0.05 -1.94,-1.74 -0.96,-3.64 -3.14,-12.36 -3.74,-15 -0.06,-0.2 -2.04,-4.18 -5.68,-4.18 -2.6,0 -3.1,2.25 -3.1,4.09 0,2.78 1.41,6.72 2.71,10.16 0.59,1.5 0.84,2.18 0.84,3.14 0,2.23 -1.59,4.07 -4.09,4.07 -4.74,0 -6.58,-7.21 -6.58,-7.67 0,-0.5 0.5,-0.5 0.61,-0.5 0.5,0 0.54,0.11 0.79,0.91 1.24,4.33 3.14,6.17 5.04,6.17 0.43,0 1.24,-0.05 1.24,-1.64 0,-1.2 -0.56,-2.64 -0.85,-3.39 -1.85,-4.94 -2.89,-8.02 -2.89,-10.45 0,-4.74 3.43,-5.99 6.14,-5.99 3.28,0 5.07,2.24 5.92,3.35 z"
         inkscape:connector-curvature="0"
         style="fill:#000000;stroke-width:0" /><path
         id="path13953"
         d="m 533.82,426.12 h 4.69 c 0.99,0 1.49,0 1.49,1 0,0.55 -0.5,0.55 -1.4,0.55 h -4.38 c 1.79,7.08 2.04,8.08 2.04,8.37 0,0.85 -0.59,1.35 -1.44,1.35 -0.15,0 -1.54,-0.05 -2,-1.8 l -1.93,-7.92 h -4.69 c -1,0 -1.5,0 -1.5,-0.94 0,-0.61 0.4,-0.61 1.4,-0.61 h 4.38 c -3.58,-14.14 -3.78,-14.98 -3.78,-15.89 0,-2.69 1.89,-4.58 4.58,-4.58 5.07,0 7.92,7.27 7.92,7.67 0,0.5 -0.39,0.5 -0.6,0.5 -0.45,0 -0.5,-0.15 -0.75,-0.7 -2.13,-5.17 -4.78,-6.37 -6.46,-6.37 -1.05,0 -1.55,0.65 -1.55,2.29 0,1.19 0.09,1.55 0.3,2.39 z"
         inkscape:connector-curvature="0"
         style="fill:#000000;stroke-width:0" /></g>  </g>
</svg>
