<?xml version="1.0" encoding="UTF-8" standalone="no"?>
<!-- Created with Inkscape (http://www.inkscape.org/) -->

<svg
   xmlns:ns0="http://www.iki.fi/pav/software/textext/"
   xmlns:dc="http://purl.org/dc/elements/1.1/"
   xmlns:cc="http://creativecommons.org/ns#"
   xmlns:rdf="http://www.w3.org/1999/02/22-rdf-syntax-ns#"
   xmlns:svg="http://www.w3.org/2000/svg"
   xmlns="http://www.w3.org/2000/svg"
   xmlns:sodipodi="http://sodipodi.sourceforge.net/DTD/sodipodi-0.dtd"
   xmlns:inkscape="http://www.inkscape.org/namespaces/inkscape"
   width="210mm"
   height="297mm"
   viewBox="0 0 210 297"
   version="1.1"
   id="svg8"
   sodipodi:docname="bode_armonicos_8khz.svg"
   inkscape:version="0.92.2 (5c3e80d, 2017-08-06)">
  <sodipodi:namedview
     id="base"
     pagecolor="#ffffff"
     bordercolor="#666666"
     borderopacity="1.0"
     inkscape:pageopacity="0.0"
     inkscape:pageshadow="2"
     inkscape:zoom="0.35"
     inkscape:cx="936.18169"
     inkscape:cy="1274.5979"
     inkscape:document-units="mm"
     inkscape:current-layer="svg8"
     showgrid="false"
     inkscape:window-width="1278"
     inkscape:window-height="1008"
     inkscape:window-x="1273"
     inkscape:window-y="0"
     inkscape:window-maximized="0" />
  <defs
     id="defs2">
    <marker
       inkscape:stockid="ArrowAxisStart"
       style="overflow:visible"
       refY="0.0"
       refX="0.0"
       orient="auto"
       id="ArrowAxisStart">
      <path
         id="path5849"
         transform="scale(0.4) rotate(0) translate(8.818,0)"
         style="stroke-width:1.0;stroke:#000000;fill:#000000;fill-rule:evenodd"
         d="M 0.0,0.0 L 5.0,-5.0 L -12.5,0.0 L 5.0,5.0 L 0.0,0.0 z " />
    </marker>
    <marker
       inkscape:stockid="ArrowAxisEnd"
       style="overflow:visible"
       refY="0.0"
       refX="0.0"
       orient="auto"
       id="ArrowAxisEnd">
      <path
         id="path5852"
         transform="scale(0.4) rotate(180) translate(8.818,0)"
         style="stroke-width:1.0;stroke:#000000;fill:#000000;fill-rule:evenodd"
         d="M 0.0,0.0 L 5.0,-5.0 L -12.5,0.0 L 5.0,5.0 L 0.0,0.0 z " />
    </marker>
  </defs>
  <metadata
     id="metadata5">
    <rdf:RDF>
      <cc:Work
         rdf:about="">
        <dc:format>image/svg+xml</dc:format>
        <dc:type
           rdf:resource="http://purl.org/dc/dcmitype/StillImage" />
      </cc:Work>
    </rdf:RDF>
  </metadata>
  <g
     id="layer1"
     inkscape:groupmode="layer"
     inkscape:label="Layer 1" />
  <g
     transform="translate(-90.3371,-27.528761)"
     inkscape:label="PlotData"
     id="g4707" />
  <g
     id="g5328"
     inkscape:label="PlotData"
     transform="translate(-77.508163,-22.183371)">
    <g
       id="g5324"
       transform="matrix(1.8816678,0,0,1.8816678,28.175446,102.52393)"
       inkscape:label="Plot">
      <g
         id="g5280"
         inkscape:label="Ticks">
        <path
           id="path5055"
           inkscape:label="none"
           style="fill:none;stroke:#b2b2b2;stroke-width:0.1;stroke-linecap:round;stroke-linejoin:round;stroke-dasharray:none"
           d="M 46.0206,25 V -25"
           inkscape:connector-curvature="0" />
        <path
           id="path5057"
           inkscape:label="none"
           style="fill:none;stroke:#b2b2b2;stroke-width:0.1;stroke-linecap:round;stroke-linejoin:round;stroke-dasharray:none"
           d="M 49.542425,25 V -25"
           inkscape:connector-curvature="0" />
        <path
           id="path5059"
           inkscape:label="none"
           style="fill:none;stroke:#b2b2b2;stroke-width:0.1;stroke-linecap:round;stroke-linejoin:round;stroke-dasharray:none"
           d="M 52.0412,25 V -25"
           inkscape:connector-curvature="0" />
        <path
           id="path5061"
           inkscape:label="none"
           style="fill:none;stroke:#b2b2b2;stroke-width:0.1;stroke-linecap:round;stroke-linejoin:round;stroke-dasharray:none"
           d="M 53.9794,25 V -25"
           inkscape:connector-curvature="0" />
        <path
           id="path5063"
           inkscape:label="none"
           style="fill:none;stroke:#b2b2b2;stroke-width:0.1;stroke-linecap:round;stroke-linejoin:round;stroke-dasharray:none"
           d="M 55.563025,25 V -25"
           inkscape:connector-curvature="0" />
        <path
           id="path5065"
           inkscape:label="none"
           style="fill:none;stroke:#b2b2b2;stroke-width:0.1;stroke-linecap:round;stroke-linejoin:round;stroke-dasharray:none"
           d="M 56.901961,25 V -25"
           inkscape:connector-curvature="0" />
        <path
           id="path5067"
           inkscape:label="none"
           style="fill:none;stroke:#b2b2b2;stroke-width:0.1;stroke-linecap:round;stroke-linejoin:round;stroke-dasharray:none"
           d="M 58.0618,25 V -25"
           inkscape:connector-curvature="0" />
        <path
           id="path5069"
           inkscape:label="none"
           style="fill:none;stroke:#b2b2b2;stroke-width:0.1;stroke-linecap:round;stroke-linejoin:round;stroke-dasharray:none"
           d="M 59.08485,25 V -25"
           inkscape:connector-curvature="0" />
        <g
           transform="matrix(0.295858,0,0,-0.295858,-25.741867,144.88018)"
           ns0:preamble="C:\\Program Files\\Inkscape\\share\\extensions/textextLib/basicLatexPackages.tex"
           ns0:text=" $10^{2}$"
           word-spacing="normal"
           letter-spacing="normal"
           font-size-adjust="none"
           font-stretch="normal"
           font-weight="normal"
           font-variant="normal"
           font-style="normal"
           stroke-miterlimit="10.433"
           xml:space="preserve"
           id="content"
           style="font-style:normal;font-variant:normal;font-weight:normal;font-stretch:normal;letter-spacing:normal;word-spacing:normal;text-anchor:start;fill:none;fill-opacity:1;fill-rule:evenodd;stroke:#000000;stroke-linecap:butt;stroke-linejoin:miter;stroke-miterlimit:10.43299961;stroke-dasharray:none;stroke-dashoffset:0;stroke-opacity:1"><path
             id="path5071"
             style="fill:#000000;stroke-width:0"
             d="m 226.36,483.59 v 0.01 0.01 0.02 0.01 0 0.01 0.01 0.01 0.01 0.01 0.01 0.01 0 0.01 0.01 0 0.01 0.01 0.01 l -0.01,0.01 v 0.01 0.01 l -0.01,0.01 v 0 0.01 l -0.01,0.01 h -0.01 v 0.01 h -0.01 l -0.01,0.01 h -0.01 v 0 h -0.01 v 0 h -0.01 v 0 l -0.01,0.01 h -0.01 v 0 h -0.01 -0.01 v 0 h -0.01 -0.01 -0.01 -0.01 -0.01 -0.01 -0.01 -0.01 -0.01 -0.01 c -0.61,-0.64 -1.49,-0.64 -1.81,-0.64 v -0.3 c 0.2,0 0.79,0 1.31,0.26 v -5.15 c 0,-0.36 -0.03,-0.48 -0.93,-0.48 h -0.32 v -0.31 c 0.35,0.04 1.22,0.04 1.61,0.04 0.4,0 1.27,0 1.62,-0.04 v 0.31 h -0.32 c -0.9,0 -0.93,0.11 -0.93,0.48 z"
             inkscape:connector-curvature="0" /><path
             id="path5073"
             style="fill:#000000;stroke-width:0"
             d="m 233,480.41 v 0.15 0.15 l -0.01,0.15 v 0.15 l -0.01,0.15 -0.01,0.14 -0.02,0.15 -0.02,0.15 -0.02,0.14 -0.03,0.15 -0.03,0.14 -0.04,0.15 -0.04,0.14 -0.05,0.14 -0.06,0.14 -0.03,0.07 -0.03,0.07 c -0.46,0.95 -1.28,1.11 -1.69,1.11 -0.6,0 -1.33,-0.26 -1.74,-1.18 -0.32,-0.69 -0.37,-1.46 -0.37,-2.26 0,-0.74 0.04,-1.64 0.45,-2.39 0.43,-0.81 1.16,-1 1.65,-1 v 0.21 c -0.39,0 -0.98,0.25 -1.16,1.21 -0.11,0.59 -0.11,1.51 -0.11,2.09 0,0.64 0,1.29 0.08,1.83 0.19,1.18 0.94,1.27 1.19,1.27 0.33,0 0.98,-0.18 1.17,-1.16 0.1,-0.56 0.1,-1.31 0.1,-1.94 0,-0.74 0,-1.42 -0.11,-2.05 -0.15,-0.95 -0.71,-1.25 -1.16,-1.25 v 0 -0.21 c 0.53,0 1.29,0.21 1.73,1.15 0.32,0.68 0.37,1.46 0.37,2.24 z"
             inkscape:connector-curvature="0" /><path
             id="path5075"
             style="fill:#000000;stroke-width:0"
             d="m 236.93,482.12 h -0.24 c -0.02,-0.16 -0.09,-0.57 -0.18,-0.64 -0.06,-0.04 -0.6,-0.04 -0.7,-0.04 h -1.28 c 0.73,0.65 0.98,0.84 1.4,1.17 0.51,0.41 1,0.84 1,1.5 0,0.84 -0.75,1.36 -1.64,1.36 -0.87,0 -1.45,-0.61 -1.45,-1.25 0,-0.35 0.3,-0.39 0.37,-0.39 0.16,0 0.37,0.12 0.37,0.37 0,0.13 -0.05,0.37 -0.42,0.37 0.22,0.5 0.7,0.65 1.02,0.65 0.7,0 1.07,-0.54 1.07,-1.11 0,-0.6 -0.44,-1.08 -0.66,-1.33 l -1.69,-1.66 c -0.06,-0.06 -0.06,-0.07 -0.06,-0.27 h 2.88 z"
             inkscape:connector-curvature="0" /></g>        <path
           id="path5078"
           inkscape:label="none"
           style="fill:none;stroke:#b2b2b2;stroke-width:0.2;stroke-linecap:round;stroke-linejoin:round;stroke-dasharray:none"
           d="M 60,25 V -25"
           inkscape:connector-curvature="0" />
        <path
           id="path5080"
           inkscape:label="none"
           style="fill:none;stroke:#b2b2b2;stroke-width:0.1;stroke-linecap:round;stroke-linejoin:round;stroke-dasharray:none"
           d="M 66.0206,25 V -25"
           inkscape:connector-curvature="0" />
        <path
           id="path5082"
           inkscape:label="none"
           style="fill:none;stroke:#b2b2b2;stroke-width:0.1;stroke-linecap:round;stroke-linejoin:round;stroke-dasharray:none"
           d="M 69.542425,25 V -25"
           inkscape:connector-curvature="0" />
        <path
           id="path5084"
           inkscape:label="none"
           style="fill:none;stroke:#b2b2b2;stroke-width:0.1;stroke-linecap:round;stroke-linejoin:round;stroke-dasharray:none"
           d="M 72.0412,25 V -25"
           inkscape:connector-curvature="0" />
        <path
           id="path5086"
           inkscape:label="none"
           style="fill:none;stroke:#b2b2b2;stroke-width:0.1;stroke-linecap:round;stroke-linejoin:round;stroke-dasharray:none"
           d="M 73.9794,25 V -25"
           inkscape:connector-curvature="0" />
        <path
           id="path5088"
           inkscape:label="none"
           style="fill:none;stroke:#b2b2b2;stroke-width:0.1;stroke-linecap:round;stroke-linejoin:round;stroke-dasharray:none"
           d="M 75.563025,25 V -25"
           inkscape:connector-curvature="0" />
        <path
           id="path5090"
           inkscape:label="none"
           style="fill:none;stroke:#b2b2b2;stroke-width:0.1;stroke-linecap:round;stroke-linejoin:round;stroke-dasharray:none"
           d="M 76.901961,25 V -25"
           inkscape:connector-curvature="0" />
        <path
           id="path5092"
           inkscape:label="none"
           style="fill:none;stroke:#b2b2b2;stroke-width:0.1;stroke-linecap:round;stroke-linejoin:round;stroke-dasharray:none"
           d="M 78.0618,25 V -25"
           inkscape:connector-curvature="0" />
        <path
           id="path5094"
           inkscape:label="none"
           style="fill:none;stroke:#b2b2b2;stroke-width:0.1;stroke-linecap:round;stroke-linejoin:round;stroke-dasharray:none"
           d="M 79.08485,25 V -25"
           inkscape:connector-curvature="0" />
        <path
           id="path5096"
           inkscape:label="none"
           style="fill:none;stroke:#4c4c4c;stroke-width:0.2857143;stroke-linecap:round;stroke-linejoin:round;stroke-dasharray:none"
           d="m 60,-0.625 v 1.25"
           inkscape:connector-curvature="0" />
        <g
           transform="matrix(0.295858,0,0,-0.295858,-10.740387,144.88018)"
           ns0:preamble="C:\\Program Files\\Inkscape\\share\\extensions/textextLib/basicLatexPackages.tex"
           ns0:text=" $10^{3}$"
           word-spacing="normal"
           letter-spacing="normal"
           font-size-adjust="none"
           font-stretch="normal"
           font-weight="normal"
           font-variant="normal"
           font-style="normal"
           stroke-miterlimit="10.433"
           xml:space="preserve"
           id="g5104"
           style="font-style:normal;font-variant:normal;font-weight:normal;font-stretch:normal;letter-spacing:normal;word-spacing:normal;text-anchor:start;fill:none;fill-opacity:1;fill-rule:evenodd;stroke:#000000;stroke-linecap:butt;stroke-linejoin:miter;stroke-miterlimit:10.43299961;stroke-dasharray:none;stroke-dashoffset:0;stroke-opacity:1"><path
             id="path5098"
             style="fill:#000000;stroke-width:0"
             d="m 226.36,483.59 v 0.01 0.01 0.02 0.01 0 0.01 0.01 0.01 0.01 0.01 0.01 0.01 0 0.01 0.01 0 0.01 0.01 0.01 l -0.01,0.01 v 0.01 0.01 l -0.01,0.01 v 0 0.01 l -0.01,0.01 h -0.01 v 0.01 h -0.01 l -0.01,0.01 h -0.01 v 0 h -0.01 v 0 h -0.01 v 0 l -0.01,0.01 h -0.01 v 0 h -0.01 -0.01 v 0 h -0.01 -0.01 -0.01 -0.01 -0.01 -0.01 -0.01 -0.01 -0.01 -0.01 c -0.61,-0.64 -1.49,-0.64 -1.81,-0.64 v -0.3 c 0.2,0 0.79,0 1.31,0.26 v -5.15 c 0,-0.36 -0.03,-0.48 -0.93,-0.48 h -0.32 v -0.31 c 0.35,0.04 1.22,0.04 1.61,0.04 0.4,0 1.27,0 1.62,-0.04 v 0.31 h -0.32 c -0.9,0 -0.93,0.11 -0.93,0.48 z"
             inkscape:connector-curvature="0" /><path
             id="path5100"
             style="fill:#000000;stroke-width:0"
             d="m 233,480.41 v 0.15 0.15 l -0.01,0.15 v 0.15 l -0.01,0.15 -0.01,0.14 -0.02,0.15 -0.02,0.15 -0.02,0.14 -0.03,0.15 -0.03,0.14 -0.04,0.15 -0.04,0.14 -0.05,0.14 -0.06,0.14 -0.03,0.07 -0.03,0.07 c -0.46,0.95 -1.28,1.11 -1.69,1.11 -0.6,0 -1.33,-0.26 -1.74,-1.18 -0.32,-0.69 -0.37,-1.46 -0.37,-2.26 0,-0.74 0.04,-1.64 0.45,-2.39 0.43,-0.81 1.16,-1 1.65,-1 v 0.21 c -0.39,0 -0.98,0.25 -1.16,1.21 -0.11,0.59 -0.11,1.51 -0.11,2.09 0,0.64 0,1.29 0.08,1.83 0.19,1.18 0.94,1.27 1.19,1.27 0.33,0 0.98,-0.18 1.17,-1.16 0.1,-0.56 0.1,-1.31 0.1,-1.94 0,-0.74 0,-1.42 -0.11,-2.05 -0.15,-0.95 -0.71,-1.25 -1.16,-1.25 v 0 -0.21 c 0.53,0 1.29,0.21 1.73,1.15 0.32,0.68 0.37,1.46 0.37,2.24 z"
             inkscape:connector-curvature="0" /><path
             id="path5102"
             style="fill:#000000;stroke-width:0"
             d="m 235.3,483.17 h 0.05 0.05 l 0.05,-0.01 h 0.05 l 0.05,-0.01 0.04,-0.02 0.05,-0.01 0.04,-0.02 0.04,-0.02 0.04,-0.02 0.04,-0.02 0.04,-0.02 0.04,-0.03 0.03,-0.03 0.03,-0.03 0.04,-0.04 0.03,-0.03 0.03,-0.04 0.02,-0.04 0.03,-0.04 0.02,-0.05 0.02,-0.05 0.02,-0.05 0.02,-0.05 0.02,-0.05 0.01,-0.06 0.01,-0.05 0.01,-0.06 0.01,-0.07 0.01,-0.06 v -0.07 -0.07 c 0,-0.86 -0.5,-1.12 -0.91,-1.12 -0.28,0 -0.89,0.08 -1.19,0.49 0.33,0.01 0.41,0.25 0.41,0.39 0,0.22 -0.17,0.38 -0.39,0.38 -0.19,0 -0.39,-0.11 -0.39,-0.4 0,-0.65 0.73,-1.08 1.58,-1.08 0.97,0 1.64,0.65 1.64,1.34 0,0.55 -0.45,1.09 -1.22,1.25 0.74,0.26 1,0.78 1,1.21 0,0.55 -0.63,0.96 -1.41,0.96 -0.78,0 -1.37,-0.38 -1.37,-0.93 0,-0.24 0.15,-0.37 0.36,-0.37 0.22,0 0.36,0.16 0.36,0.35 0,0.2 -0.14,0.35 -0.36,0.36 0.25,0.31 0.73,0.39 0.99,0.39 0.31,0 0.75,-0.16 0.75,-0.76 0,-0.29 -0.09,-0.61 -0.28,-0.83 -0.23,-0.26 -0.42,-0.28 -0.77,-0.3 -0.18,-0.01 -0.19,-0.01 -0.23,-0.02 -0.01,0 -0.07,-0.01 -0.07,-0.09 0,-0.1 0.07,-0.1 0.19,-0.1 z"
             inkscape:connector-curvature="0" /></g>        <path
           id="path5106"
           inkscape:label="none"
           style="fill:none;stroke:#b2b2b2;stroke-width:0.2;stroke-linecap:round;stroke-linejoin:round;stroke-dasharray:none"
           d="M 80,25 V -25"
           inkscape:connector-curvature="0" />
        <path
           id="path5108"
           inkscape:label="none"
           style="fill:none;stroke:#b2b2b2;stroke-width:0.1;stroke-linecap:round;stroke-linejoin:round;stroke-dasharray:none"
           d="M 86.0206,25 V -25"
           inkscape:connector-curvature="0" />
        <path
           id="path5110"
           inkscape:label="none"
           style="fill:none;stroke:#b2b2b2;stroke-width:0.1;stroke-linecap:round;stroke-linejoin:round;stroke-dasharray:none"
           d="M 89.542425,25 V -25"
           inkscape:connector-curvature="0" />
        <path
           id="path5112"
           inkscape:label="none"
           style="fill:none;stroke:#b2b2b2;stroke-width:0.1;stroke-linecap:round;stroke-linejoin:round;stroke-dasharray:none"
           d="M 92.0412,25 V -25"
           inkscape:connector-curvature="0" />
        <path
           id="path5114"
           inkscape:label="none"
           style="fill:none;stroke:#b2b2b2;stroke-width:0.1;stroke-linecap:round;stroke-linejoin:round;stroke-dasharray:none"
           d="M 93.9794,25 V -25"
           inkscape:connector-curvature="0" />
        <path
           id="path5116"
           inkscape:label="none"
           style="fill:none;stroke:#b2b2b2;stroke-width:0.1;stroke-linecap:round;stroke-linejoin:round;stroke-dasharray:none"
           d="M 95.563025,25 V -25"
           inkscape:connector-curvature="0" />
        <path
           id="path5118"
           inkscape:label="none"
           style="fill:none;stroke:#b2b2b2;stroke-width:0.1;stroke-linecap:round;stroke-linejoin:round;stroke-dasharray:none"
           d="M 96.901961,25 V -25"
           inkscape:connector-curvature="0" />
        <path
           id="path5120"
           inkscape:label="none"
           style="fill:none;stroke:#b2b2b2;stroke-width:0.1;stroke-linecap:round;stroke-linejoin:round;stroke-dasharray:none"
           d="M 98.0618,25 V -25"
           inkscape:connector-curvature="0" />
        <path
           id="path5122"
           inkscape:label="none"
           style="fill:none;stroke:#b2b2b2;stroke-width:0.1;stroke-linecap:round;stroke-linejoin:round;stroke-dasharray:none"
           d="M 99.08485,25 V -25"
           inkscape:connector-curvature="0" />
        <path
           id="path5124"
           inkscape:label="none"
           style="fill:none;stroke:#4c4c4c;stroke-width:0.2857143;stroke-linecap:round;stroke-linejoin:round;stroke-dasharray:none"
           d="m 80,-0.625 v 1.25"
           inkscape:connector-curvature="0" />
        <g
           transform="matrix(0.295858,0,0,-0.295858,9.230027,144.90089)"
           ns0:preamble="C:\\Program Files\\Inkscape\\share\\extensions/textextLib/basicLatexPackages.tex"
           ns0:text=" $10^{4}$"
           word-spacing="normal"
           letter-spacing="normal"
           font-size-adjust="none"
           font-stretch="normal"
           font-weight="normal"
           font-variant="normal"
           font-style="normal"
           stroke-miterlimit="10.433"
           xml:space="preserve"
           id="g5132"
           style="font-style:normal;font-variant:normal;font-weight:normal;font-stretch:normal;letter-spacing:normal;word-spacing:normal;text-anchor:start;fill:none;fill-opacity:1;fill-rule:evenodd;stroke:#000000;stroke-linecap:butt;stroke-linejoin:miter;stroke-miterlimit:10.43299961;stroke-dasharray:none;stroke-dashoffset:0;stroke-opacity:1"><path
             id="path5126"
             style="fill:#000000;stroke-width:0"
             d="m 226.36,483.59 v 0.01 0.01 0.02 0.01 0 0.01 0.01 0.01 0.01 0.01 0.01 0.01 0 0.01 0.01 0 0.01 0.01 0.01 l -0.01,0.01 v 0.01 0.01 l -0.01,0.01 v 0 0.01 l -0.01,0.01 h -0.01 v 0.01 h -0.01 l -0.01,0.01 h -0.01 v 0 h -0.01 v 0 h -0.01 v 0 l -0.01,0.01 h -0.01 v 0 h -0.01 -0.01 v 0 h -0.01 -0.01 -0.01 -0.01 -0.01 -0.01 -0.01 -0.01 -0.01 -0.01 c -0.61,-0.64 -1.49,-0.64 -1.81,-0.64 v -0.3 c 0.2,0 0.79,0 1.31,0.26 v -5.15 c 0,-0.36 -0.03,-0.48 -0.93,-0.48 h -0.32 v -0.31 c 0.35,0.04 1.22,0.04 1.61,0.04 0.4,0 1.27,0 1.62,-0.04 v 0.31 h -0.32 c -0.9,0 -0.93,0.11 -0.93,0.48 z"
             inkscape:connector-curvature="0" /><path
             id="path5128"
             style="fill:#000000;stroke-width:0"
             d="m 233,480.41 v 0.15 0.15 l -0.01,0.15 v 0.15 l -0.01,0.15 -0.01,0.14 -0.02,0.15 -0.02,0.15 -0.02,0.14 -0.03,0.15 -0.03,0.14 -0.04,0.15 -0.04,0.14 -0.05,0.14 -0.06,0.14 -0.03,0.07 -0.03,0.07 c -0.46,0.95 -1.28,1.11 -1.69,1.11 -0.6,0 -1.33,-0.26 -1.74,-1.18 -0.32,-0.69 -0.37,-1.46 -0.37,-2.26 0,-0.74 0.04,-1.64 0.45,-2.39 0.43,-0.81 1.16,-1 1.65,-1 v 0.21 c -0.39,0 -0.98,0.25 -1.16,1.21 -0.11,0.59 -0.11,1.51 -0.11,2.09 0,0.64 0,1.29 0.08,1.83 0.19,1.18 0.94,1.27 1.19,1.27 0.33,0 0.98,-0.18 1.17,-1.16 0.1,-0.56 0.1,-1.31 0.1,-1.94 0,-0.74 0,-1.42 -0.11,-2.05 -0.15,-0.95 -0.71,-1.25 -1.16,-1.25 v 0 -0.21 c 0.53,0 1.29,0.21 1.73,1.15 0.32,0.68 0.37,1.46 0.37,2.24 z"
             inkscape:connector-curvature="0" /><path
             id="path5130"
             style="fill:#000000;stroke-width:0"
             d="m 237.09,481.99 v 0.25 h -0.77 v 3.1 c 0,0.15 0,0.2 -0.16,0.2 -0.08,0 -0.11,0 -0.18,-0.1 l -2.31,-3.2 v -0.25 h 2.05 l 0.05,0.25 h -1.84 l 1.84,2.55 v -2.55 l -0.05,-0.25 v -0.57 c 0,-0.24 0,-0.32 -0.56,-0.32 h -0.19 v -0.25 c 0.35,0.01 0.79,0.03 1.05,0.03 0.26,0 0.7,-0.02 1.05,-0.03 v 0.25 h -0.19 c -0.56,0 -0.56,0.08 -0.56,0.32 v 0.57 z"
             inkscape:connector-curvature="0" /></g>        <path
           id="path5134"
           inkscape:label="none"
           style="fill:none;stroke:#b2b2b2;stroke-width:0.2;stroke-linecap:round;stroke-linejoin:round;stroke-dasharray:none"
           d="M 100,25 V -25"
           inkscape:connector-curvature="0" />
        <path
           id="path5136"
           inkscape:label="none"
           style="fill:none;stroke:#b2b2b2;stroke-width:0.1;stroke-linecap:round;stroke-linejoin:round;stroke-dasharray:none"
           d="M 106.0206,25 V -25"
           inkscape:connector-curvature="0" />
        <path
           id="path5138"
           inkscape:label="none"
           style="fill:none;stroke:#b2b2b2;stroke-width:0.1;stroke-linecap:round;stroke-linejoin:round;stroke-dasharray:none"
           d="M 109.54243,25 V -25"
           inkscape:connector-curvature="0" />
        <path
           id="path5140"
           inkscape:label="none"
           style="fill:none;stroke:#b2b2b2;stroke-width:0.1;stroke-linecap:round;stroke-linejoin:round;stroke-dasharray:none"
           d="M 112.0412,25 V -25"
           inkscape:connector-curvature="0" />
        <path
           id="path5142"
           inkscape:label="none"
           style="fill:none;stroke:#b2b2b2;stroke-width:0.1;stroke-linecap:round;stroke-linejoin:round;stroke-dasharray:none"
           d="M 113.9794,25 V -25"
           inkscape:connector-curvature="0" />
        <path
           id="path5144"
           inkscape:label="none"
           style="fill:none;stroke:#b2b2b2;stroke-width:0.1;stroke-linecap:round;stroke-linejoin:round;stroke-dasharray:none"
           d="M 115.56303,25 V -25"
           inkscape:connector-curvature="0" />
        <path
           id="path5146"
           inkscape:label="none"
           style="fill:none;stroke:#b2b2b2;stroke-width:0.1;stroke-linecap:round;stroke-linejoin:round;stroke-dasharray:none"
           d="M 116.90196,25 V -25"
           inkscape:connector-curvature="0" />
        <path
           id="path5148"
           inkscape:label="none"
           style="fill:none;stroke:#b2b2b2;stroke-width:0.1;stroke-linecap:round;stroke-linejoin:round;stroke-dasharray:none"
           d="M 118.0618,25 V -25"
           inkscape:connector-curvature="0" />
        <path
           id="path5150"
           inkscape:label="none"
           style="fill:none;stroke:#b2b2b2;stroke-width:0.1;stroke-linecap:round;stroke-linejoin:round;stroke-dasharray:none"
           d="M 119.08485,25 V -25"
           inkscape:connector-curvature="0" />
        <path
           id="path5152"
           inkscape:label="none"
           style="fill:none;stroke:#4c4c4c;stroke-width:0.2857143;stroke-linecap:round;stroke-linejoin:round;stroke-dasharray:none"
           d="m 100,-0.625 v 1.25"
           inkscape:connector-curvature="0" />
        <g
           transform="matrix(0.295858,0,0,-0.295858,29.277364,144.88018)"
           ns0:preamble="C:\\Program Files\\Inkscape\\share\\extensions/textextLib/basicLatexPackages.tex"
           ns0:text=" $10^{5}$"
           word-spacing="normal"
           letter-spacing="normal"
           font-size-adjust="none"
           font-stretch="normal"
           font-weight="normal"
           font-variant="normal"
           font-style="normal"
           stroke-miterlimit="10.433"
           xml:space="preserve"
           id="g5160"
           style="font-style:normal;font-variant:normal;font-weight:normal;font-stretch:normal;letter-spacing:normal;word-spacing:normal;text-anchor:start;fill:none;fill-opacity:1;fill-rule:evenodd;stroke:#000000;stroke-linecap:butt;stroke-linejoin:miter;stroke-miterlimit:10.43299961;stroke-dasharray:none;stroke-dashoffset:0;stroke-opacity:1"><path
             id="path5154"
             style="fill:#000000;stroke-width:0"
             d="m 226.36,483.59 v 0.01 0.01 0.02 0.01 0 0.01 0.01 0.01 0.01 0.01 0.01 0.01 0 0.01 0.01 0 0.01 0.01 0.01 l -0.01,0.01 v 0.01 0.01 l -0.01,0.01 v 0 0.01 l -0.01,0.01 h -0.01 v 0.01 h -0.01 l -0.01,0.01 h -0.01 v 0 h -0.01 v 0 h -0.01 v 0 l -0.01,0.01 h -0.01 v 0 h -0.01 -0.01 v 0 h -0.01 -0.01 -0.01 -0.01 -0.01 -0.01 -0.01 -0.01 -0.01 -0.01 c -0.61,-0.64 -1.49,-0.64 -1.81,-0.64 v -0.3 c 0.2,0 0.79,0 1.31,0.26 v -5.15 c 0,-0.36 -0.03,-0.48 -0.93,-0.48 h -0.32 v -0.31 c 0.35,0.04 1.22,0.04 1.61,0.04 0.4,0 1.27,0 1.62,-0.04 v 0.31 h -0.32 c -0.9,0 -0.93,0.11 -0.93,0.48 z"
             inkscape:connector-curvature="0" /><path
             id="path5156"
             style="fill:#000000;stroke-width:0"
             d="m 233,480.41 v 0.15 0.15 l -0.01,0.15 v 0.15 l -0.01,0.15 -0.01,0.14 -0.02,0.15 -0.02,0.15 -0.02,0.14 -0.03,0.15 -0.03,0.14 -0.04,0.15 -0.04,0.14 -0.05,0.14 -0.06,0.14 -0.03,0.07 -0.03,0.07 c -0.46,0.95 -1.28,1.11 -1.69,1.11 -0.6,0 -1.33,-0.26 -1.74,-1.18 -0.32,-0.69 -0.37,-1.46 -0.37,-2.26 0,-0.74 0.04,-1.64 0.45,-2.39 0.43,-0.81 1.16,-1 1.65,-1 v 0.21 c -0.39,0 -0.98,0.25 -1.16,1.21 -0.11,0.59 -0.11,1.51 -0.11,2.09 0,0.64 0,1.29 0.08,1.83 0.19,1.18 0.94,1.27 1.19,1.27 0.33,0 0.98,-0.18 1.17,-1.16 0.1,-0.56 0.1,-1.31 0.1,-1.94 0,-0.74 0,-1.42 -0.11,-2.05 -0.15,-0.95 -0.71,-1.25 -1.16,-1.25 v 0 -0.21 c 0.53,0 1.29,0.21 1.73,1.15 0.32,0.68 0.37,1.46 0.37,2.24 z"
             inkscape:connector-curvature="0" /><path
             id="path5158"
             style="fill:#000000;stroke-width:0"
             d="m 234.48,484.73 0.03,-0.01 h 0.03 l 0.04,-0.01 0.03,-0.01 h 0.03 l 0.02,-0.01 0.03,-0.01 h 0.03 l 0.03,-0.01 h 0.02 0.03 l 0.02,-0.01 h 0.02 0.03 l 0.02,-0.01 h 0.02 0.02 0.02 0.02 0.02 l 0.01,-0.01 h 0.02 0.02 0.01 0.02 0.01 0.02 0.01 0.01 0.01 0.02 0.01 c 0.92,0 1.47,0.63 1.47,0.73 0,0.08 -0.05,0.1 -0.09,0.1 -0.01,0 -0.03,0 -0.05,-0.02 -0.17,-0.06 -0.54,-0.2 -1.06,-0.2 -0.2,0 -0.57,0.01 -1.02,0.18 -0.07,0.04 -0.09,0.04 -0.09,0.04 -0.09,0 -0.09,-0.08 -0.09,-0.19 v -2.05 c 0,-0.12 0,-0.2 0.11,-0.2 0.06,0 0.07,0.01 0.14,0.1 0.3,0.38 0.73,0.43 0.97,0.43 0.42,0 0.61,-0.33 0.64,-0.39 0.13,-0.23 0.17,-0.49 0.17,-0.89 0,-0.21 0,-0.62 -0.21,-0.93 -0.17,-0.25 -0.47,-0.42 -0.82,-0.42 -0.45,0 -0.92,0.25 -1.09,0.71 0.26,-0.02 0.4,0.16 0.4,0.34 0,0.3 -0.26,0.36 -0.36,0.36 -0.01,0 -0.34,0 -0.34,-0.38 0,-0.62 0.57,-1.25 1.41,-1.25 0.89,0 1.68,0.66 1.68,1.54 0,0.78 -0.61,1.51 -1.47,1.51 -0.31,0 -0.67,-0.08 -0.98,-0.34 z"
             inkscape:connector-curvature="0" /></g>        <path
           id="path5162"
           inkscape:label="none"
           style="fill:none;stroke:#b2b2b2;stroke-width:0.2;stroke-linecap:round;stroke-linejoin:round;stroke-dasharray:none"
           d="M 120,25 V -25"
           inkscape:connector-curvature="0" />
        <path
           id="path5164"
           inkscape:label="none"
           style="fill:none;stroke:#4c4c4c;stroke-width:0.2857143;stroke-linecap:round;stroke-linejoin:round;stroke-dasharray:none"
           d="m 120,-0.625 v 1.25"
           inkscape:connector-curvature="0" />
        <g
           transform="matrix(0.295858,0,0,-0.295858,49.259613,144.88018)"
           ns0:preamble="C:\\Program Files\\Inkscape\\share\\extensions/textextLib/basicLatexPackages.tex"
           ns0:text=" $10^{6}$"
           word-spacing="normal"
           letter-spacing="normal"
           font-size-adjust="none"
           font-stretch="normal"
           font-weight="normal"
           font-variant="normal"
           font-style="normal"
           stroke-miterlimit="10.433"
           xml:space="preserve"
           id="g5172"
           style="font-style:normal;font-variant:normal;font-weight:normal;font-stretch:normal;letter-spacing:normal;word-spacing:normal;text-anchor:start;fill:none;fill-opacity:1;fill-rule:evenodd;stroke:#000000;stroke-linecap:butt;stroke-linejoin:miter;stroke-miterlimit:10.43299961;stroke-dasharray:none;stroke-dashoffset:0;stroke-opacity:1"><path
             id="path5166"
             style="fill:#000000;stroke-width:0"
             d="m 226.36,483.59 v 0.01 0.01 0.02 0.01 0 0.01 0.01 0.01 0.01 0.01 0.01 0.01 0 0.01 0.01 0 0.01 0.01 0.01 l -0.01,0.01 v 0.01 0.01 l -0.01,0.01 v 0 0.01 l -0.01,0.01 h -0.01 v 0.01 h -0.01 l -0.01,0.01 h -0.01 v 0 h -0.01 v 0 h -0.01 v 0 l -0.01,0.01 h -0.01 v 0 h -0.01 -0.01 v 0 h -0.01 -0.01 -0.01 -0.01 -0.01 -0.01 -0.01 -0.01 -0.01 -0.01 c -0.61,-0.64 -1.49,-0.64 -1.81,-0.64 v -0.3 c 0.2,0 0.79,0 1.31,0.26 v -5.15 c 0,-0.36 -0.03,-0.48 -0.93,-0.48 h -0.32 v -0.31 c 0.35,0.04 1.22,0.04 1.61,0.04 0.4,0 1.27,0 1.62,-0.04 v 0.31 h -0.32 c -0.9,0 -0.93,0.11 -0.93,0.48 z"
             inkscape:connector-curvature="0" /><path
             id="path5168"
             style="fill:#000000;stroke-width:0"
             d="m 233,480.41 v 0.15 0.15 l -0.01,0.15 v 0.15 l -0.01,0.15 -0.01,0.14 -0.02,0.15 -0.02,0.15 -0.02,0.14 -0.03,0.15 -0.03,0.14 -0.04,0.15 -0.04,0.14 -0.05,0.14 -0.06,0.14 -0.03,0.07 -0.03,0.07 c -0.46,0.95 -1.28,1.11 -1.69,1.11 -0.6,0 -1.33,-0.26 -1.74,-1.18 -0.32,-0.69 -0.37,-1.46 -0.37,-2.26 0,-0.74 0.04,-1.64 0.45,-2.39 0.43,-0.81 1.16,-1 1.65,-1 v 0.21 c -0.39,0 -0.98,0.25 -1.16,1.21 -0.11,0.59 -0.11,1.51 -0.11,2.09 0,0.64 0,1.29 0.08,1.83 0.19,1.18 0.94,1.27 1.19,1.27 0.33,0 0.98,-0.18 1.17,-1.16 0.1,-0.56 0.1,-1.31 0.1,-1.94 0,-0.74 0,-1.42 -0.11,-2.05 -0.15,-0.95 -0.71,-1.25 -1.16,-1.25 v 0 -0.21 c 0.53,0 1.29,0.21 1.73,1.15 0.32,0.68 0.37,1.46 0.37,2.24 z"
             inkscape:connector-curvature="0" /><path
             id="path5170"
             style="fill:#000000;stroke-width:0"
             d="m 234.44,483.13 v 0.1 l 0.01,0.11 v 0.1 l 0.01,0.1 v 0.1 l 0.01,0.1 0.02,0.1 0.01,0.09 0.02,0.1 0.02,0.09 0.03,0.09 0.03,0.09 0.01,0.04 0.02,0.05 0.02,0.04 0.02,0.04 0.02,0.04 0.02,0.04 0.02,0.04 0.03,0.04 c 0.24,0.38 0.61,0.64 1.06,0.64 0.21,0 0.49,-0.06 0.63,-0.25 -0.17,-0.01 -0.32,-0.13 -0.32,-0.33 0,-0.17 0.12,-0.33 0.33,-0.33 0.21,0 0.33,0.14 0.33,0.34 0,0.41 -0.29,0.77 -0.98,0.77 -1.01,0 -2.04,-0.92 -2.04,-2.42 0,-1.8 0.86,-2.34 1.63,-2.34 0.85,0 1.59,0.65 1.59,1.56 0,0.88 -0.71,1.54 -1.53,1.54 l -0.03,-0.2 c 0.32,0 0.54,-0.12 0.71,-0.38 0.17,-0.27 0.18,-0.56 0.18,-0.96 0,-0.4 0,-0.69 -0.19,-0.96 -0.17,-0.24 -0.39,-0.38 -0.73,-0.38 v 0 c -0.36,0 -0.63,0.21 -0.77,0.51 -0.11,0.21 -0.17,0.56 -0.17,0.98 0,0.67 0.41,1.19 0.97,1.19 l 0.03,0.2 c -0.56,0 -0.86,-0.37 -1.02,-0.68 z"
             inkscape:connector-curvature="0" /></g>        <g
           transform="matrix(0.295858,0,0,-0.295858,-28.711541,142.14054)"
           ns0:preamble="C:\\Program Files\\Inkscape\\share\\extensions/textextLib/basicLatexPackages.tex"
           ns0:text=" $0$"
           word-spacing="normal"
           letter-spacing="normal"
           font-size-adjust="none"
           font-stretch="normal"
           font-weight="normal"
           font-variant="normal"
           font-style="normal"
           stroke-miterlimit="10.433"
           xml:space="preserve"
           id="g5176"
           style="font-style:normal;font-variant:normal;font-weight:normal;font-stretch:normal;letter-spacing:normal;word-spacing:normal;text-anchor:start;fill:none;fill-opacity:1;fill-rule:evenodd;stroke:#000000;stroke-linecap:butt;stroke-linejoin:miter;stroke-miterlimit:10.43299961;stroke-dasharray:none;stroke-dashoffset:0;stroke-opacity:1"><path
             id="path5174"
             style="fill:#000000;stroke-width:0"
             d="m 228.02,480.41 v 0.15 0.15 l -0.01,0.15 v 0.15 l -0.01,0.15 -0.02,0.14 -0.01,0.15 -0.02,0.15 -0.02,0.14 -0.03,0.15 -0.03,0.14 -0.04,0.15 -0.04,0.14 -0.05,0.14 -0.06,0.14 -0.03,0.07 -0.03,0.07 c -0.46,0.95 -1.28,1.11 -1.69,1.11 -0.6,0 -1.33,-0.26 -1.74,-1.18 -0.32,-0.69 -0.37,-1.46 -0.37,-2.26 0,-0.74 0.04,-1.64 0.45,-2.39 0.43,-0.81 1.16,-1 1.64,-1 v 0.21 c -0.38,0 -0.97,0.25 -1.15,1.21 -0.11,0.59 -0.11,1.51 -0.11,2.09 0,0.64 0,1.29 0.08,1.83 0.19,1.18 0.94,1.27 1.18,1.27 0.33,0 0.99,-0.18 1.18,-1.16 0.1,-0.56 0.1,-1.31 0.1,-1.94 0,-0.74 0,-1.42 -0.11,-2.05 -0.15,-0.95 -0.72,-1.25 -1.17,-1.25 v 0 -0.21 c 0.54,0 1.3,0.21 1.74,1.15 0.32,0.68 0.37,1.46 0.37,2.24 z"
             inkscape:connector-curvature="0" /></g>        <path
           id="path5178"
           inkscape:label="none"
           style="fill:none;stroke:#b2b2b2;stroke-width:0.2;stroke-linecap:round;stroke-linejoin:round;stroke-dasharray:none"
           d="m 40,-5 h 80"
           inkscape:connector-curvature="0" />
        <path
           id="path5180"
           inkscape:label="none"
           style="fill:none;stroke:#4c4c4c;stroke-width:0.2857143;stroke-linecap:round;stroke-linejoin:round;stroke-dasharray:none"
           d="m 39.375,-5 h 1.25"
           inkscape:connector-curvature="0" />
        <g
           transform="matrix(0.295858,0,0,-0.295858,-28.744086,137.18788)"
           ns0:preamble="C:\\Program Files\\Inkscape\\share\\extensions/textextLib/basicLatexPackages.tex"
           ns0:text=" $4$"
           word-spacing="normal"
           letter-spacing="normal"
           font-size-adjust="none"
           font-stretch="normal"
           font-weight="normal"
           font-variant="normal"
           font-style="normal"
           stroke-miterlimit="10.433"
           xml:space="preserve"
           id="g5184"
           style="font-style:normal;font-variant:normal;font-weight:normal;font-stretch:normal;letter-spacing:normal;word-spacing:normal;text-anchor:start;fill:none;fill-opacity:1;fill-rule:evenodd;stroke:#000000;stroke-linecap:butt;stroke-linejoin:miter;stroke-miterlimit:10.43299961;stroke-dasharray:none;stroke-dashoffset:0;stroke-opacity:1"><path
             id="path5182"
             style="fill:#000000;stroke-width:0"
             d="m 226.36,478.87 v -0.86 c 0,-0.36 -0.02,-0.47 -0.75,-0.47 h -0.21 v -0.31 c 0.4,0.04 0.92,0.04 1.34,0.04 0.42,0 0.95,0 1.36,-0.04 v 0.31 h -0.21 c -0.74,0 -0.76,0.11 -0.76,0.47 v 0.86 h 1 v 0.31 h -1 v 4.52 c 0,0.2 0,0.26 -0.16,0.26 -0.09,0 -0.12,0 -0.2,-0.12 l -3.06,-4.66 h 0.28 l 2.43,3.71 v -3.71 h -2.43 -0.28 v -0.31 z"
             inkscape:connector-curvature="0" /></g>        <path
           id="path5186"
           inkscape:label="none"
           style="fill:none;stroke:#b2b2b2;stroke-width:0.2;stroke-linecap:round;stroke-linejoin:round;stroke-dasharray:none"
           d="m 40,-10 h 80"
           inkscape:connector-curvature="0" />
        <path
           id="path5188"
           inkscape:label="none"
           style="fill:none;stroke:#4c4c4c;stroke-width:0.2857143;stroke-linecap:round;stroke-linejoin:round;stroke-dasharray:none"
           d="m 39.375,-10 h 1.25"
           inkscape:connector-curvature="0" />
        <g
           transform="matrix(0.295858,0,0,-0.295858,-28.702665,132.14054)"
           ns0:preamble="C:\\Program Files\\Inkscape\\share\\extensions/textextLib/basicLatexPackages.tex"
           ns0:text=" $8$"
           word-spacing="normal"
           letter-spacing="normal"
           font-size-adjust="none"
           font-stretch="normal"
           font-weight="normal"
           font-variant="normal"
           font-style="normal"
           stroke-miterlimit="10.433"
           xml:space="preserve"
           id="g5192"
           style="font-style:normal;font-variant:normal;font-weight:normal;font-stretch:normal;letter-spacing:normal;word-spacing:normal;text-anchor:start;fill:none;fill-opacity:1;fill-rule:evenodd;stroke:#000000;stroke-linecap:butt;stroke-linejoin:miter;stroke-miterlimit:10.43299961;stroke-dasharray:none;stroke-dashoffset:0;stroke-opacity:1"><path
             id="path5190"
             style="fill:#000000;stroke-width:0"
             d="m 226.51,480.83 0.07,0.04 0.06,0.03 0.07,0.04 0.06,0.04 0.06,0.03 0.06,0.04 0.06,0.04 0.05,0.04 0.06,0.05 0.05,0.04 0.05,0.04 0.05,0.05 0.05,0.04 0.04,0.05 0.04,0.05 0.05,0.04 0.03,0.05 0.04,0.05 0.04,0.05 0.03,0.05 0.03,0.05 0.02,0.06 0.03,0.05 0.02,0.06 0.02,0.05 0.02,0.06 0.02,0.05 0.01,0.06 0.01,0.06 v 0.06 l 0.01,0.06 v 0.06 c 0,0.92 -0.89,1.48 -1.79,1.48 l -0.02,-0.25 c 0.73,0 1.37,-0.51 1.37,-1.23 0,-0.57 -0.39,-1.04 -0.99,-1.39 l -1.23,0.79 c -0.46,0.3 -0.5,0.64 -0.5,0.81 0,0.6 0.65,1.02 1.35,1.02 l 0.02,0.25 c -1,0 -1.81,-0.73 -1.81,-1.66 0,-0.18 0.02,-0.62 0.44,-1.09 0.11,-0.12 0.48,-0.37 0.73,-0.54 l 0.23,-0.15 1.22,-0.77 c 0.28,-0.19 0.75,-0.49 0.75,-1.09 0,-0.74 -0.75,-1.25 -1.56,-1.25 -0.86,0 -1.58,0.61 -1.58,1.43 0,0.58 0.32,1.22 1.17,1.68 v 0 l -0.23,0.15 c -0.58,-0.29 -1.44,-0.84 -1.44,-1.83 0,-1.05 1.02,-1.71 2.06,-1.71 1.13,0 2.08,0.82 2.08,1.88 0,0.36 -0.11,0.81 -0.49,1.23 -0.19,0.2 -0.35,0.3 -0.99,0.7 z"
             inkscape:connector-curvature="0" /></g>        <path
           id="path5194"
           inkscape:label="none"
           style="fill:none;stroke:#b2b2b2;stroke-width:0.2;stroke-linecap:round;stroke-linejoin:round;stroke-dasharray:none"
           d="m 40,-15 h 80"
           inkscape:connector-curvature="0" />
        <path
           id="path5196"
           inkscape:label="none"
           style="fill:none;stroke:#4c4c4c;stroke-width:0.2857143;stroke-linecap:round;stroke-linejoin:round;stroke-dasharray:none"
           d="m 39.375,-15 h 1.25"
           inkscape:connector-curvature="0" />
        <g
           transform="matrix(0.295858,0,0,-0.295858,-30.15237,127.1716)"
           ns0:preamble="C:\\Program Files\\Inkscape\\share\\extensions/textextLib/basicLatexPackages.tex"
           ns0:text=" $12$"
           word-spacing="normal"
           letter-spacing="normal"
           font-size-adjust="none"
           font-stretch="normal"
           font-weight="normal"
           font-variant="normal"
           font-style="normal"
           stroke-miterlimit="10.433"
           xml:space="preserve"
           id="g5202"
           style="font-style:normal;font-variant:normal;font-weight:normal;font-stretch:normal;letter-spacing:normal;word-spacing:normal;text-anchor:start;fill:none;fill-opacity:1;fill-rule:evenodd;stroke:#000000;stroke-linecap:butt;stroke-linejoin:miter;stroke-miterlimit:10.43299961;stroke-dasharray:none;stroke-dashoffset:0;stroke-opacity:1"><path
             id="path5198"
             style="fill:#000000;stroke-width:0"
             d="m 226.36,483.59 v 0.01 0.01 0.02 0.01 0 0.01 0.01 0.01 0.01 0.01 0.01 0.01 0 0.01 0.01 0 0.01 0.01 0.01 l -0.01,0.01 v 0.01 0.01 l -0.01,0.01 v 0 0.01 l -0.01,0.01 h -0.01 v 0.01 h -0.01 l -0.01,0.01 h -0.01 v 0 h -0.01 v 0 h -0.01 v 0 l -0.01,0.01 h -0.01 v 0 h -0.01 -0.01 v 0 h -0.01 -0.01 -0.01 -0.01 -0.01 -0.01 -0.01 -0.01 -0.01 -0.01 c -0.61,-0.64 -1.49,-0.64 -1.81,-0.64 v -0.3 c 0.2,0 0.79,0 1.31,0.26 v -5.15 c 0,-0.36 -0.03,-0.48 -0.93,-0.48 h -0.32 v -0.31 c 0.35,0.04 1.22,0.04 1.61,0.04 0.4,0 1.27,0 1.62,-0.04 v 0.31 h -0.32 c -0.9,0 -0.93,0.11 -0.93,0.48 z"
             inkscape:connector-curvature="0" /><path
             id="path5200"
             style="fill:#000000;stroke-width:0"
             d="m 229.68,478 1.06,1.02 c 1.55,1.37 2.15,1.91 2.15,2.9 0,1.14 -0.9,1.93 -2.11,1.93 -1.13,0 -1.87,-0.91 -1.87,-1.8 0,-0.55 0.5,-0.55 0.53,-0.55 0.17,0 0.52,0.12 0.52,0.52 0,0.26 -0.18,0.52 -0.53,0.52 -0.08,0 -0.1,0 -0.13,-0.01 0.23,0.64 0.77,1.01 1.35,1.01 0.9,0 1.33,-0.8 1.33,-1.62 0,-0.79 -0.49,-1.58 -1.04,-2.19 l -1.92,-2.13 c -0.11,-0.11 -0.11,-0.13 -0.11,-0.37 h 3.7 l 0.28,1.73 h -0.25 c -0.05,-0.29 -0.12,-0.73 -0.22,-0.88 C 232.35,478 231.69,478 231.48,478 Z"
             inkscape:connector-curvature="0" /></g>        <path
           id="path5204"
           inkscape:label="none"
           style="fill:none;stroke:#b2b2b2;stroke-width:0.2;stroke-linecap:round;stroke-linejoin:round;stroke-dasharray:none"
           d="m 40,-20 h 80"
           inkscape:connector-curvature="0" />
        <path
           id="path5206"
           inkscape:label="none"
           style="fill:none;stroke:#4c4c4c;stroke-width:0.2857143;stroke-linecap:round;stroke-linejoin:round;stroke-dasharray:none"
           d="m 39.375,-20 h 1.25"
           inkscape:connector-curvature="0" />
        <g
           transform="matrix(0.295858,0,0,-0.295858,-30.176038,122.14054)"
           ns0:preamble="C:\\Program Files\\Inkscape\\share\\extensions/textextLib/basicLatexPackages.tex"
           ns0:text=" $16$"
           word-spacing="normal"
           letter-spacing="normal"
           font-size-adjust="none"
           font-stretch="normal"
           font-weight="normal"
           font-variant="normal"
           font-style="normal"
           stroke-miterlimit="10.433"
           xml:space="preserve"
           id="g5212"
           style="font-style:normal;font-variant:normal;font-weight:normal;font-stretch:normal;letter-spacing:normal;word-spacing:normal;text-anchor:start;fill:none;fill-opacity:1;fill-rule:evenodd;stroke:#000000;stroke-linecap:butt;stroke-linejoin:miter;stroke-miterlimit:10.43299961;stroke-dasharray:none;stroke-dashoffset:0;stroke-opacity:1"><path
             id="path5208"
             style="fill:#000000;stroke-width:0"
             d="m 226.36,483.59 v 0.01 0.01 0.02 0.01 0 0.01 0.01 0.01 0.01 0.01 0.01 0.01 0 0.01 0.01 0 0.01 0.01 0.01 l -0.01,0.01 v 0.01 0.01 l -0.01,0.01 v 0 0.01 l -0.01,0.01 h -0.01 v 0.01 h -0.01 l -0.01,0.01 h -0.01 v 0 h -0.01 v 0 h -0.01 v 0 l -0.01,0.01 h -0.01 v 0 h -0.01 -0.01 v 0 h -0.01 -0.01 -0.01 -0.01 -0.01 -0.01 -0.01 -0.01 -0.01 -0.01 c -0.61,-0.64 -1.49,-0.64 -1.81,-0.64 v -0.3 c 0.2,0 0.79,0 1.31,0.26 v -5.15 c 0,-0.36 -0.03,-0.48 -0.93,-0.48 h -0.32 v -0.31 c 0.35,0.04 1.22,0.04 1.61,0.04 0.4,0 1.27,0 1.62,-0.04 v 0.31 h -0.32 c -0.9,0 -0.93,0.11 -0.93,0.48 z"
             inkscape:connector-curvature="0" /><path
             id="path5210"
             style="fill:#000000;stroke-width:0"
             d="m 229.73,480.49 v 0.24 c 0,2.51 1.24,2.87 1.75,2.87 0.23,0 0.65,-0.06 0.87,-0.4 -0.15,0 -0.55,0 -0.55,-0.44 0,-0.31 0.24,-0.46 0.46,-0.46 0.16,0 0.46,0.09 0.46,0.48 0,0.59 -0.44,1.07 -1.26,1.07 -1.28,0 -2.63,-1.28 -2.63,-3.48 0,-2.65 1.16,-3.35 2.09,-3.35 1.1,0 2.05,0.93 2.05,2.24 0,1.26 -0.89,2.22 -1.99,2.22 l -0.01,-0.23 c 0.16,0 0.61,0 0.92,-0.62 0.18,-0.36 0.18,-0.87 0.18,-1.36 0,-0.47 0,-0.97 -0.17,-1.33 -0.3,-0.6 -0.75,-0.64 -0.98,-0.64 v 0 c -0.63,0 -0.93,0.59 -0.99,0.74 -0.18,0.47 -0.18,1.26 -0.18,1.44 0,0.78 0.32,1.77 1.22,1.77 l 0.01,0.23 c -0.68,0 -1.05,-0.51 -1.25,-0.99 z"
             inkscape:connector-curvature="0" /></g>        <path
           id="path5214"
           inkscape:label="none"
           style="fill:none;stroke:#b2b2b2;stroke-width:0.2;stroke-linecap:round;stroke-linejoin:round;stroke-dasharray:none"
           d="m 40,-25 h 80"
           inkscape:connector-curvature="0" />
        <path
           id="path5216"
           inkscape:label="none"
           style="fill:none;stroke:#4c4c4c;stroke-width:0.2857143;stroke-linecap:round;stroke-linejoin:round;stroke-dasharray:none"
           d="m 39.375,-25 h 1.25"
           inkscape:connector-curvature="0" />
        <g
           transform="matrix(0.295858,0,0,-0.295858,-30.184914,117.14054)"
           ns0:preamble="C:\\Program Files\\Inkscape\\share\\extensions/textextLib/basicLatexPackages.tex"
           ns0:text=" $20$"
           word-spacing="normal"
           letter-spacing="normal"
           font-size-adjust="none"
           font-stretch="normal"
           font-weight="normal"
           font-variant="normal"
           font-style="normal"
           stroke-miterlimit="10.433"
           xml:space="preserve"
           id="g5222"
           style="font-style:normal;font-variant:normal;font-weight:normal;font-stretch:normal;letter-spacing:normal;word-spacing:normal;text-anchor:start;fill:none;fill-opacity:1;fill-rule:evenodd;stroke:#000000;stroke-linecap:butt;stroke-linejoin:miter;stroke-miterlimit:10.43299961;stroke-dasharray:none;stroke-dashoffset:0;stroke-opacity:1"><path
             id="path5218"
             style="fill:#000000;stroke-width:0"
             d="m 224.7,478 1.06,1.02 c 1.55,1.37 2.15,1.91 2.15,2.9 0,1.14 -0.9,1.93 -2.12,1.93 -1.12,0 -1.86,-0.91 -1.86,-1.8 0,-0.55 0.5,-0.55 0.53,-0.55 0.17,0 0.52,0.12 0.52,0.52 0,0.26 -0.18,0.52 -0.53,0.52 -0.08,0 -0.1,0 -0.13,-0.01 0.23,0.64 0.77,1.01 1.35,1.01 0.9,0 1.33,-0.8 1.33,-1.62 0,-0.79 -0.5,-1.58 -1.04,-2.19 l -1.92,-2.13 c -0.11,-0.11 -0.11,-0.13 -0.11,-0.37 h 3.7 l 0.28,1.73 h -0.25 c -0.05,-0.29 -0.12,-0.73 -0.22,-0.88 C 227.37,478 226.71,478 226.49,478 Z"
             inkscape:connector-curvature="0" /><path
             id="path5220"
             style="fill:#000000;stroke-width:0"
             d="m 233,480.41 v 0.15 0.15 l -0.01,0.15 v 0.15 l -0.01,0.15 -0.01,0.14 -0.02,0.15 -0.02,0.15 -0.02,0.14 -0.03,0.15 -0.03,0.14 -0.04,0.15 -0.04,0.14 -0.05,0.14 -0.06,0.14 -0.03,0.07 -0.03,0.07 c -0.46,0.95 -1.28,1.11 -1.69,1.11 -0.6,0 -1.33,-0.26 -1.74,-1.18 -0.32,-0.69 -0.37,-1.46 -0.37,-2.26 0,-0.74 0.04,-1.64 0.45,-2.39 0.43,-0.81 1.16,-1 1.65,-1 v 0.21 c -0.39,0 -0.98,0.25 -1.16,1.21 -0.11,0.59 -0.11,1.51 -0.11,2.09 0,0.64 0,1.29 0.08,1.83 0.19,1.18 0.94,1.27 1.19,1.27 0.33,0 0.98,-0.18 1.17,-1.16 0.1,-0.56 0.1,-1.31 0.1,-1.94 0,-0.74 0,-1.42 -0.11,-2.05 -0.15,-0.95 -0.71,-1.25 -1.16,-1.25 v 0 -0.21 c 0.53,0 1.29,0.21 1.73,1.15 0.32,0.68 0.37,1.46 0.37,2.24 z"
             inkscape:connector-curvature="0" /></g>        <path
           id="path5224"
           inkscape:label="none"
           style="fill:none;stroke:#b2b2b2;stroke-width:0.2;stroke-linecap:round;stroke-linejoin:round;stroke-dasharray:none"
           d="m 40,5 h 80"
           inkscape:connector-curvature="0" />
        <path
           id="path5226"
           inkscape:label="none"
           style="fill:none;stroke:#4c4c4c;stroke-width:0.2857143;stroke-linecap:round;stroke-linejoin:round;stroke-dasharray:none"
           d="m 39.375,5 h 1.25"
           inkscape:connector-curvature="0" />
        <g
           transform="matrix(0.295858,0,0,-0.295858,-31.036985,147.18788)"
           ns0:preamble="C:\\Program Files\\Inkscape\\share\\extensions/textextLib/basicLatexPackages.tex"
           ns0:text=" $-4$"
           word-spacing="normal"
           letter-spacing="normal"
           font-size-adjust="none"
           font-stretch="normal"
           font-weight="normal"
           font-variant="normal"
           font-style="normal"
           stroke-miterlimit="10.433"
           xml:space="preserve"
           id="g5232"
           style="font-style:normal;font-variant:normal;font-weight:normal;font-stretch:normal;letter-spacing:normal;word-spacing:normal;text-anchor:start;fill:none;fill-opacity:1;fill-rule:evenodd;stroke:#000000;stroke-linecap:butt;stroke-linejoin:miter;stroke-miterlimit:10.43299961;stroke-dasharray:none;stroke-dashoffset:0;stroke-opacity:1"><path
             id="path5228"
             style="fill:#000000;stroke-width:0"
             d="m 230,479.52 h 0.04 0.03 0.03 0.01 0.02 0.01 l 0.02,0.01 h 0.01 0.02 0.01 l 0.02,0.01 h 0.01 0.01 l 0.01,0.01 0.02,0.01 h 0.01 l 0.01,0.01 0.01,0.01 h 0.01 v 0.01 l 0.01,0.01 0.01,0.01 v 0 0.01 l 0.01,0.01 v 0 0.01 0.01 0 l 0.01,0.01 v 0.01 0.01 0 0.01 0.01 0.01 0.01 c 0,0.2 -0.18,0.2 -0.35,0.2 h -5.39 c -0.17,0 -0.35,0 -0.35,-0.2 0,-0.2 0.18,-0.2 0.35,-0.2 z"
             inkscape:connector-curvature="0" /><path
             id="path5230"
             style="fill:#000000;stroke-width:0"
             d="m 234.11,478.87 v -0.86 c 0,-0.36 -0.02,-0.47 -0.76,-0.47 h -0.2 v -0.31 c 0.4,0.04 0.92,0.04 1.34,0.04 0.42,0 0.95,0 1.36,-0.04 v 0.31 h -0.21 c -0.74,0 -0.76,0.11 -0.76,0.47 v 0.86 h 1 v 0.31 h -1 v 4.52 c 0,0.2 0,0.26 -0.16,0.26 -0.09,0 -0.12,0 -0.2,-0.12 l -3.06,-4.66 h 0.28 l 2.43,3.71 v -3.71 h -2.43 -0.28 v -0.31 z"
             inkscape:connector-curvature="0" /></g>        <path
           id="path5234"
           inkscape:label="none"
           style="fill:none;stroke:#b2b2b2;stroke-width:0.2;stroke-linecap:round;stroke-linejoin:round;stroke-dasharray:none"
           d="m 40,10 h 80"
           inkscape:connector-curvature="0" />
        <path
           id="path5236"
           inkscape:label="none"
           style="fill:none;stroke:#4c4c4c;stroke-width:0.2857143;stroke-linecap:round;stroke-linejoin:round;stroke-dasharray:none"
           d="m 39.375,10 h 1.25"
           inkscape:connector-curvature="0" />
        <g
           transform="matrix(0.295858,0,0,-0.295858,-30.995565,152.14054)"
           ns0:preamble="C:\\Program Files\\Inkscape\\share\\extensions/textextLib/basicLatexPackages.tex"
           ns0:text=" $-8$"
           word-spacing="normal"
           letter-spacing="normal"
           font-size-adjust="none"
           font-stretch="normal"
           font-weight="normal"
           font-variant="normal"
           font-style="normal"
           stroke-miterlimit="10.433"
           xml:space="preserve"
           id="g5242"
           style="font-style:normal;font-variant:normal;font-weight:normal;font-stretch:normal;letter-spacing:normal;word-spacing:normal;text-anchor:start;fill:none;fill-opacity:1;fill-rule:evenodd;stroke:#000000;stroke-linecap:butt;stroke-linejoin:miter;stroke-miterlimit:10.43299961;stroke-dasharray:none;stroke-dashoffset:0;stroke-opacity:1"><path
             id="path5238"
             style="fill:#000000;stroke-width:0"
             d="m 230,479.52 h 0.04 0.03 0.03 0.01 0.02 0.01 l 0.02,0.01 h 0.01 0.02 0.01 l 0.02,0.01 h 0.01 0.01 l 0.01,0.01 0.02,0.01 h 0.01 l 0.01,0.01 0.01,0.01 h 0.01 v 0.01 l 0.01,0.01 0.01,0.01 v 0 0.01 l 0.01,0.01 v 0 0.01 0.01 0 l 0.01,0.01 v 0.01 0.01 0 0.01 0.01 0.01 0.01 c 0,0.2 -0.18,0.2 -0.35,0.2 h -5.39 c -0.17,0 -0.35,0 -0.35,-0.2 0,-0.2 0.18,-0.2 0.35,-0.2 z"
             inkscape:connector-curvature="0" /><path
             id="path5240"
             style="fill:#000000;stroke-width:0"
             d="m 234.26,480.83 0.07,0.04 0.06,0.03 0.07,0.04 0.06,0.04 0.06,0.03 0.06,0.04 0.06,0.04 0.05,0.04 0.06,0.05 0.05,0.04 0.05,0.04 0.05,0.05 0.05,0.04 0.04,0.05 0.04,0.05 0.04,0.04 0.04,0.05 0.04,0.05 0.03,0.05 0.04,0.05 0.03,0.05 0.02,0.06 0.03,0.05 0.02,0.06 0.02,0.05 0.02,0.06 0.01,0.05 0.02,0.06 0.01,0.06 v 0.06 l 0.01,0.06 v 0.06 c 0,0.92 -0.89,1.48 -1.8,1.48 l -0.01,-0.25 c 0.73,0 1.37,-0.51 1.37,-1.23 0,-0.57 -0.39,-1.04 -0.99,-1.39 l -1.23,0.79 c -0.46,0.3 -0.5,0.64 -0.5,0.81 0,0.6 0.65,1.02 1.35,1.02 l 0.01,0.25 c -0.99,0 -1.8,-0.73 -1.8,-1.66 0,-0.18 0.02,-0.62 0.44,-1.09 0.11,-0.12 0.48,-0.37 0.73,-0.54 l 0.22,-0.15 1.23,-0.77 c 0.28,-0.19 0.75,-0.49 0.75,-1.09 0,-0.74 -0.75,-1.25 -1.57,-1.25 -0.85,0 -1.57,0.61 -1.57,1.43 0,0.58 0.32,1.22 1.16,1.68 v 0 l -0.22,0.15 c -0.58,-0.29 -1.44,-0.84 -1.44,-1.83 0,-1.05 1.02,-1.71 2.06,-1.71 1.13,0 2.08,0.82 2.08,1.88 0,0.36 -0.11,0.81 -0.49,1.23 -0.19,0.2 -0.35,0.3 -0.99,0.7 z"
             inkscape:connector-curvature="0" /></g>        <path
           id="path5244"
           inkscape:label="none"
           style="fill:none;stroke:#b2b2b2;stroke-width:0.2;stroke-linecap:round;stroke-linejoin:round;stroke-dasharray:none"
           d="m 40,15 h 80"
           inkscape:connector-curvature="0" />
        <path
           id="path5246"
           inkscape:label="none"
           style="fill:none;stroke:#4c4c4c;stroke-width:0.2857143;stroke-linecap:round;stroke-linejoin:round;stroke-dasharray:none"
           d="m 39.375,15 h 1.25"
           inkscape:connector-curvature="0" />
        <g
           transform="matrix(0.295858,0,0,-0.295858,-32.445269,157.1716)"
           ns0:preamble="C:\\Program Files\\Inkscape\\share\\extensions/textextLib/basicLatexPackages.tex"
           ns0:text=" $-12$"
           word-spacing="normal"
           letter-spacing="normal"
           font-size-adjust="none"
           font-stretch="normal"
           font-weight="normal"
           font-variant="normal"
           font-style="normal"
           stroke-miterlimit="10.433"
           xml:space="preserve"
           id="g5254"
           style="font-style:normal;font-variant:normal;font-weight:normal;font-stretch:normal;letter-spacing:normal;word-spacing:normal;text-anchor:start;fill:none;fill-opacity:1;fill-rule:evenodd;stroke:#000000;stroke-linecap:butt;stroke-linejoin:miter;stroke-miterlimit:10.43299961;stroke-dasharray:none;stroke-dashoffset:0;stroke-opacity:1"><path
             id="path5248"
             style="fill:#000000;stroke-width:0"
             d="m 230,479.52 h 0.04 0.03 0.03 0.01 0.02 0.01 l 0.02,0.01 h 0.01 0.02 0.01 l 0.02,0.01 h 0.01 0.01 l 0.01,0.01 0.02,0.01 h 0.01 l 0.01,0.01 0.01,0.01 h 0.01 v 0.01 l 0.01,0.01 0.01,0.01 v 0 0.01 l 0.01,0.01 v 0 0.01 0.01 0 l 0.01,0.01 v 0.01 0.01 0 0.01 0.01 0.01 0.01 c 0,0.2 -0.18,0.2 -0.35,0.2 h -5.39 c -0.17,0 -0.35,0 -0.35,-0.2 0,-0.2 0.18,-0.2 0.35,-0.2 z"
             inkscape:connector-curvature="0" /><path
             id="path5250"
             style="fill:#000000;stroke-width:0"
             d="m 234.11,483.59 v 0.01 0.01 0.02 0.01 0 0.01 0.01 0.01 0.01 0.01 0.01 0.01 0 0.01 0.01 0 0.01 0.01 0.01 l -0.01,0.01 v 0.01 0.01 l -0.01,0.01 v 0 l -0.01,0.01 v 0.01 h -0.01 l -0.01,0.01 v 0 l -0.01,0.01 h -0.01 v 0 h -0.01 v 0 h -0.01 v 0 l -0.01,0.01 H 234 v 0 h -0.01 -0.01 -0.01 v 0 h -0.01 -0.01 -0.01 -0.01 -0.01 -0.01 -0.01 -0.01 -0.01 c -0.62,-0.64 -1.49,-0.64 -1.81,-0.64 v -0.3 c 0.2,0 0.79,0 1.31,0.26 v -5.15 c 0,-0.36 -0.03,-0.48 -0.93,-0.48 h -0.32 v -0.31 c 0.35,0.04 1.22,0.04 1.61,0.04 0.4,0 1.27,0 1.62,-0.04 v 0.31 h -0.32 c -0.9,0 -0.93,0.11 -0.93,0.48 z"
             inkscape:connector-curvature="0" /><path
             id="path5252"
             style="fill:#000000;stroke-width:0"
             d="m 237.43,478 1.06,1.02 c 1.55,1.37 2.15,1.91 2.15,2.9 0,1.14 -0.9,1.93 -2.11,1.93 -1.13,0 -1.87,-0.91 -1.87,-1.8 0,-0.55 0.5,-0.55 0.53,-0.55 0.17,0 0.52,0.12 0.52,0.52 0,0.26 -0.18,0.52 -0.53,0.52 -0.08,0 -0.1,0 -0.13,-0.01 0.23,0.64 0.77,1.01 1.35,1.01 0.9,0 1.33,-0.8 1.33,-1.62 0,-0.79 -0.5,-1.58 -1.05,-2.19 l -1.91,-2.13 c -0.11,-0.11 -0.11,-0.13 -0.11,-0.37 h 3.7 l 0.28,1.73 h -0.25 c -0.05,-0.29 -0.12,-0.73 -0.22,-0.88 C 240.1,478 239.44,478 239.22,478 Z"
             inkscape:connector-curvature="0" /></g>        <path
           id="path5256"
           inkscape:label="none"
           style="fill:none;stroke:#b2b2b2;stroke-width:0.2;stroke-linecap:round;stroke-linejoin:round;stroke-dasharray:none"
           d="m 40,20 h 80"
           inkscape:connector-curvature="0" />
        <path
           id="path5258"
           inkscape:label="none"
           style="fill:none;stroke:#4c4c4c;stroke-width:0.2857143;stroke-linecap:round;stroke-linejoin:round;stroke-dasharray:none"
           d="m 39.375,20 h 1.25"
           inkscape:connector-curvature="0" />
        <g
           transform="matrix(0.295858,0,0,-0.295858,-32.468938,162.14054)"
           ns0:preamble="C:\\Program Files\\Inkscape\\share\\extensions/textextLib/basicLatexPackages.tex"
           ns0:text=" $-16$"
           word-spacing="normal"
           letter-spacing="normal"
           font-size-adjust="none"
           font-stretch="normal"
           font-weight="normal"
           font-variant="normal"
           font-style="normal"
           stroke-miterlimit="10.433"
           xml:space="preserve"
           id="g5266"
           style="font-style:normal;font-variant:normal;font-weight:normal;font-stretch:normal;letter-spacing:normal;word-spacing:normal;text-anchor:start;fill:none;fill-opacity:1;fill-rule:evenodd;stroke:#000000;stroke-linecap:butt;stroke-linejoin:miter;stroke-miterlimit:10.43299961;stroke-dasharray:none;stroke-dashoffset:0;stroke-opacity:1"><path
             id="path5260"
             style="fill:#000000;stroke-width:0"
             d="m 230,479.52 h 0.04 0.03 0.03 0.01 0.02 0.01 l 0.02,0.01 h 0.01 0.02 0.01 l 0.02,0.01 h 0.01 0.01 l 0.01,0.01 0.02,0.01 h 0.01 l 0.01,0.01 0.01,0.01 h 0.01 v 0.01 l 0.01,0.01 0.01,0.01 v 0 0.01 l 0.01,0.01 v 0 0.01 0.01 0 l 0.01,0.01 v 0.01 0.01 0 0.01 0.01 0.01 0.01 c 0,0.2 -0.18,0.2 -0.35,0.2 h -5.39 c -0.17,0 -0.35,0 -0.35,-0.2 0,-0.2 0.18,-0.2 0.35,-0.2 z"
             inkscape:connector-curvature="0" /><path
             id="path5262"
             style="fill:#000000;stroke-width:0"
             d="m 234.11,483.59 v 0.01 0.01 0.02 0.01 0 0.01 0.01 0.01 0.01 0.01 0.01 0.01 0 0.01 0.01 0 0.01 0.01 0.01 l -0.01,0.01 v 0.01 0.01 l -0.01,0.01 v 0 l -0.01,0.01 v 0.01 h -0.01 l -0.01,0.01 v 0 l -0.01,0.01 h -0.01 v 0 h -0.01 v 0 h -0.01 v 0 l -0.01,0.01 H 234 v 0 h -0.01 -0.01 -0.01 v 0 h -0.01 -0.01 -0.01 -0.01 -0.01 -0.01 -0.01 -0.01 -0.01 c -0.62,-0.64 -1.49,-0.64 -1.81,-0.64 v -0.3 c 0.2,0 0.79,0 1.31,0.26 v -5.15 c 0,-0.36 -0.03,-0.48 -0.93,-0.48 h -0.32 v -0.31 c 0.35,0.04 1.22,0.04 1.61,0.04 0.4,0 1.27,0 1.62,-0.04 v 0.31 h -0.32 c -0.9,0 -0.93,0.11 -0.93,0.48 z"
             inkscape:connector-curvature="0" /><path
             id="path5264"
             style="fill:#000000;stroke-width:0"
             d="m 237.48,480.49 v 0.24 c 0,2.51 1.23,2.87 1.74,2.87 0.24,0 0.66,-0.06 0.88,-0.4 -0.15,0 -0.55,0 -0.55,-0.44 0,-0.31 0.24,-0.46 0.46,-0.46 0.16,0 0.46,0.09 0.46,0.48 0,0.59 -0.44,1.07 -1.27,1.07 -1.27,0 -2.62,-1.28 -2.62,-3.48 0,-2.65 1.16,-3.35 2.08,-3.35 1.11,0 2.06,0.93 2.06,2.24 0,1.26 -0.89,2.22 -1.99,2.22 l -0.02,-0.23 c 0.17,0 0.62,0 0.93,-0.62 0.18,-0.36 0.18,-0.87 0.18,-1.36 0,-0.47 0,-0.97 -0.17,-1.33 -0.3,-0.6 -0.75,-0.64 -0.99,-0.64 v 0 c -0.62,0 -0.92,0.59 -0.98,0.74 -0.18,0.47 -0.18,1.26 -0.18,1.44 0,0.78 0.32,1.77 1.21,1.77 l 0.02,0.23 c -0.68,0 -1.05,-0.51 -1.25,-0.99 z"
             inkscape:connector-curvature="0" /></g>        <path
           id="path5268"
           inkscape:label="none"
           style="fill:none;stroke:#b2b2b2;stroke-width:0.2;stroke-linecap:round;stroke-linejoin:round;stroke-dasharray:none"
           d="m 40,25 h 80"
           inkscape:connector-curvature="0" />
        <path
           id="path5270"
           inkscape:label="none"
           style="fill:none;stroke:#4c4c4c;stroke-width:0.2857143;stroke-linecap:round;stroke-linejoin:round;stroke-dasharray:none"
           d="m 39.375,25 h 1.25"
           inkscape:connector-curvature="0" />
        <g
           transform="matrix(0.295858,0,0,-0.295858,-32.477813,167.14054)"
           ns0:preamble="C:\\Program Files\\Inkscape\\share\\extensions/textextLib/basicLatexPackages.tex"
           ns0:text=" $-20$"
           word-spacing="normal"
           letter-spacing="normal"
           font-size-adjust="none"
           font-stretch="normal"
           font-weight="normal"
           font-variant="normal"
           font-style="normal"
           stroke-miterlimit="10.433"
           xml:space="preserve"
           id="g5278"
           style="font-style:normal;font-variant:normal;font-weight:normal;font-stretch:normal;letter-spacing:normal;word-spacing:normal;text-anchor:start;fill:none;fill-opacity:1;fill-rule:evenodd;stroke:#000000;stroke-linecap:butt;stroke-linejoin:miter;stroke-miterlimit:10.43299961;stroke-dasharray:none;stroke-dashoffset:0;stroke-opacity:1"><path
             id="path5272"
             style="fill:#000000;stroke-width:0"
             d="m 230,479.52 h 0.04 0.03 0.03 0.01 0.02 0.01 l 0.02,0.01 h 0.01 0.02 0.01 l 0.02,0.01 h 0.01 0.01 l 0.01,0.01 0.02,0.01 h 0.01 l 0.01,0.01 0.01,0.01 h 0.01 v 0.01 l 0.01,0.01 0.01,0.01 v 0 0.01 l 0.01,0.01 v 0 0.01 0.01 0 l 0.01,0.01 v 0.01 0.01 0 0.01 0.01 0.01 0.01 c 0,0.2 -0.18,0.2 -0.35,0.2 h -5.39 c -0.17,0 -0.35,0 -0.35,-0.2 0,-0.2 0.18,-0.2 0.35,-0.2 z"
             inkscape:connector-curvature="0" /><path
             id="path5274"
             style="fill:#000000;stroke-width:0"
             d="m 232.45,478 1.05,1.02 c 1.56,1.37 2.16,1.91 2.16,2.9 0,1.14 -0.9,1.93 -2.12,1.93 -1.12,0 -1.86,-0.91 -1.86,-1.8 0,-0.55 0.5,-0.55 0.53,-0.55 0.17,0 0.52,0.12 0.52,0.52 0,0.26 -0.18,0.52 -0.53,0.52 -0.08,0 -0.1,0 -0.13,-0.01 0.23,0.64 0.77,1.01 1.34,1.01 0.91,0 1.34,-0.8 1.34,-1.62 0,-0.79 -0.5,-1.58 -1.05,-2.19 l -1.91,-2.13 c -0.11,-0.11 -0.11,-0.13 -0.11,-0.37 h 3.7 l 0.28,1.73 h -0.25 c -0.05,-0.29 -0.12,-0.73 -0.22,-0.88 C 235.12,478 234.46,478 234.24,478 Z"
             inkscape:connector-curvature="0" /><path
             id="path5276"
             style="fill:#000000;stroke-width:0"
             d="m 240.75,480.41 v 0.15 0.15 l -0.01,0.15 v 0.15 l -0.01,0.15 -0.01,0.14 -0.02,0.15 -0.02,0.15 -0.02,0.14 -0.03,0.15 -0.03,0.14 -0.04,0.15 -0.04,0.14 -0.05,0.14 -0.06,0.14 -0.03,0.07 -0.03,0.07 c -0.46,0.95 -1.28,1.11 -1.7,1.11 -0.59,0 -1.32,-0.26 -1.73,-1.18 -0.32,-0.69 -0.37,-1.46 -0.37,-2.26 0,-0.74 0.04,-1.64 0.45,-2.39 0.43,-0.81 1.16,-1 1.65,-1 v 0.21 c -0.39,0 -0.98,0.25 -1.16,1.21 -0.11,0.59 -0.11,1.51 -0.11,2.09 0,0.64 0,1.29 0.08,1.83 0.19,1.18 0.94,1.27 1.19,1.27 0.32,0 0.98,-0.18 1.17,-1.16 0.1,-0.56 0.1,-1.31 0.1,-1.94 0,-0.74 0,-1.42 -0.11,-2.05 -0.15,-0.95 -0.72,-1.25 -1.16,-1.25 v 0 -0.21 c 0.53,0 1.29,0.21 1.73,1.15 0.32,0.68 0.37,1.46 0.37,2.24 z"
             inkscape:connector-curvature="0" /></g>      </g>
      <g
         id="g5322"
         inkscape:label="Axis">
        <path
           id="path5282"
           inkscape:label="Xaxis"
           style="fill:none;stroke:#4c4c4c;stroke-width:0.2857143;stroke-linecap:round;stroke-linejoin:round;stroke-dasharray:none;marker-end:url(#ArrowAxisEnd)"
           d="m 40,0 h 85"
           inkscape:connector-curvature="0" />
        <g
           transform="matrix(0.369822,0,0,-0.369822,41.341332,180.49533)"
           ns0:preamble="C:\\Program Files\\Inkscape\\share\\extensions/textextLib/basicLatexPackages.tex"
           ns0:text=" $f(Hz)$"
           word-spacing="normal"
           letter-spacing="normal"
           font-size-adjust="none"
           font-stretch="normal"
           font-weight="normal"
           font-variant="normal"
           font-style="normal"
           stroke-miterlimit="10.433"
           xml:space="preserve"
           id="g5294"
           style="font-style:normal;font-variant:normal;font-weight:normal;font-stretch:normal;letter-spacing:normal;word-spacing:normal;text-anchor:start;fill:none;fill-opacity:1;fill-rule:evenodd;stroke:#000000;stroke-linecap:butt;stroke-linejoin:miter;stroke-miterlimit:10.43299961;stroke-dasharray:none;stroke-dashoffset:0;stroke-opacity:1"><path
             id="path5284"
             style="fill:#000000;stroke-width:0"
             d="m 227.09,481.21 h 0.86 c 0.2,0 0.3,0 0.3,0.2 0,0.11 -0.1,0.11 -0.27,0.11 h -0.83 l 0.21,1.13 c 0.04,0.21 0.18,0.91 0.24,1.03 0.09,0.19 0.26,0.34 0.47,0.34 0.04,0 0.3,0 0.49,-0.18 -0.44,-0.04 -0.54,-0.39 -0.54,-0.54 0,-0.22 0.18,-0.34 0.37,-0.34 0.26,0 0.55,0.21 0.55,0.59 0,0.46 -0.46,0.69 -0.87,0.69 -0.34,0 -0.97,-0.18 -1.27,-1.16 -0.06,-0.21 -0.09,-0.31 -0.33,-1.56 h -0.68 c -0.19,0 -0.3,0 -0.3,-0.19 0,-0.12 0.09,-0.12 0.27,-0.12 h 0.66 l -0.74,-3.92 c -0.18,-0.97 -0.35,-1.87 -0.87,-1.87 -0.04,0 -0.29,0 -0.48,0.18 0.46,0.03 0.55,0.38 0.55,0.53 0,0.23 -0.18,0.35 -0.37,0.35 -0.26,0 -0.55,-0.22 -0.55,-0.6 0,-0.44 0.44,-0.68 0.85,-0.68 0.55,0 0.95,0.59 1.12,0.96 0.32,0.63 0.55,1.83 0.56,1.9 z"
             inkscape:connector-curvature="0" /><path
             id="path5286"
             style="fill:#000000;stroke-width:0"
             d="m 232.68,474.85 v 0.01 0 0 0.01 0 0 0.01 0 0 l -0.01,0.01 v 0 0.01 0 l -0.01,0.01 v 0 l -0.01,0.01 v 0.01 h -0.01 v 0.01 h -0.01 v 0.01 0 h -0.01 v 0.01 0 l -0.01,0.01 v 0 l -0.01,0.01 v 0 l -0.01,0.01 v 0 l -0.01,0.01 v 0.01 h -0.01 l -0.01,0.01 v 0.01 h -0.01 l -0.01,0.01 v 0.01 h -0.01 l -0.01,0.01 -0.01,0.01 c -1.24,1.25 -1.56,3.13 -1.56,4.65 0,1.73 0.38,3.45 1.6,4.7 0.13,0.12 0.13,0.14 0.13,0.17 0,0.07 -0.04,0.09 -0.1,0.09 -0.1,0 -0.99,-0.67 -1.58,-1.93 -0.51,-1.09 -0.63,-2.2 -0.63,-3.03 0,-0.78 0.11,-1.98 0.66,-3.1 0.6,-1.22 1.45,-1.87 1.55,-1.87 0.06,0 0.1,0.03 0.1,0.1 z"
             inkscape:connector-curvature="0" /><path
             id="path5288"
             style="fill:#000000;stroke-width:0"
             d="m 240.87,483.26 v 0.03 l 0.01,0.03 0.01,0.03 0.01,0.03 v 0.02 l 0.01,0.03 0.01,0.02 0.01,0.03 0.01,0.02 0.01,0.02 0.01,0.02 0.02,0.02 0.01,0.01 0.02,0.02 0.01,0.01 0.02,0.02 0.02,0.01 0.03,0.01 0.02,0.01 0.03,0.01 0.03,0.01 h 0.02 l 0.01,0.01 h 0.02 0.02 l 0.02,0.01 h 0.02 0.02 l 0.02,0.01 h 0.02 0.02 0.03 0.02 l 0.02,0.01 h 0.03 0.03 0.03 0.02 0.03 0.03 0.04 0.03 0.03 c 0.26,0 0.34,0 0.34,0.2 0,0.11 -0.11,0.11 -0.14,0.11 -0.28,0 -1,-0.03 -1.27,-0.03 -0.29,0 -1,0.03 -1.29,0.03 -0.08,0 -0.19,0 -0.19,-0.2 0,-0.11 0.09,-0.11 0.28,-0.11 0.02,0 0.21,0 0.38,-0.02 0.18,-0.02 0.27,-0.03 0.27,-0.16 0,-0.04 -0.01,-0.06 -0.04,-0.19 l -0.6,-2.42 h -3.04 l 0.59,2.34 c 0.08,0.35 0.11,0.45 0.83,0.45 0.26,0 0.34,0 0.34,0.2 0,0.11 -0.11,0.11 -0.14,0.11 -0.28,0 -1,-0.03 -1.27,-0.03 -0.29,0 -1,0.03 -1.29,0.03 -0.08,0 -0.19,0 -0.19,-0.2 0,-0.11 0.09,-0.11 0.28,-0.11 0.02,0 0.21,0 0.38,-0.02 0.18,-0.02 0.27,-0.03 0.27,-0.16 0,-0.04 -0.01,-0.07 -0.04,-0.19 l -1.34,-5.33 c -0.1,-0.39 -0.12,-0.47 -0.91,-0.47 -0.17,0 -0.26,0 -0.26,-0.2 0,-0.11 0.11,-0.11 0.14,-0.11 0.27,0 0.98,0.04 1.26,0.04 0.21,0 0.43,-0.01 0.64,-0.01 0.22,0 0.44,-0.03 0.65,-0.03 0.08,0 0.2,0 0.2,0.2 0,0.11 -0.09,0.11 -0.28,0.11 -0.37,0 -0.65,0 -0.65,0.18 0,0.06 0.02,0.11 0.03,0.17 l 0.68,2.72 h 3.04 c -0.42,-1.65 -0.65,-2.59 -0.69,-2.74 -0.1,-0.32 -0.29,-0.33 -0.91,-0.33 -0.15,0 -0.24,0 -0.24,-0.2 0,-0.11 0.12,-0.11 0.14,-0.11 0.28,0 0.99,0.04 1.27,0.04 0.21,0 0.43,-0.01 0.64,-0.01 0.22,0 0.44,-0.03 0.65,-0.03 0.08,0 0.2,0 0.2,0.2 0,0.11 -0.09,0.11 -0.28,0.11 -0.37,0 -0.65,0 -0.65,0.18 0,0.06 0.02,0.11 0.03,0.17 z"
             inkscape:connector-curvature="0" /><path
             id="path5290"
             style="fill:#000000;stroke-width:0"
             d="m 243.67,478.06 0.05,0.05 0.05,0.05 0.05,0.05 0.04,0.05 0.05,0.05 0.04,0.04 0.04,0.04 0.04,0.05 0.04,0.04 0.04,0.04 0.04,0.03 0.04,0.04 0.04,0.04 0.03,0.03 0.07,0.07 0.07,0.06 0.07,0.06 0.06,0.06 0.07,0.06 0.13,0.11 0.06,0.05 0.07,0.06 c 0,0.01 0.62,0.54 0.98,0.9 0.94,0.92 1.16,1.4 1.16,1.44 0,0.1 -0.09,0.1 -0.11,0.1 -0.07,0 -0.1,-0.02 -0.15,-0.11 -0.3,-0.48 -0.51,-0.64 -0.75,-0.64 -0.23,0 -0.35,0.15 -0.5,0.32 -0.19,0.23 -0.36,0.43 -0.69,0.43 -0.75,0 -1.21,-0.93 -1.21,-1.14 0,-0.05 0.03,-0.11 0.12,-0.11 0.09,0 0.11,0.05 0.13,0.11 0.19,0.46 0.77,0.47 0.85,0.47 0.21,0 0.4,-0.07 0.63,-0.15 0.39,-0.15 0.5,-0.15 0.76,-0.15 -0.35,-0.43 -1.19,-1.14 -1.38,-1.3 l -0.9,-0.83 c -0.68,-0.67 -1.03,-1.23 -1.03,-1.3 0,-0.1 0.1,-0.1 0.12,-0.1 0.08,0 0.1,0.02 0.16,0.13 0.23,0.34 0.53,0.61 0.85,0.61 0.23,0 0.33,-0.09 0.58,-0.38 0.17,-0.2 0.35,-0.36 0.64,-0.36 0.98,0 1.56,1.26 1.56,1.53 0,0.04 -0.04,0.1 -0.12,0.1 -0.09,0 -0.11,-0.06 -0.14,-0.13 -0.23,-0.65 -0.86,-0.84 -1.19,-0.84 -0.2,0 -0.38,0.06 -0.59,0.13 -0.34,0.13 -0.49,0.17 -0.7,0.17 -0.02,0 -0.18,0 -0.27,-0.03 z"
             inkscape:connector-curvature="0" /><path
             id="path5292"
             style="fill:#000000;stroke-width:0"
             d="m 250.3,479.72 v 0.07 0.08 0.08 0.08 l -0.01,0.17 -0.01,0.17 -0.02,0.18 -0.02,0.19 -0.03,0.2 -0.03,0.2 -0.04,0.2 -0.05,0.21 -0.05,0.21 -0.06,0.21 -0.07,0.21 -0.08,0.21 -0.04,0.11 -0.05,0.11 -0.05,0.1 -0.05,0.11 c -0.6,1.22 -1.45,1.86 -1.55,1.86 -0.06,0 -0.1,-0.03 -0.1,-0.09 0,-0.03 0,-0.05 0.19,-0.23 0.97,-0.99 1.54,-2.56 1.54,-4.64 0,-1.7 -0.37,-3.45 -1.6,-4.7 -0.13,-0.12 -0.13,-0.14 -0.13,-0.17 0,-0.06 0.04,-0.1 0.1,-0.1 0.1,0 0.99,0.68 1.58,1.94 0.51,1.09 0.63,2.19 0.63,3.03 z"
             inkscape:connector-curvature="0" /></g>        <path
           id="path5296"
           inkscape:label="Yaxis"
           style="fill:none;stroke:#4c4c4c;stroke-width:0.2857143;stroke-linecap:round;stroke-linejoin:round;stroke-dasharray:none;marker-end:url(#ArrowAxisEnd)"
           d="M 40,25 V -32.5"
           inkscape:connector-curvature="0" />
        <g
           transform="matrix(0.369822,0,0,-0.369822,-40.117698,146.6604)"
           ns0:preamble="C:\\Program Files\\Inkscape\\share\\extensions/textextLib/basicLatexPackages.tex"
           ns0:text=" $20log|H(s)|$"
           word-spacing="normal"
           letter-spacing="normal"
           font-size-adjust="none"
           font-stretch="normal"
           font-weight="normal"
           font-variant="normal"
           font-style="normal"
           stroke-miterlimit="10.433"
           xml:space="preserve"
           id="g5320"
           style="font-style:normal;font-variant:normal;font-weight:normal;font-stretch:normal;letter-spacing:normal;word-spacing:normal;text-anchor:start;fill:none;fill-opacity:1;fill-rule:evenodd;stroke:#000000;stroke-linecap:butt;stroke-linejoin:miter;stroke-miterlimit:10.43299961;stroke-dasharray:none;stroke-dashoffset:0;stroke-opacity:1"><path
             id="path5298"
             style="fill:#000000;stroke-width:0"
             d="m 224.7,478 1.06,1.02 c 1.55,1.37 2.15,1.91 2.15,2.9 0,1.14 -0.9,1.93 -2.12,1.93 -1.12,0 -1.86,-0.91 -1.86,-1.8 0,-0.55 0.5,-0.55 0.53,-0.55 0.17,0 0.52,0.12 0.52,0.52 0,0.26 -0.18,0.52 -0.53,0.52 -0.08,0 -0.1,0 -0.13,-0.01 0.23,0.64 0.77,1.01 1.35,1.01 0.9,0 1.33,-0.8 1.33,-1.62 0,-0.79 -0.5,-1.58 -1.04,-2.19 l -1.92,-2.13 c -0.11,-0.11 -0.11,-0.13 -0.11,-0.37 h 3.7 l 0.28,1.73 h -0.25 c -0.05,-0.29 -0.12,-0.73 -0.22,-0.88 C 227.37,478 226.71,478 226.49,478 Z"
             inkscape:connector-curvature="0" /><path
             id="path5300"
             style="fill:#000000;stroke-width:0"
             d="m 233,480.41 v 0.15 0.15 l -0.01,0.15 v 0.15 l -0.01,0.15 -0.01,0.14 -0.02,0.15 -0.02,0.15 -0.02,0.14 -0.03,0.15 -0.03,0.14 -0.04,0.15 -0.04,0.14 -0.05,0.14 -0.06,0.14 -0.03,0.07 -0.03,0.07 c -0.46,0.95 -1.28,1.11 -1.69,1.11 -0.6,0 -1.33,-0.26 -1.74,-1.18 -0.32,-0.69 -0.37,-1.46 -0.37,-2.26 0,-0.74 0.04,-1.64 0.45,-2.39 0.43,-0.81 1.16,-1 1.65,-1 v 0.21 c -0.39,0 -0.98,0.25 -1.16,1.21 -0.11,0.59 -0.11,1.51 -0.11,2.09 0,0.64 0,1.29 0.08,1.83 0.19,1.18 0.94,1.27 1.19,1.27 0.33,0 0.98,-0.18 1.17,-1.16 0.1,-0.56 0.1,-1.31 0.1,-1.94 0,-0.74 0,-1.42 -0.11,-2.05 -0.15,-0.95 -0.71,-1.25 -1.16,-1.25 v 0 -0.21 c 0.53,0 1.29,0.21 1.73,1.15 0.32,0.68 0.37,1.46 0.37,2.24 z"
             inkscape:connector-curvature="0" /><path
             id="path5302"
             style="fill:#000000;stroke-width:0"
             d="m 235.97,484.02 v 0 0 0 0 0.01 0 0 0.01 0 0.01 h -0.01 v 0 0.01 0 0.01 h -0.01 v 0.01 0 l -0.01,0.01 v 0 0.01 h -0.01 v 0 0 0.01 h -0.01 v 0 0 h -0.01 v 0.01 0 h -0.01 v 0 h -0.01 v 0 0 h -0.01 v 0.01 h -0.01 v 0 h -0.01 v 0 h -0.01 -0.01 v 0 c -0.23,0 -0.96,-0.08 -1.22,-0.1 -0.08,-0.01 -0.19,-0.02 -0.19,-0.21 0,-0.11 0.1,-0.11 0.25,-0.11 0.48,0 0.49,-0.09 0.49,-0.17 l -0.03,-0.2 -1.26,-4.96 c -0.03,-0.11 -0.05,-0.18 -0.05,-0.34 0,-0.57 0.44,-0.91 0.91,-0.91 0.33,0 0.58,0.19 0.75,0.55 0.18,0.38 0.3,0.96 0.3,0.98 0,0.1 -0.09,0.1 -0.12,0.1 -0.1,0 -0.11,-0.05 -0.14,-0.18 -0.17,-0.65 -0.36,-1.24 -0.76,-1.24 -0.3,0 -0.3,0.32 -0.3,0.46 0,0.24 0.01,0.29 0.06,0.48 z"
             inkscape:connector-curvature="0" /><path
             id="path5304"
             style="fill:#000000;stroke-width:0"
             d="m 241.24,479.95 v 0.09 0.1 l -0.01,0.09 -0.02,0.09 -0.02,0.08 -0.02,0.09 -0.02,0.08 -0.03,0.08 -0.03,0.07 -0.04,0.07 -0.03,0.07 -0.04,0.07 -0.05,0.07 -0.05,0.06 -0.04,0.06 -0.06,0.05 -0.05,0.06 -0.06,0.05 -0.06,0.04 -0.06,0.05 -0.07,0.04 -0.06,0.03 -0.07,0.04 -0.07,0.03 -0.08,0.03 -0.07,0.02 -0.08,0.02 -0.08,0.02 -0.08,0.01 -0.08,0.01 h -0.08 l -0.08,0.01 c -1.34,0 -2.67,-1.42 -2.67,-2.83 0,-0.98 0.66,-1.67 1.59,-1.67 l 0.01,0.21 c -0.43,0 -0.87,0.31 -0.87,1.09 0,0.48 0.26,1.56 0.58,2.06 0.5,0.77 1.07,0.92 1.35,0.92 0.58,0 0.88,-0.48 0.88,-1.08 0,-0.38 -0.2,-1.43 -0.58,-2.07 -0.35,-0.58 -0.9,-0.92 -1.36,-0.92 v 0 l -0.01,-0.21 c 1.33,0 2.67,1.37 2.67,2.82 z"
             inkscape:connector-curvature="0" /><path
             id="path5306"
             style="fill:#000000;stroke-width:0"
             d="m 246.09,480.98 v 0.01 l 0.01,0.01 v 0.01 0.01 l 0.01,0.02 v 0.02 0.01 0.01 l 0.01,0.01 v 0.01 0.01 0.01 0.01 0 0.01 0.01 0 0.01 c 0,0.17 -0.12,0.27 -0.29,0.27 -0.1,0 -0.37,-0.07 -0.4,-0.43 -0.19,0.37 -0.53,0.63 -0.93,0.63 l 0.01,-0.22 c 0.65,0 0.79,-0.81 0.79,-0.86 0,-0.05 -0.01,-0.11 -0.03,-0.15 l -0.47,-1.89 c -0.06,-0.26 -0.29,-0.51 -0.51,-0.7 -0.21,-0.18 -0.52,-0.36 -0.81,-0.36 -0.5,0 -0.65,0.52 -0.65,0.92 0,0.47 0.29,1.65 0.56,2.15 0.27,0.49 0.7,0.89 1.12,0.89 l -0.01,0.22 c -1.14,0 -2.38,-1.4 -2.38,-2.83 0,-0.98 0.61,-1.57 1.33,-1.57 0.59,0 1.06,0.47 1.16,0.58 l 0.01,-0.01 c -0.21,-0.88 -0.33,-1.29 -0.33,-1.31 -0.04,-0.09 -0.38,-1.07 -1.44,-1.07 -0.19,0 -0.52,0.01 -0.8,0.1 0.3,0.09 0.41,0.34 0.41,0.51 0,0.16 -0.11,0.35 -0.38,0.35 -0.21,0 -0.54,-0.18 -0.54,-0.58 0,-0.4 0.37,-0.6 1.33,-0.6 1.25,0 1.97,0.77 2.12,1.37 z"
             inkscape:connector-curvature="0" /><path
             id="path5308"
             style="fill:#000000;stroke-width:0"
             d="m 248.09,484.33 v 0.03 0.03 0.04 0.01 l -0.01,0.02 v 0.01 0.02 0.02 0.01 l -0.01,0.01 v 0.02 0.01 l -0.01,0.01 v 0.02 l -0.01,0.01 v 0.01 l -0.01,0.01 -0.01,0.01 -0.01,0.01 -0.01,0.01 H 248 l -0.01,0.01 v 0 l -0.01,0.01 h -0.01 v 0 h -0.01 l -0.01,0.01 v 0 h -0.01 -0.01 -0.01 -0.01 v 0 h -0.01 -0.01 c -0.2,0 -0.2,-0.17 -0.2,-0.35 v -9.22 c 0,-0.18 0,-0.36 0.2,-0.36 0.2,0 0.2,0.18 0.2,0.36 z"
             inkscape:connector-curvature="0" /><path
             id="path5310"
             style="fill:#000000;stroke-width:0"
             d="m 256.88,483.26 0.01,0.03 v 0.03 l 0.01,0.03 0.01,0.03 0.01,0.02 0.01,0.03 v 0.02 l 0.01,0.03 0.01,0.02 0.01,0.02 0.02,0.02 0.01,0.02 0.01,0.01 0.02,0.02 0.02,0.01 0.02,0.02 0.02,0.01 0.02,0.01 0.03,0.01 0.02,0.01 0.03,0.01 h 0.02 l 0.02,0.01 h 0.01 0.02 l 0.02,0.01 h 0.02 0.02 l 0.02,0.01 h 0.02 0.03 0.02 0.02 l 0.03,0.01 h 0.02 0.03 0.03 0.03 0.03 0.03 0.03 0.03 0.03 c 0.27,0 0.34,0 0.34,0.2 0,0.11 -0.1,0.11 -0.13,0.11 -0.28,0 -1,-0.03 -1.28,-0.03 -0.29,0 -1,0.03 -1.29,0.03 -0.08,0 -0.19,0 -0.19,-0.2 0,-0.11 0.09,-0.11 0.28,-0.11 0.02,0 0.21,0 0.38,-0.02 0.18,-0.02 0.27,-0.03 0.27,-0.16 0,-0.04 -0.01,-0.06 -0.04,-0.19 l -0.6,-2.42 h -3.04 l 0.59,2.34 c 0.09,0.35 0.12,0.45 0.84,0.45 0.26,0 0.34,0 0.34,0.2 0,0.11 -0.11,0.11 -0.14,0.11 -0.28,0 -1,-0.03 -1.28,-0.03 -0.29,0 -1,0.03 -1.29,0.03 -0.08,0 -0.19,0 -0.19,-0.2 0,-0.11 0.09,-0.11 0.28,-0.11 0.02,0 0.21,0 0.38,-0.02 0.18,-0.02 0.27,-0.03 0.27,-0.16 0,-0.04 -0.01,-0.07 -0.04,-0.19 l -1.33,-5.33 c -0.1,-0.39 -0.13,-0.47 -0.91,-0.47 -0.18,0 -0.27,0 -0.27,-0.2 0,-0.11 0.12,-0.11 0.14,-0.11 0.28,0 0.99,0.04 1.26,0.04 0.21,0 0.43,-0.01 0.64,-0.01 0.22,0 0.44,-0.03 0.65,-0.03 0.08,0 0.2,0 0.2,0.2 0,0.11 -0.09,0.11 -0.28,0.11 -0.37,0 -0.65,0 -0.65,0.18 0,0.06 0.02,0.11 0.03,0.17 l 0.68,2.72 h 3.04 c -0.42,-1.65 -0.65,-2.59 -0.69,-2.74 -0.1,-0.32 -0.28,-0.33 -0.9,-0.33 -0.15,0 -0.24,0 -0.24,-0.2 0,-0.11 0.12,-0.11 0.14,-0.11 0.28,0 0.98,0.04 1.26,0.04 0.21,0 0.43,-0.01 0.64,-0.01 0.22,0 0.44,-0.03 0.65,-0.03 0.08,0 0.2,0 0.2,0.2 0,0.11 -0.09,0.11 -0.28,0.11 -0.37,0 -0.65,0 -0.65,0.18 0,0.06 0.02,0.11 0.03,0.17 z"
             inkscape:connector-curvature="0" /><path
             id="path5312"
             style="fill:#000000;stroke-width:0"
             d="m 261.66,474.85 v 0.01 0 0 0.01 0 0 0.01 0 h -0.01 v 0.01 0 0.01 h -0.01 v 0.01 0 l -0.01,0.01 v 0.01 h -0.01 v 0.01 h -0.01 v 0.01 0 h -0.01 v 0.01 h -0.01 v 0.01 h -0.01 v 0.01 h -0.01 v 0.01 h -0.01 V 475 l -0.01,0.01 v 0 l -0.01,0.01 -0.01,0.01 v 0 l -0.01,0.01 -0.01,0.01 v 0 l -0.01,0.01 -0.01,0.01 c -1.25,1.25 -1.56,3.13 -1.56,4.65 0,1.73 0.37,3.45 1.6,4.7 0.13,0.12 0.13,0.14 0.13,0.17 0,0.07 -0.04,0.09 -0.1,0.09 -0.1,0 -1,-0.67 -1.58,-1.93 -0.51,-1.09 -0.63,-2.2 -0.63,-3.03 0,-0.78 0.11,-1.98 0.66,-3.1 0.59,-1.22 1.45,-1.87 1.55,-1.87 0.06,0 0.1,0.03 0.1,0.1 z"
             inkscape:connector-curvature="0" /><path
             id="path5314"
             style="fill:#000000;stroke-width:0"
             d="m 266.13,480.95 h -0.02 -0.03 l -0.02,-0.01 h -0.03 l -0.02,-0.01 -0.02,-0.01 h -0.03 l -0.02,-0.01 -0.02,-0.01 -0.02,-0.01 -0.02,-0.02 -0.02,-0.01 -0.02,-0.01 -0.02,-0.02 -0.01,-0.01 -0.02,-0.02 -0.02,-0.01 -0.01,-0.02 -0.01,-0.01 -0.02,-0.02 -0.01,-0.02 -0.01,-0.02 -0.01,-0.02 -0.01,-0.02 -0.01,-0.02 v -0.02 l -0.01,-0.02 -0.01,-0.02 v -0.02 -0.02 -0.02 l -0.01,-0.02 c 0,-0.14 0.09,-0.29 0.31,-0.29 0.22,0 0.46,0.17 0.46,0.56 0,0.45 -0.43,0.86 -1.18,0.86 -1.32,0 -1.69,-1.02 -1.69,-1.46 0,-0.77 0.74,-0.92 1.03,-0.98 0.52,-0.1 1.04,-0.21 1.04,-0.75 0,-0.26 -0.23,-1.1 -1.43,-1.1 -0.14,0 -0.91,0 -1.14,0.53 0.38,-0.05 0.63,0.25 0.63,0.53 0,0.23 -0.16,0.34 -0.37,0.34 -0.26,0 -0.56,-0.2 -0.56,-0.65 0,-0.57 0.57,-0.96 1.43,-0.96 1.62,0 2,1.2 2,1.64 0,0.36 -0.19,0.61 -0.3,0.73 -0.27,0.28 -0.56,0.33 -1,0.42 -0.36,0.08 -0.76,0.15 -0.76,0.59 0,0.29 0.24,0.9 1.12,0.9 0.25,0 0.74,-0.07 0.89,-0.46 z"
             inkscape:connector-curvature="0" /><path
             id="path5316"
             style="fill:#000000;stroke-width:0"
             d="m 269.79,479.72 v 0.07 0.08 l -0.01,0.08 v 0.08 l -0.01,0.17 -0.01,0.17 -0.02,0.18 -0.02,0.19 -0.02,0.2 -0.04,0.2 -0.04,0.2 -0.04,0.21 -0.06,0.21 -0.06,0.21 -0.07,0.21 -0.08,0.21 -0.04,0.11 -0.04,0.11 -0.05,0.1 -0.05,0.11 c -0.6,1.22 -1.46,1.86 -1.56,1.86 -0.06,0 -0.1,-0.03 -0.1,-0.09 0,-0.03 0,-0.05 0.19,-0.23 0.98,-0.99 1.55,-2.56 1.55,-4.64 0,-1.7 -0.37,-3.45 -1.61,-4.7 -0.13,-0.12 -0.13,-0.14 -0.13,-0.17 0,-0.06 0.04,-0.1 0.1,-0.1 0.1,0 1,0.68 1.59,1.94 0.51,1.09 0.63,2.19 0.63,3.03 z"
             inkscape:connector-curvature="0" /><path
             id="path5318"
             style="fill:#000000;stroke-width:0"
             d="m 272.36,484.33 v 0.03 0.03 0.04 0.01 0.02 0.01 0.02 0.02 l -0.01,0.01 v 0.01 0.02 l -0.01,0.01 v 0.01 0.02 l -0.01,0.01 -0.01,0.01 v 0.01 l -0.01,0.01 -0.01,0.01 -0.01,0.01 h -0.01 l -0.01,0.01 h -0.01 v 0.01 h -0.01 -0.01 v 0 l -0.01,0.01 h -0.01 v 0 h -0.01 -0.01 -0.01 -0.01 -0.01 v 0 c -0.2,0 -0.2,-0.17 -0.2,-0.35 v -9.22 c 0,-0.18 0,-0.36 0.2,-0.36 0.19,0 0.19,0.18 0.19,0.36 z"
             inkscape:connector-curvature="0" /></g>      </g>
    </g>
    <path
       id="path5326"
       inkscape:label="none"
       style="fill:none;stroke:#0000ff;stroke-width:0.6272226;stroke-linecap:round;stroke-linejoin:round;stroke-dasharray:none"
       d="m 103.78667,102.52432 41.02245,10e-4 6.62689,0.001 4.70188,0.004 3.64705,0.004 2.97985,0.004 2.51944,0.005 2.18243,0.005 1.92504,0.008 1.72201,0.008 1.55774,0.008 1.4221,0.009 1.30821,0.009 1.21123,0.0114 1.12761,0.0114 1.05482,0.0132 0.99086,0.0132 0.93419,0.0132 0.88366,0.015 0.83834,0.0151 0.79742,0.0169 0.76032,0.0169 0.72651,0.0169 0.6956,0.0188 0.6672,0.0194 0.64102,0.0201 0.61682,0.0208 0.5944,0.0215 0.57354,0.0222 0.55407,0.023 0.53592,0.0238 0.51891,0.0245 0.50292,0.0252 0.48792,0.0258 0.47377,0.0266 0.46042,0.0273 1.72202,0.11588 1.92503,0.15993 1.72202,0.17594 1.55774,0.1909 1.4221,0.20508 1.30821,0.21833 1.21123,0.23068 1.12761,0.24207 1.05482,0.25259 1.92505,0.53314 1.722,0.56467 1.55774,0.58981 1.42211,0.60915 1.30822,0.62336 1.21122,0.63306 0.57353,0.31895 0.55408,0.31998 0.53592,0.3206 0.51891,0.32087 0.50292,0.32083 0.48792,0.32049 0.93419,0.63886 0.88368,0.63457 0.83834,0.62876 3.64704,3.02312 2.97984,2.7825 4.70188,4.84538 3.64705,4.04339 2.97985,3.43356 2.51944,2.96957 2.18244,2.60967 1.92503,2.32435 9.31718,11.33232"
       inkscape:connector-curvature="0"
       sodipodi:nodetypes="ccccccccccccccccccccccccccccccccccccccccccccccccccccccccccccccccccccc" />
  </g>
</svg>
